<?xml version="1.0" encoding="utf-8"?>
<!-- Generator: Adobe Illustrator 21.1.0, SVG Export Plug-In . SVG Version: 6.00 Build 0)  -->
<svg version="1.1" id="Слой_1" xmlns="http://www.w3.org/2000/svg" xmlns:xlink="http://www.w3.org/1999/xlink" x="0px" y="0px"
	 viewBox="0 0 351.5 80" style="enable-background:new 0 0 351.5 80;" xml:space="preserve">
<style type="text/css">
	.st0{fill:#A4AEC4;}
	.st1{fill:#1BB295;}
	.st2{fill:#F79A6F;}
	.st3{fill:#FFFFFF;}
	.st4{fill:#D4D6E5;}
</style>
<g>
	<path class="st0" d="M69.8,20c-0.3-0.5-0.8-1-1.3-1.3L36.9,0.5c-1.1-0.6-2.5-0.6-3.6,0L1.8,18.7c-0.6,0.3-1,0.8-1.3,1.3l34.6,20
		L69.8,20z"/>
	<path class="st1" d="M35.1,80c0.6,0,1.3-0.2,1.8-0.5l31.5-18.2c1.1-0.6,1.8-1.9,1.8-3.1V21.8c0-0.6-0.2-1.3-0.5-1.8L35.1,40V80z"/>
	<path class="st2" d="M33.3,79.5c0.6,0.3,1.2,0.5,1.8,0.5V40L0.5,20C0.2,20.5,0,21.2,0,21.8v36.4c0,1.3,0.7,2.5,1.8,3.1L33.3,79.5z"
		/>
	<g>
		<path class="st3" d="M24.9,61.4v4L9,56.2V53l8.1-3c1.9-0.7,2.2-1.6,2.2-2.6c0-1.6-1.1-3.3-3.4-4.5c-1.8-1-3.3-1.2-4.3-0.4L8,38.2
			c1.6-1.4,4.6-1.3,8.3,0.9c4.7,2.7,7.8,6.9,7.8,10.7c0,2-0.6,3.6-3.5,4.6l-4.8,1.8L24.9,61.4z"/>
	</g>
	<g>
		<path class="st3" d="M62.9,48.8c0,3.5-3.2,8.6-10,12.6c-3.4,2-6.9,3.2-9.2,3.1l2.2-5c1.8,0.1,4.4-0.7,6.9-2.1
			c2.8-1.6,4.5-3.6,4.5-5.3c0-1.6-1.4-1.8-4.5,0l-2.6,1.5v-3.2l5-7.8l-10.3,6v-3.9l17-9.8V38l-5.5,8.6
			C60.7,44.7,62.9,45.7,62.9,48.8z"/>
	</g>
	<polygon class="st3" points="49,16.9 39.1,10.5 35.8,12.5 35.8,12.5 34.4,13.3 38.9,16.3 25.7,24.1 25.7,24.1 24.2,24.9 29.6,28.3 
		47.6,17.7 47.6,17.7 	"/>
</g>
<g>
	<path class="st4" d="M108.5,24.6c-2.4,0-4.7,0.5-6.7,1.5c-1.2,0.6-2.4,1.4-3.4,2.4l-0.1-2.4v-1h-1h-3.6h-1v1v29.2v1h1h3.7h1v-1
		V35.6c0.8-1.9,2-3.4,3.5-4.5c1.6-1.1,3.5-1.7,5.6-1.7c2.5,0,4.3,0.5,5.3,1.6c1.1,1.1,1.6,2.8,1.6,5.1v19.2v1h1h3.7h1v-1V36.2
		c0-3.8-1-6.7-3-8.6C115.3,25.6,112.3,24.6,108.5,24.6z"/>
	<path class="st4" d="M150.5,25.2h-1v1v21c-1.3,3.4-4.4,5-9.3,5c-4.6,0-6.8-2.3-6.8-7.4V26.1v-1h-1h-3.7h-1v1v19
		c0,3.8,1.1,6.8,3.2,8.7c2.1,2,5,3,8.9,3c4.1,0,7.4-1,9.8-2.9v1.4v1h1h3.6h1v-1V26.1v-1h-1h-3.7V25.2z"/>
	<path class="st4" d="M200,24.6c-2.6,0-5,0.5-7.1,1.6c-1.6,0.8-3.1,1.9-4.2,3.2c-1.9-3.2-5.3-4.8-10.3-4.8c-2.4,0-4.7,0.5-6.7,1.4
		c-1.2,0.6-2.3,1.3-3.3,2.3l-0.1-2.2v-1h-1h-3.6h-1v1v29.2v1h1h3.7h1v-1V35.5c0.7-2,1.9-3.5,3.3-4.5c1.5-1,3.4-1.6,5.5-1.6
		c2.5,0,4.4,0.5,5.5,1.6c1.1,1,1.7,2.7,1.7,4.9v19.5v1h1h3.7h1v-1V36.1c0.2-1.8,1.1-3.3,2.7-4.6c1.7-1.3,3.8-2,6.2-2
		c2.6,0,4.5,0.5,5.5,1.6c1.1,1.1,1.6,2.8,1.7,5.1v19.2v1h1h3.7h1v-1V35.9C211.9,28.5,207.8,24.6,200,24.6z"/>
	<path class="st4" d="M234.8,24.6c-3.9,0-7.1,1.1-9.6,3.2v-14v-1h-1h-3.7h-1v1v41.5v1h1h3.5h1v-0.9l0.1-1.7c2.5,2.1,5.8,3.2,9.8,3.2
		c4.2,0,7.6-1.5,10.1-4.3s3.7-6.7,3.7-11.5v-0.5c0-4.9-1.3-8.8-3.7-11.7C242.5,26.1,239.1,24.6,234.8,24.6z M225.2,34.6
		c0.8-1.7,1.9-3,3.3-3.8c1.5-0.9,3.4-1.4,5.6-1.4c2.9,0,5,0.9,6.5,2.8c1.6,1.9,2.4,4.7,2.4,8.3c0,3.9-0.8,6.9-2.4,8.8
		c-1.6,1.9-3.7,2.8-6.5,2.8c-4.3,0-7.2-1.6-8.9-4.8L225.2,34.6L225.2,34.6z"/>
	<path class="st4" d="M268.3,24.6c-2.8,0-5.4,0.7-7.8,2.1s-4.3,3.3-5.6,5.7c-1.3,2.4-2,5.1-2,8.1v1.2c0,2.9,0.7,5.5,2.1,7.9
		c1.4,2.3,3.3,4.2,5.8,5.5s5.2,2,8.2,2c5.5,0,9.8-1.9,12.7-5.5l0.7-0.8l-0.9-0.6l-2.3-1.5l-0.7-0.5l-0.6,0.6
		c-1.1,1.3-2.4,2.2-3.8,2.8s-3.1,0.9-4.9,0.9c-3.1,0-5.6-1-7.6-3c-1.9-2-2.9-4.3-3-7.2h23.1h1v-1v-1.8c0-4.4-1.3-8-3.9-10.6
		C276.2,25.9,272.7,24.6,268.3,24.6z M268.3,29.3c2.6,0,4.6,0.8,6.2,2.4c1.4,1.5,2.2,3.3,2.4,5.5h-18c0.5-2.2,1.5-4.1,3-5.5
		C263.7,30.1,265.8,29.3,268.3,29.3z"/>
	<path class="st4" d="M302.2,24.6c-3.6,0-6.4,1.1-8.6,3.3v-1.7v-1h-1H289h-1v1v29.2v1h1h3.7h1v-1V35.5c0.6-1.9,1.6-3.3,3-4.2
		c1.4-1,3.2-1.5,5.3-1.5c0.8,0,1.6,0.1,2.4,0.2l1.1,0.2v-1.1l0.1-2.9v-0.7L305,25C304.3,24.8,303.3,24.6,302.2,24.6z"/>
	<polygon class="st4" points="310.9,12.9 309.9,12.9 309.9,13.9 309.9,55.4 309.9,56.4 310.9,56.4 314.6,56.4 315.6,56.4 
		315.6,55.4 315.6,13.9 315.6,12.9 314.6,12.9 	"/>
	<path class="st4" d="M347.6,28.5c-2.6-2.6-6.1-3.9-10.4-3.9c-2.8,0-5.4,0.7-7.8,2.1s-4.3,3.3-5.6,5.7c-1.3,2.4-2,5.1-2,8.1v1.2
		c0,2.9,0.7,5.5,2.1,7.9c1.4,2.3,3.3,4.2,5.8,5.5s5.2,2,8.2,2c5.5,0,9.8-1.9,12.7-5.5l0.7-0.8l-0.9-0.6l-2.3-1.5l-0.7-0.5l-0.6,0.6
		c-1.1,1.3-2.4,2.2-3.8,2.8s-3.1,0.9-4.9,0.9c-3.1,0-5.6-1-7.6-3c-1.9-2-2.9-4.3-3-7.2h23.1h1v-1v-1.8
		C351.5,34.7,350.2,31.1,347.6,28.5z M337.1,29.3c2.6,0,4.6,0.8,6.2,2.4c1.4,1.5,2.2,3.3,2.4,5.5h-18c0.5-2.2,1.5-4.1,3-5.5
		C332.5,30.1,334.6,29.3,337.1,29.3z"/>
</g>
</svg>
