<svg id="Layer_1" data-name="Layer 1" xmlns="http://www.w3.org/2000/svg" viewBox="0 0 541.92 55.52"><defs><style>.cls-1{fill:#00aa39;}</style></defs><path class="cls-1" d="M410.62,196.31a6.69,6.69,0,0,1-1.69-4.93V150.26a6.85,6.85,0,0,1,1.88-5,6.93,6.93,0,0,1,5.13-1.89,7.14,7.14,0,0,1,5.23,1.89,6.76,6.76,0,0,1,1.93,5v36.27h17.71q6.69,0,6.69,5.77a5.31,5.31,0,0,1-1.65,4.31,7.69,7.69,0,0,1-5,1.39H415.47A6.57,6.57,0,0,1,410.62,196.31Z" transform="translate(-408.93 -143.18)"/><path class="cls-1" d="M454.67,196.31a6.57,6.57,0,0,1-1.7-4.85v-41.2a5.93,5.93,0,0,1,6.55-6.55h26.64a7.78,7.78,0,0,1,5,1.39,4.87,4.87,0,0,1,1.7,4q0,5.55-6.7,5.55H466.75V165h17.87q6.69,0,6.7,5.46a4.89,4.89,0,0,1-1.7,4,7.76,7.76,0,0,1-5,1.38H466.75v11.25h19.41q6.69,0,6.7,5.54a4.86,4.86,0,0,1-1.7,4,7.72,7.72,0,0,1-5,1.39H459.52A6.53,6.53,0,0,1,454.67,196.31Z" transform="translate(-408.93 -143.18)"/><path class="cls-1" d="M568.51,144.33a6.7,6.7,0,0,1,3.81-1.15,6.59,6.59,0,0,1,4.43,1.61,5.5,5.5,0,0,1,1.88,4.39,10.12,10.12,0,0,1-.61,3.08l-15.48,41.89a6.2,6.2,0,0,1-2.81,3.35,8.8,8.8,0,0,1-4.5,1.19,8.59,8.59,0,0,1-4.47-1.19,6.21,6.21,0,0,1-2.77-3.35l-10-28.57-10.47,28.57a6.68,6.68,0,0,1-2.85,3.35,8.48,8.48,0,0,1-4.39,1.19,8.62,8.62,0,0,1-4.47-1.19,6.25,6.25,0,0,1-2.77-3.35l-15.55-41.89a8.8,8.8,0,0,1-.54-2.92,5.51,5.51,0,0,1,2-4.51,7.31,7.31,0,0,1,4.73-1.65,7.46,7.46,0,0,1,4,1.11,6.2,6.2,0,0,1,2.58,3.35L520.81,178,532,147.64a6.48,6.48,0,0,1,2.5-3.31,6.75,6.75,0,0,1,3.82-1.15,6.39,6.39,0,0,1,6.23,4.54L555,178.67l11-31A6.43,6.43,0,0,1,568.51,144.33Z" transform="translate(-408.93 -143.18)"/><path class="cls-1" d="M587.56,196.31a6.61,6.61,0,0,1-1.69-4.85v-41.2a5.92,5.92,0,0,1,6.55-6.55H608A34.21,34.21,0,0,1,623.49,147a23.19,23.19,0,0,1,10,9.35,28.79,28.79,0,0,1,3.46,14.48,29.45,29.45,0,0,1-3.42,14.59,22.69,22.69,0,0,1-9.94,9.36A34.77,34.77,0,0,1,608,198H592.42A6.58,6.58,0,0,1,587.56,196.31Zm31.31-13.59q4-3.9,4-11.9t-4-11.86q-4-3.86-11.9-3.85H600V186.6H607Q614.91,186.6,618.87,182.72Z" transform="translate(-408.93 -143.18)"/><path class="cls-1" d="M647.09,196.31a6.69,6.69,0,0,1-1.7-4.93V150.26a6.81,6.81,0,0,1,1.89-5,6.91,6.91,0,0,1,5.12-1.89,7.14,7.14,0,0,1,5.23,1.89,6.72,6.72,0,0,1,1.93,5v36.27h17.71q6.71,0,6.7,5.77a5.28,5.28,0,0,1-1.66,4.31,7.68,7.68,0,0,1-5,1.39H651.94A6.53,6.53,0,0,1,647.09,196.31Z" transform="translate(-408.93 -143.18)"/><path class="cls-1" d="M691.13,196.31a6.57,6.57,0,0,1-1.7-4.85v-41.2a5.93,5.93,0,0,1,6.55-6.55h26.64a7.79,7.79,0,0,1,5,1.39,4.89,4.89,0,0,1,1.69,4q0,5.55-6.7,5.55h-19.4V165h17.86q6.7,0,6.7,5.46a4.88,4.88,0,0,1-1.69,4,7.79,7.79,0,0,1-5,1.38H703.22v11.25h19.4q6.71,0,6.7,5.54a4.88,4.88,0,0,1-1.69,4,7.73,7.73,0,0,1-5,1.39H696A6.55,6.55,0,0,1,691.13,196.31Z" transform="translate(-408.93 -143.18)"/><path d="M759.31,196.58a6.92,6.92,0,0,1-1.89-5.12v-41.2a5.93,5.93,0,0,1,6.55-6.55h19.71q9,0,14,4.59t5,12.74q0,8.09-5,12.71t-14,4.62H771.59v13.09a6.86,6.86,0,0,1-1.92,5.12,7.2,7.2,0,0,1-5.24,1.88A7,7,0,0,1,759.31,196.58Zm28.26-30.46a6.22,6.22,0,0,0,1.89-5q0-6.7-7.7-6.7H771.59v13.32h10.17Q785.68,167.74,787.57,166.12Z" transform="translate(-408.93 -143.18)"/><path d="M811.25,196.31a6.69,6.69,0,0,1-1.7-4.93V150.26a6.81,6.81,0,0,1,1.89-5,6.91,6.91,0,0,1,5.12-1.89,7.13,7.13,0,0,1,5.23,1.89,6.72,6.72,0,0,1,1.93,5v36.27h17.71q6.71,0,6.7,5.77a5.28,5.28,0,0,1-1.66,4.31,7.68,7.68,0,0,1-5,1.39H816.1A6.55,6.55,0,0,1,811.25,196.31Z" transform="translate(-408.93 -143.18)"/><path d="M906.57,192.15a5.51,5.51,0,0,1-2,4.31,6.9,6.9,0,0,1-4.66,1.77,6,6,0,0,1-3.23-.92,6.2,6.2,0,0,1-2.31-2.77l-3.47-7.78H865.92l-3.55,7.78a6.13,6.13,0,0,1-2.34,2.77,6.23,6.23,0,0,1-3.28.92,7.19,7.19,0,0,1-4.73-1.77,5.41,5.41,0,0,1-2.12-4.31,6.62,6.62,0,0,1,.69-2.85l20.33-41.74a7.2,7.2,0,0,1,3-3.19,8.95,8.95,0,0,1,8.67,0,7.13,7.13,0,0,1,3,3.19l20.33,41.74A6.62,6.62,0,0,1,906.57,192.15Zm-35.88-16h15.4L878.39,159Z" transform="translate(-408.93 -143.18)"/><path d="M944.22,143.25a6.48,6.48,0,0,1,4.59,2,6.09,6.09,0,0,1,2,4.5,6.49,6.49,0,0,1-1.7,4.24L933,172.67v18.79a6.7,6.7,0,0,1-2,5.19,7.14,7.14,0,0,1-5,1.81,7.36,7.36,0,0,1-5.15-1.81,6.62,6.62,0,0,1-2-5.19V172.67L902.8,154a6.43,6.43,0,0,1-1.77-4.32,6,6,0,0,1,2-4.46,6.39,6.39,0,0,1,4.54-1.93,6.06,6.06,0,0,1,4.7,2.31l13.63,16.17,13.63-16.17A6,6,0,0,1,944.22,143.25Z" transform="translate(-408.93 -143.18)"/></svg>