<?xml version="1.0" encoding="utf-8"?>
<!-- Generator: Adobe Illustrator 21.1.0, SVG Export Plug-In . SVG Version: 6.00 Build 0)  -->
<svg version="1.1" id="Capa_1" xmlns="http://www.w3.org/2000/svg" xmlns:xlink="http://www.w3.org/1999/xlink" x="0px" y="0px"
	 viewBox="0 0 512 512" style="enable-background:new 0 0 512 512;" xml:space="preserve">
<style type="text/css">
	.st0{fill:#F4F3E9;}
	.st1{fill:#5CCD71;}
</style>
<path d="M466,0H46C20.7,0,0,20.7,0,46v420c0,25.3,20.7,46,46,46h420c25.3,0,46-20.7,46-46V46C512,20.7,491.3,0,466,0z M30,45
	c0-8.3,6.7-15,15-15h115.7v130.7H30V45z M30,190.7h130.7v130.7H30V190.7z M482,467c0,8.3-6.7,15-15,15H351.3V351.3H482V467z
	 M482,321.3H351.3V190.7H482V321.3z M482,160.7H362.7h-11.3h-30v30v130.7v30V362v120H190.7h-30h-7.3H45c-8.3,0-15-6.7-15-15V351.3
	h123.3h7.3h30v-30V190.7v-30v-14V30h130.7h30h11.3H467c8.3,0,15,6.7,15,15V160.7z"/>
<path class="st0" d="M160.7,30H45c-8.3,0-15,6.7-15,15v115.7h130.7V30z"/>
<path class="st1" d="M467,30H362.7h-11.3h-30H190.7v116.7v14v30v130.7v30h-30h-7.3H30V467c0,8.3,6.7,15,15,15h108.3h7.3h30h130.7
	V362v-10.7v-30V190.7v-30h30h11.3H482V45C482,36.7,475.3,30,467,30z"/>
<rect x="30" y="190.7" class="st0" width="130.7" height="130.7"/>
<rect x="351.3" y="190.7" class="st0" width="130.7" height="130.7"/>
<path class="st0" d="M351.3,482H467c8.3,0,15-6.7,15-15V351.3H351.3V482z"/>
</svg>
