<svg version="1.2" xmlns="http://www.w3.org/2000/svg" viewBox="0 0 406 512" width="406" height="512">
	<title>clubs-svg</title>
	<style>
		.s0 { fill: #000000 } 
	</style>
	<g id="Layer">
		<path id="Layer" class="s0" d="m405.5 291.8c0 22.3-7.9 44-22.2 61.2-14.3 17.2-34.3 28.8-56.3 32.7-22 4-44.7 0.2-64.2-10.9-19.4-11-34.4-28.6-42.3-49.5 0 62.8 4 104.6 63.6 136.2h-162.3c59.6-31.6 63.6-73.4 63.6-136.2-13.4 35.7-46.8 60-84.9 61.8-38.1 1.8-73.7-19.3-90.4-53.6-16.7-34.3-11.3-75.2 13.6-104.1 24.9-28.9 64.6-40.1 101-28.7-20.4-29.1-22.9-67.2-6.5-98.8 16.5-31.6 49.1-51.4 84.7-51.4 35.7 0 68.3 19.8 84.8 51.4 16.4 31.6 13.9 69.7-6.5 98.8 14.3-4.5 29.5-5.6 44.3-3.1 14.8 2.4 28.8 8.3 40.9 17.2 12.1 8.8 22 20.4 28.8 33.8 6.7 13.4 10.3 28.2 10.3 43.2z"/>
	</g>
</svg>