<?xml version="1.0" encoding="UTF-8"?><svg id="Layer_1" xmlns="http://www.w3.org/2000/svg" viewBox="0 0 100 100"><circle cx="50" cy="50" r="50" fill="#d8bd48"/><path d="M75.76,71.75c-1.15,1.79-2.44,3.45-3.89,4.98-1.45,1.55-3.14,2.88-5.11,4.01-1.95,1.13-4.24,2.02-6.85,2.67s-5.65.98-9.11.98c-10.08,0-17.56-2.86-22.44-8.59-4.89-5.72-7.32-14.32-7.32-25.8s2.45-20.16,7.34-25.85c4.89-5.69,12.21-8.53,21.95-8.53,3.34,0,6.3.31,8.87.93,2.58.62,4.85,1.47,6.82,2.55s3.67,2.36,5.08,3.84,2.63,3.07,3.65,4.8l-8.87,6.44c-.7-1.08-1.47-2.15-2.31-3.2s-1.87-1.98-3.06-2.79c-1.19-.81-2.6-1.47-4.22-1.95-1.63-.49-3.54-.74-5.77-.74-6.2,0-10.75,2.05-13.64,6.15-2.9,4.1-4.34,10.22-4.34,18.37,0,4.36.39,8.08,1.17,11.16s1.93,5.62,3.45,7.61c1.53,1.99,3.42,3.45,5.68,4.37,2.26.92,4.85,1.39,7.77,1.39,2.19,0,4.12-.24,5.77-.72s3.11-1.12,4.36-1.94,2.36-1.77,3.31-2.86,1.85-2.26,2.67-3.51c0,0,9.04,6.23,9.04,6.23Z" fill="#fff"/><path d="M67.8,52.78v-4.23h19.73v4.23h-19.73ZM75.64,60.63v-19.96h4.07v19.96h-4.07Z" fill="#fff"/></svg>