<?xml version="1.0" encoding="utf-8"?>
<!DOCTYPE svg PUBLIC "-//W3C//DTD SVG 1.0//EN" "http://www.w3.org/TR/2001/REC-SVG-20010904/DTD/svg10.dtd">
<svg version="1.0" xmlns="http://www.w3.org/2000/svg" width="1482px" height="393px" viewBox="0 0 1482 393" preserveAspectRatio="xMidYMid meet">
 <g fill="#000000">
  <path d="M95.6 311.8 c-1.4 -2 -1.6 -15 -1.6 -119.9 0 -110.8 0.1 -117.8 1.8 -119.9 l1.7 -2.1 62 0.4 c53.4 0.3 63 0.6 68.8 2.1 38.1 9.2 62.2 37.3 71.4 83.1 2.6 13.2 2.6 62.1 0 74.5 -5.7 26.6 -18.6 50.6 -34.1 63.1 -7.2 5.8 -18.8 12.1 -28.9 15.5 -14.3 4.9 -21.6 5.4 -82.9 5.4 l-56.7 0 -1.5 -2.2z m105.2 -9.8 c16.8 -1.3 27.7 -4.1 40.2 -10.2 9.3 -4.5 11.6 -6.1 19.5 -14.2 10.1 -10.2 15.8 -19.4 21.3 -33.9 6.6 -17.7 7.6 -24.5 7.6 -50.7 0 -20.8 -0.2 -24.7 -2.2 -34 -5.1 -23.3 -13 -38.7 -27.2 -53.1 -8.5 -8.6 -10.6 -10.1 -20 -14.7 -18.6 -8.9 -29.4 -10.1 -91.7 -10.2 l-42.3 0 0 111 0 111 41.3 0 c22.6 0 46.7 -0.5 53.5 -1z"/>
  <path d="M146 192 l0 -78.3 29.3 0.6 c24.2 0.4 30.4 0.8 36.3 2.4 14.5 3.8 24.4 12.6 30.4 26.9 5.6 13.6 8 39.3 6 66.1 -2.6 36.5 -12 52.2 -34.9 58.1 -4 1 -14.3 1.6 -36.3 1.9 l-30.8 0.5 0 -78.2z m61.9 63.5 c7.1 -2.2 12 -5.4 16.4 -10.6 14.8 -17.2 16.9 -75.3 3.6 -98.6 -3.9 -6.9 -11.7 -13.7 -18.5 -16.2 -7.1 -2.7 -19.6 -4.1 -37.1 -4.1 l-14.3 0 0 66.1 0 66.2 22.3 -0.6 c16.9 -0.4 23.5 -0.9 27.6 -2.2z"/>
  <path d="M434.5 308.9 c-14.2 -1 -28.6 -4.7 -40.3 -10.4 -11.5 -5.5 -16.5 -9 -25.3 -17.3 -4.4 -4 -6.9 -5.8 -6.9 -4.8 0 2.3 -2.3 2 -4.7 -0.6 -3.9 -4.3 -11.7 -17.2 -14.9 -24.8 -8.3 -19.8 -11.8 -46.6 -9.6 -74.7 1.8 -23.2 4.9 -35.6 12.2 -50.3 7.3 -14.5 17 -26.1 17 -20.4 0 1 2.7 -1 7.3 -5.3 8.4 -8 13.6 -11.7 22.4 -16.2 15.6 -7.8 31.7 -11.2 53.8 -11.2 33.5 0 57.1 8.5 77.8 28.1 14.7 13.8 23.7 29.3 29.2 50.2 6.3 24.1 6.1 58.6 -0.6 82.8 -2.6 9.4 -9.3 23.7 -15 32.1 -5.5 8.2 -16.6 19.3 -24.8 24.8 -14.2 9.7 -33.7 16.5 -50.4 17.6 -4.5 0.3 -10 0.7 -12.2 0.9 -2.2 0.1 -8.9 -0.1 -15 -0.5z m28.3 -40.4 c16.3 -3.9 30.9 -15.9 38.7 -32 5.5 -11.3 7.6 -21.6 8.2 -40.3 1 -29.6 -3.4 -48.1 -14.9 -62.7 -11.6 -14.7 -26.9 -21.5 -48.3 -21.5 -19.5 0 -31.2 4.6 -43.8 17.1 -11.9 11.9 -17.4 25 -19.8 47.9 -1.8 17 0 35.7 4.7 50.1 6.9 21 23 36.7 42.9 41.5 7 1.7 24.7 1.7 32.3 -0.1z"/>
  <path d="M602 190.9 l0 -115.2 60.8 0.6 c59.9 0.6 70 1.1 82.7 4.3 16.5 4.2 29.1 14.5 36.3 29.5 15.6 32.5 4.4 71.1 -24.8 85.2 -6.6 3.2 -16.9 6.5 -25.2 8.2 -1.6 0.3 -2.8 0.9 -2.7 1.3 0 0.4 3.2 2.7 7.1 5.2 8.9 5.6 19.6 16.2 27 26.7 5.6 7.7 43.8 67.9 43.8 68.8 0 0.3 -12.1 0.5 -26.8 0.5 l-26.9 0 -20.8 -31.2 c-32.7 -49.2 -39 -57 -50.2 -62 -4.1 -1.9 -7 -2.3 -20 -2.6 l-15.3 -0.4 0 48.1 0 48.1 -22.5 0 -22.5 0 0 -115.1z m115.3 -18.9 c8.3 -1.2 13.2 -3.6 18 -8.9 8.8 -9.7 8.9 -28.6 0.3 -38.8 -2 -2.2 -5.8 -5.1 -8.8 -6.4 -5.2 -2.4 -5.7 -2.4 -42.5 -2.7 l-37.3 -0.3 0 29.1 0 29 31.8 0 c17.4 0 34.8 -0.5 38.5 -1z"/>
  <path d="M841 191 l0 -115 39.8 0 c43.4 0 71.1 1.2 81.3 3.4 16.1 3.5 29.1 10.9 41.1 23.4 12.7 13.3 21 30 25.5 51.1 3.4 16.1 4.3 48.2 1.9 65.1 -3.1 20.7 -10.7 39.6 -22.3 54.8 -7.2 9.4 -14.5 15.1 -26.8 21.2 -19.2 9.5 -32.3 10.9 -98.7 11 l-41.8 0 0 -115z m112 73.2 c12.3 -4.1 19.7 -11 24.8 -23.5 5 -11.8 6.3 -20.1 6.9 -42.9 0.6 -23.3 -0.5 -35.8 -4.3 -47.9 -4 -12.7 -12.6 -23.9 -22.1 -28.7 -9.7 -5 -13.3 -5.5 -43.5 -6 l-28.8 -0.4 0 76.2 0 76.2 30.3 -0.4 c27.7 -0.4 30.7 -0.6 36.7 -2.6z"/>
  <path d="M1081 192 l0 -114 23 0 23 0 0 94.5 0 94.5 57.5 0 57.5 0 0 19.5 0 19.5 -80.5 0 -80.5 0 0 -114z"/>
  <path d="M1283 191 l0 -115 84.5 0 84.5 0 0 19.5 0 19.5 -62 0 -62 0 0 25.5 0 25.5 58 0 58 0 0 19.5 0 19.5 -58 0 -58 0 0 31 0 31 64.5 0 64.5 0 0 19.5 0 19.5 -87 0 -87 0 0 -115z"/>
 </g>
 <g fill="#22c55e">
  <path d="M86.4 370 c-17.9 -1.5 -33.8 -8 -48.6 -19.9 -13.9 -11.2 -25 -28.5 -30 -46.6 -2.2 -7.9 -2.2 -8.6 -2.6 -101.6 -0.1 -51.5 0.1 -99.2 0.6 -106 1.6 -21.3 9 -38.2 23.7 -53.7 16.2 -17.2 35.4 -26.5 56.8 -27.7 18.2 -1 161.6 -1.3 182.7 -0.5 15.6 0.7 22.2 1.3 27.5 2.9 26.2 7.5 45.5 23.8 56.9 48.2 5.3 11.4 7.4 19.6 8.3 32.1 l0.6 9.5 -5.5 7.9 c-13.2 18.9 -18.6 35.1 -20.9 63.4 -2.1 24.7 1.5 50.8 9.5 70 3.2 7.6 11 20.5 14.9 24.7 1.9 2.1 2 3.1 1.4 13.5 -1.1 18.8 -6.4 33.5 -17.5 48.5 -9.9 13.4 -21.9 22.6 -38.2 29.4 -14.8 6.2 -11.5 6.1 -115 6.4 -52 0.2 -99.1 0 -104.6 -0.5z m130.6 -60.5 c24.2 -3.7 44.9 -15.2 57.7 -32.2 10.5 -14 17.8 -30.7 22 -50.3 2.6 -12.3 2.6 -55.4 0 -68.5 -8 -39.7 -27.5 -66.7 -57 -78.5 -15.7 -6.3 -15.6 -6.3 -80.2 -6.7 l-59 -0.4 -1.7 2.1 c-1.7 2.1 -1.8 8.9 -1.8 116.9 0 102.2 0.2 114.9 1.6 116.9 l1.5 2.2 53.7 0 c41.8 0 55.8 -0.3 63.2 -1.5z"/>
  <path d="M155 192.1 l0 -69.1 17.3 0 c30.4 0 41.4 2.3 50.6 10.6 6.2 5.6 10.3 12.7 13 22.4 6.2 22.3 4.9 61.9 -2.8 82.1 -2.4 6.4 -7.7 13 -13.1 16.4 -7.8 4.9 -12.8 5.7 -39.7 6.2 l-25.3 0.5 0 -69.1z"/>
 </g>
 <g fill="#ffffff">
  <path d="M103 192 l0 -114 45.3 0 c65.5 0.1 75.9 1.2 94.7 10.2 9.4 4.6 11.5 6.1 20 14.7 18.8 19.1 27.9 42.7 29.9 77.4 2.6 44.7 -7.1 77.6 -29.4 100.3 -7.9 8.1 -10.2 9.7 -19.5 14.2 -20.1 9.8 -31.7 11.1 -96.7 11.2 l-44.3 0 0 -114z m107.1 72.8 c22.8 -5.9 32.3 -21.7 34.9 -57.9 1.2 -16.6 0.1 -38.9 -2.5 -49.6 -3.4 -14.4 -11.2 -26.4 -21 -32.3 -10.1 -6 -16.6 -7.1 -46.2 -7.7 l-26.3 -0.6 0 75.3 0 75.2 27.8 -0.5 c19.1 -0.3 29.4 -1 33.3 -1.9z"/>
 </g>
</svg>