<?xml version="1.0" encoding="utf-8"?>
<!-- Generator: Adobe Illustrator 26.0.2, SVG Export Plug-In . SVG Version: 6.00 Build 0)  -->
<svg version="1.1" id="Layer_1" xmlns="http://www.w3.org/2000/svg" xmlns:xlink="http://www.w3.org/1999/xlink" x="0px" y="0px"
	 viewBox="0 0 355.1 356" style="enable-background:new 0 0 355.1 356;" xml:space="preserve">
<style type="text/css">
	.st0{fill:none;stroke:#FF8087;stroke-width:22;stroke-linecap:round;stroke-linejoin:round;stroke-miterlimit:10;}
	.st1{display:none;}
	.st2{display:inline;fill:none;stroke:#FF8087;stroke-width:20;stroke-linecap:round;stroke-miterlimit:10;}
	.st3{display:inline;fill:none;stroke:#49C580;stroke-width:20;stroke-linecap:round;stroke-miterlimit:10;}
</style>
<g id="Layer_1_00000077307487455802561000000002831395351079681664_">
	<path class="st0" d="M281.3,299.1c-27.9,23.9-64.1,38.4-103.7,38.4c-88.1,0-159.4-71.4-159.4-159.5S89.5,18.6,177.6,18.6
		S337,89.9,337,178c0,33.9-10.6,65.4-28.7,91.2"/>
</g>
<g id="Layer_2_00000086682526082001557390000011461069974765163911_" class="st1">
	<line class="st2" x1="141.1" y1="287.4" x2="110.3" y2="323.4"/>
	<line class="st2" x1="248.5" y1="254.4" x2="177.2" y2="337.8"/>
	<path class="st3" d="M258.6,290.9"/>
	<path class="st3" d="M289.3,254.9"/>
	<line class="st2" x1="217.1" y1="72.1" x2="247.8" y2="36.1"/>
	<line class="st2" x1="111.7" y1="102.8" x2="182.9" y2="19.4"/>
</g>
<g id="Layer_2">
	<path class="st0" d="M166.2,23.5l-61.1,105.6"/>
	<path class="st0" d="M238.1,36.5l-37.1,62"/>
	<path class="st0" d="M190.8,333.5l61.1-105.6"/>
	<path class="st0" d="M118.9,320.5l37.1-62"/>
</g>
</svg>
