<?xml version="1.0" encoding="utf-8"?>
<!-- Generator: Adobe Illustrator 26.0.2, SVG Export Plug-In . SVG Version: 6.00 Build 0)  -->
<svg version="1.1" id="Layer_1" xmlns="http://www.w3.org/2000/svg" xmlns:xlink="http://www.w3.org/1999/xlink" x="0px" y="0px"
	 viewBox="0 0 355.1 356" style="enable-background:new 0 0 355.1 356;" xml:space="preserve">
<style type="text/css">
	.st0{fill:#53A0E5;stroke:#000000;stroke-width:22;stroke-linecap:round;stroke-linejoin:round;stroke-miterlimit:10;}
	.st1{opacity:0.25;enable-background:new    ;}
</style>
<g id="Layer_1_00000140731368752168041180000004329710505619321480_">
	<path class="st0" d="M18.6,165.8c2.7-36.6,18.2-72.5,46.2-100.5C127.1,3,228,3,290.3,65.3s62.3,163.3,0,225.6
		s-163.2,62.2-225.5-0.1c-24-24-38.7-53.7-44.2-84.8"/>
</g>
<g id="Layer_2_00000039831175767007980460000002142035296534674834_">
	<path class="st1" d="M142.2,32.7c-34.5,13.5-51.8,10.6-65.5,23.7s-38.4,42.9-48.8,72.9s-14.3,71,0,100.2s23.6,50.2,40.6,67.2
		s45.4,16.1,49.7,17.9c4.4,1.7-51.5-22.1-51.5-140.9C66.7,62,142.2,32.7,142.2,32.7z"/>
</g>
</svg>
