<?xml version="1.0" encoding="utf-8"?>
<!-- Generator: Adobe Illustrator 26.0.2, SVG Export Plug-In . SVG Version: 6.00 Build 0)  -->
<svg version="1.1" id="Layer_1" xmlns="http://www.w3.org/2000/svg" xmlns:xlink="http://www.w3.org/1999/xlink" x="0px" y="0px"
	 viewBox="0 0 355.1 356" style="enable-background:new 0 0 355.1 356;" xml:space="preserve">
<style type="text/css">
	.st0{fill:none;stroke:#49C580;stroke-width:22;stroke-linecap:round;stroke-linejoin:round;stroke-miterlimit:10;}
	.st1{display:none;}
	.st2{display:inline;fill:none;stroke:#49C580;stroke-width:20;stroke-linecap:round;stroke-miterlimit:10;}
</style>
<g id="Layer_1_00000070833607534647751870000011422475596014822528_">
	<path class="st0" d="M298.6,74.3c24,27.8,38.4,64.1,38.4,103.7c0,88.1-71.4,159.5-159.4,159.5S18.1,266.1,18.1,178
		S89.5,18.6,177.6,18.6c33.9,0,65.4,10.6,91.2,28.7"/>
</g>
<g id="Layer_2_00000056399418004553818690000000852884034706453690_" class="st1">
	<line class="st2" x1="141.1" y1="287.4" x2="110.3" y2="323.4"/>
	<line class="st2" x1="248.5" y1="254.4" x2="177.2" y2="337.8"/>
	<path class="st2" d="M258.6,290.9"/>
	<path class="st2" d="M289.3,254.9"/>
	<line class="st2" x1="217.1" y1="72.1" x2="247.8" y2="36.1"/>
	<line class="st2" x1="111.7" y1="102.8" x2="182.9" y2="19.4"/>
</g>
<g id="Layer_2">
	<g>
		<path class="st0" d="M171.2,20l-61.1,105.6"/>
		<path class="st0" d="M243.1,33L206,95"/>
		<path class="st0" d="M127.4,325.5"/>
		<path class="st0" d="M192.1,217.5"/>
		<path class="st0" d="M190.6,334.7"/>
		<path class="st0" d="M288.2,166.1"/>
	</g>
	<path class="st0" d="M288,168.5"/>
	<path class="st0" d="M190.4,337.1"/>
	<path class="st0" d="M185.5,212"/>
	<path class="st0" d="M118.4,324.1"/>
	<path class="st0" d="M276.3,179.5"/>
	<path class="st0" d="M190.4,328.1"/>
	<path class="st0" d="M175.6,219.6"/>
	<path class="st0" d="M118.4,315.1"/>
	<path class="st0" d="M257,212"/>
	<path class="st0" d="M186,334.7"/>
	<path class="st0" d="M160.6,243.9"/>
	<path class="st0" d="M114.1,321.7"/>
	<path class="st0" d="M195.7,329.9l61.1-105.6"/>
	<path class="st0" d="M123.8,316.9l37.1-62"/>
</g>
</svg>
