<?xml version="1.0" encoding="utf-8"?>
<!-- Generator: Adobe Illustrator 26.0.2, SVG Export Plug-In . SVG Version: 6.00 Build 0)  -->
<svg version="1.1" xmlns="http://www.w3.org/2000/svg" xmlns:xlink="http://www.w3.org/1999/xlink" x="0px" y="0px"
	 viewBox="0 0 355.1 356" style="enable-background:new 0 0 355.1 356;" xml:space="preserve">
<style type="text/css">
	.st0{fill:#FF8087;stroke:#000000;stroke-width:22;stroke-linecap:round;stroke-linejoin:round;stroke-miterlimit:10;}
	.st1{opacity:0.25;}
</style>
<g id="Layer_1">
	<path class="st0" d="M281.3,299.1c-27.8,24-64.1,38.4-103.7,38.4c-88.1,0-159.5-71.4-159.5-159.4S89.5,18.6,177.6,18.6
		S337,90,337,178.1c0,33.9-10.6,65.4-28.7,91.2"/>
</g>
<g id="Layer_2">
	<path class="st1" d="M140,32.7c-34.5,13.5-51.8,10.6-65.5,23.7s-38.4,42.9-48.8,72.9s-14.3,71,0,100.2s23.6,50.2,40.6,67.2
		s45.4,16.1,49.7,17.9c4.4,1.7-51.5-22.1-51.5-140.9C64.5,62,140,32.7,140,32.7z"/>
</g>
</svg>
