<?xml version="1.0" encoding="utf-8"?>
<!-- Generator: Adobe Illustrator 26.0.2, SVG Export Plug-In . SVG Version: 6.00 Build 0)  -->
<svg version="1.1" id="Layer_1" xmlns="http://www.w3.org/2000/svg" xmlns:xlink="http://www.w3.org/1999/xlink" x="0px" y="0px"
	 viewBox="0 0 355.1 356" style="enable-background:new 0 0 355.1 356;" xml:space="preserve">
<style type="text/css">
	.st0{display:none;}
	.st1{display:inline;fill:none;stroke:#FFD164;stroke-width:20;stroke-linecap:round;stroke-miterlimit:10;}
	.st2{fill:none;stroke:#53A0E5;stroke-width:22;stroke-linecap:round;stroke-linejoin:round;stroke-miterlimit:10;}
</style>
<g id="Layer_3" class="st0">
	<line class="st1" x1="83.3" y1="286.3" x2="52.5" y2="322.3"/>
	<line class="st1" x1="202.9" y1="238.9" x2="131.7" y2="322.3"/>
	<line class="st1" x1="268.6" y1="286.3" x2="237.9" y2="322.3"/>
	<line class="st1" x1="268.6" y1="67.4" x2="299.4" y2="31.4"/>
	<line class="st1" x1="149" y1="114.8" x2="220.2" y2="31.4"/>
	<line class="st1" x1="83.3" y1="67.4" x2="114" y2="31.4"/>
</g>
<g id="Layer_1_00000061442819157707659840000000735362291917836469_">
	<path class="st2" d="M29.1,269.8V309c0,9.6,7.8,17.4,17.4,17.4h262c9.6,0,17.4-7.8,17.4-17.4V47c0-9.6-7.8-17.4-17.4-17.4h-262
		c-9.6,0-17.4,7.8-17.4,17.4v185.8"/>
</g>
<g id="Layer_2_00000149339375113313669600000011357884761513607079_">
	<path class="st2" d="M222.1,31.7l-98.3,169.9"/>
	<path class="st2" d="M305.3,31.7l-43.5,72.6"/>
	<path class="st2" d="M251.9,227.9"/>
	<path class="st2" d="M190.8,333.5"/>
	<path class="st2" d="M156,258.5"/>
	<path class="st2" d="M118.9,320.5"/>
	<path class="st2" d="M133.4,32.4l-50.3,84.1"/>
	<path class="st2" d="M205.7,219.8"/>
	<path class="st2" d="M144.6,325.4"/>
	<path class="st2" d="M100,264.1"/>
	<path class="st2" d="M62.9,326.1"/>
	<path class="st2" d="M270.6,262.6"/>
	<path class="st2" d="M233.5,324.6"/>
	<path class="st2" d="M131.9,326.4l96.8-167.3"/>
	<path class="st2" d="M48.8,326.4l43.5-72.6"/>
	<path class="st2" d="M220.6,325.6l49.9-83.4"/>
</g>
</svg>
