<?xml version="1.0" encoding="utf-8"?>
<!-- Generator: Adobe Illustrator 26.0.2, SVG Export Plug-In . SVG Version: 6.00 Build 0)  -->
<svg version="1.1" id="Layer_1" xmlns="http://www.w3.org/2000/svg" xmlns:xlink="http://www.w3.org/1999/xlink" x="0px" y="0px"
	 viewBox="0 0 355.1 356" style="enable-background:new 0 0 355.1 356;" xml:space="preserve">
<style type="text/css">
	.st0{fill:#53A0E5;stroke:#000000;stroke-width:22;stroke-linecap:round;stroke-linejoin:round;stroke-miterlimit:10;}
	.st1{opacity:0.25;enable-background:new    ;}
</style>
<g id="Layer_1_00000020360178320876914350000005939855956843204542_">
	<path class="st0" d="M209.6,73.9l-11.4-19.8c-9.2-15.9-32.2-15.9-41.4,0l-124.7,216c-9.1,16,2.3,35.9,20.7,35.9h249.4
		c18.4,0,29.9-19.9,20.7-35.8l-94.6-163.9"/>
</g>
<g id="Layer_2_00000026154528105555243440000004477971470723845540_">
	<path class="st1" d="M77.1,302.4c-9.8-5-10.3-15.9-3.7-29.4c6.5-13.6,100.8-174.2,109.7-190.5S201.9,72,201.9,72
		s-17-34.3-24.4-30.8s-14,2.7-20.7,14.2S32.9,263.9,29.5,277.9s9.1,29.4,16.2,29.4S77.1,302.4,77.1,302.4z"/>
</g>
</svg>
