<?xml version="1.0" encoding="utf-8"?>
<!-- Generator: Adobe Illustrator 26.0.2, SVG Export Plug-In . SVG Version: 6.00 Build 0)  -->
<svg version="1.1" id="Layer_1" xmlns="http://www.w3.org/2000/svg" xmlns:xlink="http://www.w3.org/1999/xlink" x="0px" y="0px"
	 viewBox="0 0 355.1 356" style="enable-background:new 0 0 355.1 356;" xml:space="preserve">
<style type="text/css">
	.st0{fill:#49C580;stroke:#000000;stroke-width:22;stroke-linecap:round;stroke-linejoin:round;stroke-miterlimit:10;}
	.st1{opacity:0.25;enable-background:new    ;}
</style>
<g id="Layer_3">
	<path class="st0" d="M279.5,305.9h22.8c18.4,0,29.9-19.9,20.7-35.8L198.5,54c-9.3-15.9-32.2-16-41.4-0.1L32.2,269.8
		c-9.2,15.9,2.3,35.8,20.6,35.8l189.2,0.2"/>
</g>
<g id="Layer_1_00000006683196088505174920000001963269314322625946_">
</g>
<g id="Layer_2_00000026154528105555243440000004477971470723845540_">
	<path class="st1" d="M77.1,302.2c-9.8-5-10.3-15.9-3.7-29.4c6.5-13.6,100.8-174.2,109.7-190.5s18.8-10.5,18.8-10.5
		s-17-34.3-24.4-30.8c-7.4,3.5-14,2.7-20.7,14.2S32.9,263.7,29.5,277.7s9.1,29.4,16.2,29.4S77.1,302.2,77.1,302.2z"/>
</g>
</svg>
