<svg width="119" height="58" viewBox="0 0 119 58" fill="none" xmlns="http://www.w3.org/2000/svg">
<path d="M59.1292 27.6401L63.5754 41.9759L73.1325 27.6401H80.9861L75.7088 57.5582H68.1878L71.1796 40.6878L64.7804 50.7436H59.337L56.5114 40.6878L53.5196 57.5582H46.04L51.3173 27.6401H59.1292Z" fill="black"/>
<path d="M90.0651 50.6496H86.3111L85.0808 57.5582H79.4025L83.4089 34.8449H93.0305C95.407 34.8449 97.1 35.3917 98.1094 36.4853C98.8455 37.3265 99.2136 38.3991 99.2136 39.703C99.2136 40.1447 99.1715 40.6074 99.0874 41.0911L98.4564 44.6558C98.141 46.4014 97.2156 47.842 95.6804 48.9777C94.1451 50.0923 92.2734 50.6496 90.0651 50.6496ZM91.0431 39.7661H88.2039L87.1629 45.7284H89.9705C91.695 45.7284 92.694 44.9608 92.9674 43.4255L93.1882 42.1321C93.2303 41.9428 93.2513 41.6905 93.2513 41.375C93.2513 41.0595 93.0936 40.7125 92.7781 40.334C92.4626 39.9554 91.8843 39.7661 91.0431 39.7661Z" fill="black"/>
<path d="M107.091 42.6053C107.091 42.9208 107.143 43.2362 107.248 43.5517H101.665C101.559 43.1731 101.507 42.6789 101.507 42.069C101.507 39.7766 102.338 37.968 103.999 36.643C105.66 35.2971 108.047 34.6241 111.16 34.6241C113.642 34.6241 115.524 35.1499 116.807 36.2014C118.09 37.2319 118.731 38.662 118.731 40.4917C118.731 41.9849 118.237 43.394 117.248 44.7189C116.26 46.0438 115.124 46.7063 113.841 46.7063V46.801C114.83 46.801 115.619 47.148 116.207 47.842C116.796 48.536 117.091 49.4403 117.091 50.555C117.091 55.5183 113.789 57.9999 107.185 57.9999C104.43 57.9999 102.401 57.369 101.097 56.1071C100.129 55.1818 99.6456 53.8989 99.6456 52.2585C99.6456 51.6696 99.7087 51.0387 99.8349 50.3657H105.513C105.471 50.597 105.45 50.8179 105.45 51.0282C105.45 52.4162 106.354 53.1102 108.163 53.1102C109.109 53.1102 109.898 52.8368 110.529 52.29C111.16 51.7432 111.475 51.0702 111.475 50.271C111.475 49.0513 110.676 48.4414 109.078 48.4414H105.892L106.523 45.0028H109.046C110.14 44.9818 111.055 44.6453 111.791 43.9933C112.548 43.3203 112.927 42.5948 112.927 41.8166C112.927 41.0385 112.685 40.4601 112.201 40.0816C111.738 39.703 111.044 39.5138 110.119 39.5138C109.194 39.5138 108.458 39.7977 107.911 40.3655C107.364 40.9123 107.091 41.6589 107.091 42.6053Z" fill="black"/>
<path d="M12.3805 38.0514L19.403 27.5385H26.8825L14.0842 45.9465L12.0481 57.4566H4.52702L6.56312 45.9465L0.24707 27.5385H8.18368L11.4248 38.0514H12.3805Z" fill="url(#paint0_linear_7_478)"/>
<path d="M44.9288 39.6645H37.1684L34.0454 57.4566H28.3355L31.4586 39.6645H23.6666L24.5499 34.7433H45.8121L44.9288 39.6645Z" fill="url(#paint1_linear_7_478)"/>
<path fill-rule="evenodd" clip-rule="evenodd" d="M114.055 31.4037L88.5821 30.2774L95.4482 24.6744C72.1036 3.71019 58.1586 10.2774 32.6446 30.2774C62.0838 2.27744 78.6746 -6.59176 101.62 15.9528L103.72 5.73061L114.055 31.4037Z" fill="url(#paint2_linear_7_478)"/>
<defs>
<linearGradient id="paint0_linear_7_478" x1="22.1259" y1="55.2687" x2="22.1259" y2="27.5385" gradientUnits="userSpaceOnUse">
<stop stop-color="#0073C7"/>
<stop offset="1" stop-color="#0086E7"/>
</linearGradient>
<linearGradient id="paint1_linear_7_478" x1="22.1259" y1="55.2687" x2="22.1259" y2="27.5385" gradientUnits="userSpaceOnUse">
<stop stop-color="#0073C7"/>
<stop offset="1" stop-color="#0086E7"/>
</linearGradient>
<linearGradient id="paint2_linear_7_478" x1="105.505" y1="37.5951" x2="76.0246" y2="14.0933" gradientUnits="userSpaceOnUse">
<stop stop-color="#0073C7"/>
<stop offset="1" stop-color="#0086E7"/>
</linearGradient>
</defs>
</svg>
