<?xml version="1.0" encoding="utf-8"?>
<!-- Generator: Adobe Illustrator 26.0.2, SVG Export Plug-In . SVG Version: 6.00 Build 0)  -->
<svg version="1.1" id="Layer_1" xmlns="http://www.w3.org/2000/svg" xmlns:xlink="http://www.w3.org/1999/xlink" x="0px" y="0px"
	 viewBox="0 0 355.1 356" style="enable-background:new 0 0 355.1 356;" xml:space="preserve">
<style type="text/css">
	.st0{fill:none;stroke:#53A0E5;stroke-width:22;stroke-linecap:round;stroke-linejoin:round;stroke-miterlimit:10;}
	.st1{display:none;}
	.st2{display:inline;fill:none;stroke:#FFD164;stroke-width:20;stroke-linecap:round;stroke-miterlimit:10;}
	.st3{display:inline;fill:none;stroke:#49C580;stroke-width:20;stroke-linecap:round;stroke-miterlimit:10;}
</style>
<g id="Layer_1_00000009559521775125600610000007131917333626501777_">
	<path class="st0" d="M18.6,165.7c2.8-36.6,18.2-72.5,46.2-100.5C127.1,3,228,3,290.3,65.3s62.3,163.2,0,225.5s-163.2,62.3-225.5,0
		c-24-24-38.7-53.7-44.2-84.8"/>
</g>
<g id="Layer_2_00000008833828149523754550000005547153997479128205_" class="st1">
	<line class="st2" x1="141.1" y1="287.4" x2="110.3" y2="323.4"/>
	<line class="st2" x1="248.5" y1="254.4" x2="177.2" y2="337.8"/>
	<path class="st3" d="M258.6,290.9"/>
	<path class="st3" d="M289.3,254.9"/>
	<line class="st2" x1="217.1" y1="72.1" x2="247.8" y2="36.1"/>
	<line class="st2" x1="111.7" y1="102.8" x2="182.9" y2="19.4"/>
</g>
<g id="Layer_2_00000134934979112176310900000017689923077791203971_">
	<path class="st0" d="M166.2,23.5l-61.1,105.6"/>
	<path class="st0" d="M238.1,36.5l-37.1,62"/>
	<path class="st0" d="M190.8,333.5l61.1-105.6"/>
	<path class="st0" d="M118.9,320.5l37.1-62"/>
</g>
</svg>
