<?xml version="1.0" encoding="utf-8"?>
<!-- Generator: Adobe Illustrator 26.0.2, SVG Export Plug-In . SVG Version: 6.00 Build 0)  -->
<svg version="1.1" id="Layer_1" xmlns="http://www.w3.org/2000/svg" xmlns:xlink="http://www.w3.org/1999/xlink" x="0px" y="0px"
	 viewBox="0 0 355.1 356" style="enable-background:new 0 0 355.1 356;" xml:space="preserve">
<style type="text/css">
	.st0{display:none;}
	.st1{display:inline;fill:none;stroke:#49C580;stroke-width:20;stroke-linecap:round;stroke-miterlimit:10;}
	.st2{fill:none;stroke:#49C580;stroke-width:22;stroke-linecap:round;stroke-linejoin:round;stroke-miterlimit:10;}
</style>
<g id="Layer_3" class="st0">
	<line class="st1" x1="83.3" y1="286.3" x2="52.5" y2="322.3"/>
	<line class="st1" x1="202.9" y1="238.9" x2="131.7" y2="322.3"/>
	<line class="st1" x1="268.6" y1="286.3" x2="237.9" y2="322.3"/>
	<line class="st1" x1="268.6" y1="67.4" x2="299.4" y2="31.4"/>
	<line class="st1" x1="149" y1="114.8" x2="220.2" y2="31.4"/>
</g>
<g id="Layer_2">
	<path class="st2" d="M223.6,31.1l-98.3,169.9"/>
	<path class="st2" d="M306.8,31.2l-43.5,72.6"/>
	<path class="st2" d="M134.9,31.9L84.5,116"/>
	<path class="st2" d="M133.4,325.9l96.8-167.3"/>
	<path class="st2" d="M50.2,325.8l43.5-72.6"/>
	<path class="st2" d="M222.1,325.1l49.9-83.4"/>
</g>
<g id="Layer_1_00000077284440065959398070000002595913295830153369_">
	<path class="st2" d="M85.7,29.6H46.5c-9.6,0-17.4,7.8-17.4,17.4v262c0,9.6,7.8,17.4,17.4,17.4h262c9.6,0,17.4-7.8,17.4-17.4V47
		c0-9.6-7.8-17.4-17.4-17.4H122.7"/>
</g>
</svg>
