<?xml version="1.0" encoding="utf-8"?>
<!-- Generator: Adobe Illustrator 26.0.2, SVG Export Plug-In . SVG Version: 6.00 Build 0)  -->
<svg version="1.1" xmlns="http://www.w3.org/2000/svg" xmlns:xlink="http://www.w3.org/1999/xlink" x="0px" y="0px"
	 viewBox="0 0 355.1 356" style="enable-background:new 0 0 355.1 356;" xml:space="preserve">
<style type="text/css">
	.st0{fill:#FF8087;}
	.st1{opacity:0.25;}
	.st2{fill:none;stroke:#000000;stroke-width:20;stroke-linecap:round;stroke-linejoin:round;stroke-miterlimit:10;}
</style>
<g id="Layer_2">
	<rect x="29.1" y="29.6" class="st0" width="296.8" height="296.8"/>
</g>
<g id="Layer_3" class="st1">
	<path d="M73.9,58.7c0-19.9,13.4-20.4,13.4-20.4V26.1H29.8v298.3h42.8l14.7-8.7c0,0-13.4,4-13.4-16.9
		C73.9,277.8,73.9,58.7,73.9,58.7z"/>
</g>
<g id="Layer_1">
	<path class="st2" d="M325.9,269.8V309c0,9.6-7.8,17.4-17.4,17.4h-262c-9.6,0-17.4-7.8-17.4-17.4V47c0-9.6,7.8-17.4,17.4-17.4h262
		c9.6,0,17.4,7.8,17.4,17.4v185.8"/>
</g>
</svg>
