<svg width="18" height="18" viewBox="0 0 18 18" fill="none" xmlns="http://www.w3.org/2000/svg">
<g clip-path="url(#clip0_109_329)">
<rect width="18" height="18" rx="0.72" fill="white"/>
<rect width="18" height="18" rx="0.977172" fill="white"/>
<rect x="1.20001" y="1.19995" width="7.5" height="7.5" rx="0.9" fill="black"/>
<rect x="1.20001" y="9.30005" width="7.5" height="7.5" rx="0.9" fill="black"/>
<rect x="9.29999" y="1.19995" width="7.5" height="7.5" rx="0.9" fill="black"/>
<rect x="9.29999" y="9.30005" width="7.5" height="7.5" rx="0.9" fill="black"/>
<path d="M3.66034 6.12207L4.50995 2.81445H4.95526L4.90546 3.66699L3.99725 7.08008H3.53436L3.66034 6.12207ZM3.0246 2.81445L3.71307 6.0957L3.7746 7.08008H3.28241L2.2951 2.81445H3.0246ZM5.91913 6.08691L6.59882 2.81445H7.33124L6.34393 7.08008H5.85175L5.91913 6.08691ZM5.12811 2.81445L5.96893 6.13086L6.09198 7.08008H5.62909L4.73553 3.66699L4.68866 2.81445H5.12811Z" fill="white"/>
<path d="M6.19745 12.6897V13.387C6.19745 13.7209 6.16425 14.0061 6.09784 14.2424C6.03339 14.4768 5.93964 14.6672 5.81659 14.8137C5.69354 14.9602 5.54608 15.0676 5.37421 15.136C5.20428 15.2043 5.01385 15.2385 4.80292 15.2385C4.63495 15.2385 4.4787 15.217 4.33417 15.1741C4.19159 15.1311 4.06268 15.0637 3.94745 14.9719C3.83221 14.8801 3.73358 14.762 3.65155 14.6174C3.57147 14.4709 3.50897 14.2961 3.46405 14.093C3.42108 13.8899 3.3996 13.6545 3.3996 13.387V12.6897C3.3996 12.3538 3.4328 12.0706 3.49921 11.8401C3.56561 11.6077 3.66034 11.4192 3.78339 11.2747C3.90643 11.1282 4.05292 11.0217 4.22284 10.9553C4.39471 10.8889 4.58612 10.8557 4.79706 10.8557C4.96698 10.8557 5.12323 10.8772 5.26581 10.9202C5.41034 10.9612 5.53925 11.0266 5.65253 11.1165C5.76776 11.2063 5.86542 11.3235 5.9455 11.468C6.02753 11.6106 6.09003 11.7834 6.133 11.9866C6.17596 12.1877 6.19745 12.4221 6.19745 12.6897ZM5.49139 13.4866V12.5842C5.49139 12.4143 5.48163 12.2649 5.4621 12.136C5.44257 12.0051 5.41327 11.8948 5.37421 11.8049C5.3371 11.7131 5.29022 11.6389 5.23358 11.5823C5.17694 11.5237 5.11249 11.4817 5.04022 11.4563C4.96796 11.429 4.8869 11.4153 4.79706 11.4153C4.68768 11.4153 4.59003 11.4368 4.50409 11.4797C4.41815 11.5208 4.34589 11.5872 4.28729 11.679C4.2287 11.7708 4.18378 11.8918 4.15253 12.0422C4.12323 12.1907 4.10858 12.3713 4.10858 12.5842V13.4866C4.10858 13.6584 4.11835 13.8098 4.13788 13.9407C4.15741 14.0715 4.18671 14.1838 4.22577 14.2776C4.26483 14.3694 4.31171 14.4456 4.36639 14.5061C4.42303 14.5647 4.48749 14.6077 4.55975 14.635C4.63397 14.6624 4.71503 14.676 4.80292 14.676C4.91425 14.676 5.01288 14.6545 5.09882 14.6116C5.18475 14.5686 5.25702 14.5002 5.31561 14.4065C5.37421 14.3108 5.41815 14.1868 5.44745 14.0344C5.47675 13.8821 5.49139 13.6995 5.49139 13.4866Z" fill="white"/>
<path d="M12.2584 5.09668L11.6959 4.95898L11.9274 2.81445H14.2272V3.41211H12.5133L12.3961 4.45801C12.4625 4.41895 12.5543 4.38086 12.6715 4.34375C12.7887 4.30469 12.9225 4.28516 13.0729 4.28516C13.274 4.28516 13.4537 4.31836 13.6119 4.38477C13.7721 4.44922 13.9078 4.54395 14.0192 4.66895C14.1305 4.79199 14.2155 4.94238 14.274 5.12012C14.3326 5.2959 14.3619 5.49414 14.3619 5.71484C14.3619 5.91211 14.3326 6.09668 14.274 6.26855C14.2174 6.44043 14.1315 6.5918 14.0162 6.72266C13.901 6.85352 13.7555 6.95605 13.5797 7.03027C13.4059 7.10254 13.1998 7.13867 12.9615 7.13867C12.7838 7.13867 12.6129 7.11328 12.4489 7.0625C12.2867 7.00977 12.1412 6.93262 12.0123 6.83105C11.8834 6.72754 11.7799 6.60059 11.7018 6.4502C11.6237 6.29785 11.5787 6.12305 11.567 5.92578H12.2584C12.276 6.06445 12.3141 6.18262 12.3727 6.28027C12.4332 6.37598 12.5133 6.44922 12.6129 6.5C12.7125 6.55078 12.8278 6.57617 12.9586 6.57617C13.0778 6.57617 13.1803 6.55566 13.2662 6.51465C13.3522 6.47168 13.4235 6.41113 13.4801 6.33301C13.5387 6.25293 13.5817 6.15918 13.609 6.05176C13.6383 5.94434 13.653 5.8252 13.653 5.69434C13.653 5.56934 13.6364 5.45508 13.6031 5.35156C13.5719 5.24805 13.524 5.1582 13.4596 5.08203C13.3971 5.00586 13.318 4.94727 13.2223 4.90625C13.1266 4.86328 13.0162 4.8418 12.8912 4.8418C12.7233 4.8418 12.5944 4.86621 12.5045 4.91504C12.4166 4.96387 12.3346 5.02441 12.2584 5.09668Z" fill="white"/>
<path d="M14.2975 12.6897V13.387C14.2975 13.7209 14.2643 14.0061 14.1979 14.2424C14.1334 14.4768 14.0397 14.6672 13.9166 14.8137C13.7936 14.9602 13.6461 15.0676 13.4742 15.136C13.3043 15.2043 13.1139 15.2385 12.903 15.2385C12.735 15.2385 12.5787 15.217 12.4342 15.1741C12.2916 15.1311 12.1627 15.0637 12.0475 14.9719C11.9323 14.8801 11.8336 14.762 11.7516 14.6174C11.6715 14.4709 11.609 14.2961 11.5641 14.093C11.5211 13.8899 11.4996 13.6545 11.4996 13.387V12.6897C11.4996 12.3538 11.5328 12.0706 11.5992 11.8401C11.6656 11.6077 11.7604 11.4192 11.8834 11.2747C12.0065 11.1282 12.153 11.0217 12.3229 10.9553C12.4948 10.8889 12.6862 10.8557 12.8971 10.8557C13.067 10.8557 13.2233 10.8772 13.3658 10.9202C13.5104 10.9612 13.6393 11.0266 13.7526 11.1165C13.8678 11.2063 13.9655 11.3235 14.0455 11.468C14.1276 11.6106 14.1901 11.7834 14.233 11.9866C14.276 12.1877 14.2975 12.4221 14.2975 12.6897ZM13.5914 13.4866V12.5842C13.5914 12.4143 13.5817 12.2649 13.5621 12.136C13.5426 12.0051 13.5133 11.8948 13.4742 11.8049C13.4371 11.7131 13.3903 11.6389 13.3336 11.5823C13.277 11.5237 13.2125 11.4817 13.1403 11.4563C13.068 11.429 12.9869 11.4153 12.8971 11.4153C12.7877 11.4153 12.6901 11.4368 12.6041 11.4797C12.5182 11.5208 12.4459 11.5872 12.3873 11.679C12.3287 11.7708 12.2838 11.8918 12.2526 12.0422C12.2233 12.1907 12.2086 12.3713 12.2086 12.5842V13.4866C12.2086 13.6584 12.2184 13.8098 12.2379 13.9407C12.2574 14.0715 12.2867 14.1838 12.3258 14.2776C12.3649 14.3694 12.4117 14.4456 12.4664 14.5061C12.5231 14.5647 12.5875 14.6077 12.6598 14.635C12.734 14.6624 12.8151 14.676 12.903 14.676C13.0143 14.676 13.1129 14.6545 13.1989 14.6116C13.2848 14.5686 13.3571 14.5002 13.4156 14.4065C13.4742 14.3108 13.5182 14.1868 13.5475 14.0344C13.5768 13.8821 13.5914 13.6995 13.5914 13.4866Z" fill="white"/>
</g>
<defs>
<clipPath id="clip0_109_329">
<rect width="18" height="18" fill="white"/>
</clipPath>
</defs>
</svg>
