<svg id="Layer_1" data-name="Layer 1" xmlns="http://www.w3.org/2000/svg" viewBox="0 0 161.76 41.59"><defs><style>.cls-1{fill:#39b54a;}</style></defs><path class="cls-1" d="M537.62,235.27A5.25,5.25,0,0,1,539,239v31.55a4.71,4.71,0,0,1-1.28,3.48,5,5,0,0,1-6.7,0,4.64,4.64,0,0,1-1.3-3.48v-17l-6.61,12.18a7.53,7.53,0,0,1-2.09,2.64,4.76,4.76,0,0,1-5.22,0,7.42,7.42,0,0,1-2.09-2.64l-6.55-11.83v16.7a4.67,4.67,0,0,1-1.31,3.45,5,5,0,0,1-6.73,0,4.64,4.64,0,0,1-1.3-3.48V239a5.15,5.15,0,0,1,1.42-3.77,5.12,5.12,0,0,1,6.47-.55,7,7,0,0,1,2.14,2.58l10.67,20.07,10.62-20.07q1.8-3.48,4.87-3.48A4.76,4.76,0,0,1,537.62,235.27Z" transform="translate(-497.83 -233.76)"/><path class="cls-1" d="M586.22,270.59a4.13,4.13,0,0,1-1.54,3.25,5.18,5.18,0,0,1-3.51,1.33,4.47,4.47,0,0,1-2.43-.69,4.66,4.66,0,0,1-1.74-2.09l-2.61-5.86H555.6l-2.67,5.86a4.52,4.52,0,0,1-4.24,2.78,5.4,5.4,0,0,1-3.56-1.33,4.07,4.07,0,0,1-1.6-3.25,5.09,5.09,0,0,1,.52-2.14L559.37,237a5.37,5.37,0,0,1,2.23-2.41,6.75,6.75,0,0,1,6.52,0,5.4,5.4,0,0,1,2.27,2.41l15.31,31.44A4.94,4.94,0,0,1,586.22,270.59Zm-27-12.06h11.6L565,245.59Z" transform="translate(-497.83 -233.76)"/><path class="cls-1" d="M596.05,273.87a5,5,0,0,1-1.48-3.8V242.75h-8.18a5.71,5.71,0,0,1-3.8-1.07,4.1,4.1,0,0,1-1.24-3.28,4,4,0,0,1,1.24-3.25,5.88,5.88,0,0,1,3.8-1h27.15a5.88,5.88,0,0,1,3.8,1,4,4,0,0,1,1.24,3.25,4.1,4.1,0,0,1-1.24,3.28,5.71,5.71,0,0,1-3.8,1.07h-8.18v27.32a5,5,0,0,1-1.48,3.8,6.11,6.11,0,0,1-7.83,0Z" transform="translate(-497.83 -233.76)"/><path class="cls-1" d="M658.17,235.24a5.18,5.18,0,0,1,1.42,3.8v31a5.27,5.27,0,0,1-1.42,3.83,5.75,5.75,0,0,1-7.6,0,5.22,5.22,0,0,1-1.42-3.86v-11.6H632.44v11.6A5.23,5.23,0,0,1,631,273.9a5.74,5.74,0,0,1-7.59,0,5.22,5.22,0,0,1-1.43-3.86V239a5.22,5.22,0,1,1,10.44,0v11h16.71V239a5.38,5.38,0,0,1,9-3.8Z" transform="translate(-497.83 -233.76)"/></svg>