<svg width="526" height="108" viewBox="0 0 526 108" fill="none" xmlns="http://www.w3.org/2000/svg">
<path d="M152.249 1.65998L108.293 106H72.6252L69.5172 41.916L43.4692 106H7.80116L0.993164 1.65998H32.3692L32.0732 72.996L60.9332 1.65998H92.7532L96.1572 72.7L120.873 1.65998H152.249Z" fill="white"/>
<path d="M215.175 88.98H178.175L169.591 106H139.103L195.491 1.65998H228.939L248.475 106H217.839L215.175 88.98ZM211.771 66.928L206.591 33.036L189.423 66.928H211.771Z" fill="white"/>
<path d="M354.869 1.65998L350.725 24.748H323.049L308.693 106H279.537L293.893 24.748H266.365L270.509 1.65998H354.869Z" fill="white"/>
<path d="M390.318 107.036C378.28 107.036 368.562 104.569 361.162 99.636C353.86 94.604 350.21 87.3027 350.21 77.732C350.21 76.9427 350.308 75.5613 350.506 73.588H381.142C380.846 76.9426 381.536 79.5573 383.214 81.432C384.891 83.3067 387.456 84.244 390.91 84.244C393.771 84.244 396.04 83.6027 397.718 82.32C399.494 81.0373 400.382 79.212 400.382 76.844C400.382 74.0813 399.099 71.812 396.534 70.036C394.067 68.26 390.022 66.188 384.398 63.82C378.774 61.452 374.136 59.232 370.486 57.16C366.835 54.9893 363.678 52.0786 361.014 48.428C358.35 44.6787 357.018 40.0413 357.018 34.516C357.018 27.3133 358.794 21.1466 362.346 16.016C365.898 10.7866 370.831 6.83998 377.146 4.17598C383.559 1.41332 390.86 0.0319824 399.05 0.0319824C406.45 0.0319824 413.011 1.21598 418.734 3.58398C424.456 5.85331 428.896 9.15865 432.054 13.5C435.31 17.8413 436.938 22.972 436.938 28.892C436.938 30.4707 436.888 31.6547 436.79 32.444H405.562C405.66 31.9506 405.71 31.26 405.71 30.372C405.71 28.004 404.97 26.1786 403.49 24.896C402.01 23.5146 399.987 22.824 397.422 22.824C394.758 22.824 392.587 23.5146 390.91 24.896C389.331 26.1786 388.542 28.004 388.542 30.372C388.542 32.9373 389.775 35.1573 392.242 37.032C394.807 38.808 398.754 40.9293 404.082 43.396C409.804 46.06 414.491 48.576 418.142 50.944C421.891 53.2133 425.098 56.272 427.762 60.12C430.426 63.968 431.758 68.704 431.758 74.328C431.758 80.544 430.08 86.168 426.726 91.2C423.371 96.1333 418.586 100.031 412.37 102.892C406.154 105.655 398.803 107.036 390.318 107.036Z" fill="white"/>
<path d="M484.125 24.6L481.165 41.916H514.465L510.469 63.968H477.169L473.765 82.912H511.505L507.509 106H440.613L459.113 1.65998H525.861L521.865 24.6H484.125Z" fill="white"/>
</svg>
