<svg version="1.2" xmlns="http://www.w3.org/2000/svg" viewBox="0 0 451 564" width="451" height="564">
	<title>help1-svg</title>
	<style>
		.s0 { fill: #ffffff } 
		.s1 { fill: #ffd700 } 
		.s2 { fill: #808080 } 
		.s3 { fill: none;stroke: #ffffff } 
		.s4 { fill: #ff0000 } 
		.s5 { fill: #000000 } 
		.s6 { fill: #006400 } 
	</style>
	<path id="Shape 4" class="s0" d="m445 178.5v3l-439-0.1v-3z"/>
	<path id="Answer" fill-rule="evenodd" class="s0" d="m14 76l-1.6-4.5h-7.1l-1.7 4.5h-2.3l6.5-17.1h2l6.5 17.1zm-5.2-14.3l-2.9 8h5.8zm9.5 1.6h2.1v1.6q1.5-1.8 3.8-1.8 4 0 4.1 4.5v8.4h-2.2v-8.4q0-1.4-0.6-2-0.6-0.7-1.9-0.7-1.1 0-1.9 0.6-0.8 0.5-1.2 1.4v9.1h-2.2zm20.6 9.3q0-0.9-0.6-1.4-0.7-0.5-2.3-0.8-1.7-0.4-2.7-0.8-0.9-0.5-1.4-1.2-0.4-0.7-0.4-1.6 0-1.6 1.3-2.7 1.3-1.1 3.3-1.1 2.2 0 3.5 1.2 1.4 1.1 1.4 2.8h-2.2q0-0.9-0.8-1.5-0.7-0.7-1.9-0.7-1.1 0-1.8 0.5-0.7 0.6-0.7 1.4 0 0.8 0.6 1.2 0.7 0.4 2.3 0.7 1.6 0.4 2.6 0.9 1 0.5 1.5 1.2 0.5 0.7 0.5 1.7 0 1.7-1.4 2.8-1.3 1-3.5 1-1.5 0-2.7-0.5-1.1-0.6-1.8-1.5-0.7-1-0.7-2.1h2.2q0.1 1 0.9 1.7 0.8 0.6 2.1 0.6 1.2 0 2-0.5 0.7-0.5 0.7-1.3zm13.2-9.3l3.1 9.7 2.4-9.7h2.2l-3.7 12.7h-1.8l-3.1-9.6-3 9.6h-1.7l-3.7-12.7h2.1l2.5 9.5 3-9.5zm15.1 12.9q-2.6 0-4.2-1.7-1.6-1.7-1.6-4.5v-0.4q0-1.9 0.7-3.4 0.7-1.5 2-2.3 1.3-0.9 2.8-0.9 2.5 0 3.9 1.7 1.3 1.6 1.3 4.6v0.9h-8.6q0.1 1.9 1.1 3.1 1.1 1.1 2.7 1.1 1.1 0 1.9-0.4 0.8-0.5 1.4-1.3l1.4 1q-1.6 2.5-4.8 2.5zm-0.3-11.4q-1.3 0-2.2 1-0.9 0.9-1.1 2.7h6.4v-0.2q-0.1-1.7-0.9-2.6-0.8-0.9-2.2-0.9zm13.9-1.6v2q-0.5-0.1-1.1-0.1-2.1 0-2.9 1.9v9h-2.2v-12.7h2.1l0.1 1.4q1-1.7 3-1.7 0.6 0 1 0.2z"/>
	<path id="Guess" fill-rule="evenodd" class="s0" d="m21.6 129.5v6.3q-0.9 1.2-2.4 1.8-1.6 0.6-3.7 0.6-2 0-3.7-0.9-1.6-1-2.5-2.8-0.8-1.8-0.9-4.2v-1.5q0-3.9 1.8-6 1.8-2.1 5.1-2.1 2.7 0 4.3 1.4 1.6 1.3 2 3.8h-2.3q-0.6-3.3-4-3.3-2.3 0-3.4 1.5-1.2 1.6-1.2 4.6v1.4q0 2.9 1.3 4.6 1.3 1.7 3.6 1.7 1.2 0 2.2-0.3 0.9-0.3 1.5-0.9v-3.9h-3.9v-1.8zm11.3 8.5l-0.1-1.3q-1.2 1.5-3.7 1.5-2 0-3.1-1.1-1-1.2-1-3.5v-8.3h2.1v8.2q0 2.9 2.4 2.9 2.4 0 3.3-1.9v-9.2h2.1v12.7zm10.7 0.2q-2.6 0-4.2-1.7-1.7-1.7-1.7-4.5v-0.4q0-1.9 0.8-3.3 0.7-1.5 2-2.4 1.3-0.8 2.8-0.8 2.5 0 3.8 1.6 1.4 1.6 1.4 4.7v0.9h-8.6q0.1 1.9 1.1 3 1.1 1.2 2.7 1.2 1.1 0 1.9-0.5 0.8-0.5 1.4-1.2l1.3 1q-1.6 2.4-4.7 2.4zm-0.3-11.3q-1.3 0-2.2 0.9-0.9 1-1.1 2.7h6.3v-0.2q-0.1-1.6-0.9-2.5-0.8-0.9-2.1-0.9zm15.1 7.7q0-0.8-0.7-1.3-0.6-0.5-2.3-0.9-1.6-0.3-2.6-0.8-1-0.5-1.4-1.2-0.5-0.7-0.5-1.6 0-1.6 1.3-2.6 1.4-1.1 3.4-1.1 2.2 0 3.5 1.1 1.3 1.1 1.3 2.8h-2.1q0-0.8-0.8-1.5-0.7-0.6-1.9-0.6-1.2 0-1.8 0.5-0.7 0.5-0.7 1.3 0 0.8 0.6 1.2 0.6 0.4 2.2 0.8 1.7 0.3 2.7 0.8 1 0.5 1.5 1.3 0.5 0.7 0.5 1.7 0 1.7-1.4 2.7-1.4 1-3.5 1-1.6 0-2.7-0.5-1.2-0.5-1.9-1.5-0.6-1-0.6-2.1h2.1q0.1 1.1 0.9 1.7 0.8 0.7 2.2 0.7 1.2 0 1.9-0.5 0.8-0.5 0.8-1.4zm12.4 0q0-0.8-0.7-1.3-0.7-0.5-2.3-0.9-1.7-0.3-2.6-0.8-1-0.5-1.5-1.2-0.4-0.7-0.4-1.6 0-1.6 1.3-2.6 1.3-1.1 3.4-1.1 2.1 0 3.5 1.1 1.3 1.1 1.3 2.8h-2.2q0-0.8-0.7-1.5-0.8-0.6-1.9-0.6-1.2 0-1.9 0.5-0.6 0.5-0.6 1.3 0 0.8 0.6 1.2 0.6 0.4 2.2 0.8 1.6 0.3 2.7 0.8 1 0.5 1.4 1.3 0.5 0.7 0.5 1.7 0 1.7-1.3 2.7-1.4 1-3.6 1-1.5 0-2.6-0.5-1.2-0.5-1.9-1.5-0.6-1-0.6-2.1h2.1q0.1 1.1 0.9 1.7 0.8 0.7 2.1 0.7 1.3 0 2-0.5 0.8-0.5 0.8-1.4z"/>
	<path id="Shape 1" class="s0" d="m98 55c0-4.4 3.6-8 8-8h41c4.4 0 8 3.6 8 8v25c0 4.4-3.6 8-8 8h-41c-4.4 0-8-3.6-8-8z"/>
	<path id="Shape 1 copy 3" class="s0" d="m312 55c0-4.4 3.6-8 8-8h41c4.4 0 8 3.6 8 8v25c0 4.4-3.6 8-8 8h-41c-4.4 0-8-3.6-8-8z"/>
	<path id="Shape 1 copy 4" class="s0" d="m382 55c0-4.4 3.6-8 8-8h41c4.4 0 8 3.6 8 8v25c0 4.4-3.6 8-8 8h-41c-4.4 0-8-3.6-8-8z"/>
	<path id="Shape 1 copy" class="s0" d="m169 55c0-4.4 3.6-8 8-8h41c4.4 0 8 3.6 8 8v25c0 4.4-3.6 8-8 8h-41c-4.4 0-8-3.6-8-8z"/>
	<path id="Shape 1 copy 2" class="s0" d="m239 55c0-4.4 3.6-8 8-8h41c4.4 0 8 3.6 8 8v25c0 4.4-3.6 8-8 8h-41c-4.4 0-8-3.6-8-8z"/>
	<path id="Shape 1 copy 5" class="s1" d="m98 117c0-4.4 3.6-8 8-8h41c4.4 0 8 3.6 8 8v25c0 4.4-3.6 8-8 8h-41c-4.4 0-8-3.6-8-8z"/>
	<path id="Shape 1 copy 6" class="s2" d="m312 117c0-4.4 3.6-8 8-8h41c4.4 0 8 3.6 8 8v25c0 4.4-3.6 8-8 8h-41c-4.4 0-8-3.6-8-8z"/>
	<path id="Shape 1 copy 7" class="s1" d="m382 117c0-4.4 3.6-8 8-8h41c4.4 0 8 3.6 8 8v25c0 4.4-3.6 8-8 8h-41c-4.4 0-8-3.6-8-8z"/>
	<path id="Shape 1 copy 8" class="s1" d="m169 117c0-4.4 3.6-8 8-8h41c4.4 0 8 3.6 8 8v25c0 4.4-3.6 8-8 8h-41c-4.4 0-8-3.6-8-8z"/>
	<path id="Shape 1 copy 9" class="s1" d="m239 117c0-4.4 3.6-8 8-8h41c4.4 0 8 3.6 8 8v25c0 4.4-3.6 8-8 8h-41c-4.4 0-8-3.6-8-8z"/>
	<path id="Shape 2" class="s3" d="m90 13c0-4.4 3.6-8 8-8h198c4.4 0 8 3.6 8 8v137c0 4.4-3.6 8-8 8h-198c-4.4 0-8-3.6-8-8z"/>
	<path id="Layer copy 28" class="s4" d="m150.4 63.4c0 7.5-10.4 15-10.4 15 0 0-10.4-7.5-10.4-15 0-4.3 3.3-5.8 5-5.8 3.6 0 5.4 3 5.4 3 0 0 1.8-3 5.4-3 1.7 0 5 1.5 5 5.8z"/>
	<path id="Layer copy" class="s5" d="m151.9 132.2c0 3.3-2.9 4.8-4.9 4.8-2.2 0-3.8-1-4.8-1.8 0.1 2.7 0.8 4.6 3.6 6.1h-9.3c2.8-1.5 3.5-3.4 3.6-6.1-1 0.8-2.6 1.8-4.8 1.8-2 0-4.9-1.5-4.9-4.8 0-6.1 4.3-4.4 10.8-14.6 6.4 10.2 10.7 8.5 10.7 14.6z"/>
	<path id="Layer copy 6" class="s5" d="m435.9 70.2c0 3.3-2.9 4.8-4.9 4.8-2.2 0-3.8-1-4.8-1.8 0.1 2.7 0.8 4.6 3.6 6.1h-9.3c2.8-1.5 3.5-3.4 3.6-6.1-1 0.8-2.6 1.8-4.8 1.8-2 0-4.9-1.5-4.9-4.8 0-6.1 4.3-4.4 10.8-14.6 6.4 10.2 10.7 8.5 10.7 14.6z"/>
	<path id="Layer copy 8" class="s5" d="m435.9 132.2c0 3.3-2.9 4.8-4.9 4.8-2.2 0-3.8-1-4.8-1.8 0.1 2.7 0.8 4.6 3.6 6.1h-9.3c2.8-1.5 3.5-3.4 3.6-6.1-1 0.8-2.6 1.8-4.8 1.8-2 0-4.9-1.5-4.9-4.8 0-6.1 4.3-4.4 10.8-14.6 6.4 10.2 10.7 8.5 10.7 14.6z"/>
	<path id="Layer copy 7" class="s5" d="m292.9 70.2c0 3.3-2.9 4.8-4.9 4.8-2.2 0-3.8-1-4.8-1.8 0.1 2.7 0.8 4.6 3.6 6.1h-9.3c2.8-1.5 3.5-3.4 3.6-6.1-1 0.8-2.6 1.8-4.8 1.8-2 0-4.9-1.5-4.9-4.8 0-6.1 4.3-4.4 10.8-14.6 6.4 10.2 10.7 8.5 10.7 14.6z"/>
	<path id="Layer copy 30" class="s5" d="m293.9 130.2c0 3.3-2.9 4.8-4.9 4.8-2.2 0-3.8-1-4.8-1.8 0.1 2.7 0.8 4.6 3.6 6.1h-9.3c2.8-1.5 3.5-3.4 3.6-6.1-1 0.8-2.6 1.8-4.8 1.8-2 0-4.9-1.5-4.9-4.8 0-6.1 4.3-4.4 10.8-14.6 6.4 10.2 10.7 8.5 10.7 14.6z"/>
	<path id="7" class="s5" d="m263.3 120.9v1.9l-6.6 15.2h-3.6l6.6-14.3h-8.5v-2.8z"/>
	<path id="Layer" class="s5" d="m365.8 69.1c0 1.3-0.4 2.6-1.3 3.6-0.8 1-2 1.6-3.3 1.9-1.2 0.2-2.6 0-3.7-0.7-1.1-0.6-2-1.6-2.5-2.9 0 3.7 0.3 6.2 3.7 8h-9.4c3.4-1.8 3.7-4.3 3.7-8-0.8 2.1-2.8 3.5-5 3.7-2.2 0.1-4.3-1.2-5.3-3.2-0.9-2-0.6-4.4 0.8-6.1 1.5-1.6 3.8-2.3 5.9-1.6-1.2-1.7-1.3-4-0.4-5.8 1-1.8 2.9-3 5-3 2.1 0 4 1.2 4.9 3 1 1.8 0.9 4.1-0.3 5.8 0.8-0.3 1.7-0.4 2.6-0.2 0.8 0.1 1.6 0.5 2.3 1 0.7 0.5 1.3 1.2 1.7 2 0.4 0.8 0.6 1.6 0.6 2.5z"/>
	<path id="Layer copy 2" class="s4" d="m364.8 129c-3.1 2.1-6.1 6.3-7.8 11.2-1.7-4.9-4.7-9.1-7.7-11.2 3-2.1 6-6.3 7.7-11.2 1.7 4.9 4.7 9.1 7.8 11.2z"/>
	<path id="Layer copy 5" class="s4" d="m219.8 67c-3.1 2.1-6.1 6.3-7.8 11.2-1.7-4.9-4.7-9.1-7.7-11.2 3-2.1 6-6.3 7.7-11.2 1.7 4.9 4.7 9.1 7.8 11.2z"/>
	<path id="Layer copy 29" class="s4" d="m219.8 130c-3.1 2.1-6.1 6.3-7.8 11.2-1.7-4.9-4.7-9.1-7.7-11.2 3-2.1 6-6.3 7.7-11.2 1.7 4.9 4.7 9.1 7.8 11.2z"/>
	<path id="K copy 5" class="s5" d="m259.8 76l-4.4-6.8-1.9 1.9v4.9h-3.5v-17.1h3.5v7.8l1.6-2.1 4.3-5.7h4.4l-6.1 7.6 6.2 9.5z"/>
	<path id="K copy 6" class="s4" d="m187.8 138l-4.4-6.8-1.9 1.9v4.9h-3.5v-17.1h3.5v7.8l1.6-2.1 4.3-5.7h4.4l-6.1 7.6 6.2 9.5z"/>
	<path id="9 copy 3" fill-rule="evenodd" class="s4" d="m187.6 69.2q-1.3 1.3-3.1 1.3-2.3 0-3.6-1.6-1.4-1.5-1.4-4.2 0-1.6 0.7-3 0.8-1.4 2.1-2.2 1.3-0.8 2.9-0.8 1.7 0 3 0.8 1.4 0.9 2.1 2.5 0.7 1.6 0.7 3.6v1.2q0 4.3-2.1 6.8-2.1 2.4-6 2.6h-0.8v-2.9h0.7q4.4-0.2 4.8-4.1zm-2.3-1.3q0.8 0 1.4-0.4 0.6-0.5 0.9-1.1v-1.3q0-1.8-0.6-2.7-0.7-1-1.8-1-1 0-1.7 1-0.6 0.9-0.6 2.3 0 1.4 0.6 2.3 0.7 0.9 1.8 0.9z"/>
	<path id="4" fill-rule="evenodd" class="s4" d="m333.7 120.9v10.7h1.9v2.7h-1.9v3.7h-3.4v-3.7h-7l-0.2-2.1 7.2-11.3zm-3.7 5l-3.5 5.7h3.8v-6z"/>
	<path id="6" fill-rule="evenodd" class="s5" d="m401.3 120.8h0.5v2.8h-0.3q-2.3 0-3.7 1.1-1.4 1.2-1.7 3.3 1.4-1.4 3.5-1.4 2.2 0 3.5 1.6 1.3 1.6 1.3 4.2 0 1.6-0.7 3-0.7 1.3-2 2.1-1.4 0.7-3 0.7-2.7 0-4.4-1.8-1.6-1.9-1.6-5v-1.3q0-2.7 1-4.9 1.1-2.1 3-3.3 2-1.1 4.6-1.1zm-2.8 8.5q-0.8 0-1.4 0.4-0.7 0.5-1 1.2v1q0 1.7 0.6 2.7 0.7 0.9 1.9 0.9 1.1 0 1.8-0.9 0.7-0.8 0.7-2.2 0-1.4-0.7-2.2-0.7-0.9-1.9-0.9z"/>
	<path id="6" fill-rule="evenodd" class="s5" d="m331.3 58.8h0.5v2.8h-0.3q-2.3 0-3.7 1.1-1.4 1.2-1.7 3.3 1.4-1.4 3.5-1.4 2.2 0 3.5 1.6 1.3 1.6 1.3 4.2 0 1.6-0.7 3-0.7 1.3-2 2.1-1.4 0.7-3 0.7-2.7 0-4.4-1.8-1.6-1.9-1.6-5v-1.3q0-2.7 1-4.9 1.1-2.1 3-3.3 2-1.1 4.6-1.1zm-2.8 8.5q-0.8 0-1.4 0.4-0.7 0.5-1 1.2v1q0 1.7 0.6 2.7 0.7 0.9 1.9 0.9 1.1 0 1.8-0.9 0.7-0.8 0.7-2.2 0-1.4-0.7-2.2-0.7-0.9-1.9-0.9z"/>
	<path id="4" fill-rule="evenodd" class="s5" d="m403.7 58.9v10.7h1.9v2.7h-1.9v3.7h-3.4v-3.7h-7l-0.2-2.1 7.2-11.3zm-3.7 5l-3.5 5.7h3.8v-6z"/>
	<path id="4 copy 5" fill-rule="evenodd" class="s5" d="m117.7 120.9v10.7h1.9v2.7h-1.9v3.7h-3.4v-3.7h-7l-0.2-2.1 7.2-11.3zm-3.7 5l-3.5 5.7h3.8v-6z"/>
	<path id="3" class="s4" d="m113.1 68.6v-2.6h1.8q1.3 0 1.9-0.7 0.6-0.6 0.6-1.7 0-1-0.6-1.6-0.6-0.6-1.7-0.6-0.9 0-1.6 0.6-0.7 0.5-0.7 1.4h-3.3q0-1.4 0.7-2.4 0.7-1.1 2-1.7 1.3-0.6 2.9-0.6 2.7 0 4.2 1.3 1.5 1.3 1.5 3.6 0 1.1-0.7 2.1-0.7 1-1.9 1.5 1.5 0.6 2.2 1.6 0.7 1 0.7 2.4 0 2.3-1.7 3.7-1.6 1.3-4.3 1.3-2.6 0-4.2-1.3-1.6-1.4-1.6-3.6h3.3q0 1 0.8 1.6 0.7 0.6 1.7 0.6 1.2 0 1.9-0.6 0.7-0.7 0.7-1.7 0-2.6-2.8-2.6z"/>
	<path id="Flop" fill-rule="evenodd" class="s0" d="m185.3 21.6v1.9h-7.1v7.5h-2.3v-17.1h10.6v1.9h-8.3v5.8zm5.9-8.6v18h-2.2v-18zm2.9 11.7v-0.2q0-1.8 0.7-3.3 0.8-1.5 2.1-2.3 1.3-0.8 2.9-0.8 2.6 0 4.2 1.8 1.6 1.8 1.6 4.7v0.2q0 1.9-0.7 3.3-0.7 1.5-2 2.3-1.3 0.8-3 0.8-2.6 0-4.2-1.8-1.6-1.8-1.6-4.7zm2.2 0.1q0 2.1 0.9 3.4 1 1.3 2.7 1.3 1.6 0 2.6-1.3 1-1.3 1-3.7 0-2-1-3.3-1-1.3-2.7-1.3-1.6 0-2.6 1.2-0.9 1.3-0.9 3.7zm22.8-0.2v0.2q0 2.9-1.4 4.7-1.3 1.7-3.6 1.7-2.3 0-3.6-1.4v6.1h-2.2v-17.6h2l0.1 1.4q1.4-1.6 3.7-1.6 2.3 0 3.6 1.7 1.4 1.7 1.4 4.8zm-2.2 0q0-2.2-0.9-3.4-0.9-1.3-2.5-1.3-2 0-3 1.8v6q1 1.8 3 1.8 1.6 0 2.5-1.3 0.9-1.2 0.9-3.6z"/>
	<path id="Turn" class="s0" d="m330.7 12.9v1.9h-5.5v15.2h-2.2v-15.2h-5.5v-1.9zm9 17.1l-0.1-1.3q-1.2 1.5-3.7 1.5-2 0-3.1-1.1-1-1.2-1-3.5v-8.3h2.1v8.2q0 2.9 2.4 2.9 2.5 0 3.3-1.9v-9.2h2.1v12.7zm11.5-12.8v2.1q-0.5-0.1-1-0.1-2.2 0-2.9 1.8v9h-2.2v-12.7h2.1v1.5q1.1-1.7 3.1-1.7 0.6 0 0.9 0.1zm2 0.1h2.1v1.6q1.5-1.8 3.8-1.8 4.1 0 4.1 4.5v8.4h-2.2v-8.4q0-1.4-0.6-2-0.6-0.7-1.9-0.7-1.1 0-1.9 0.6-0.8 0.6-1.2 1.5v9h-2.2z"/>
	<path id="River" fill-rule="evenodd" class="s0" d="m394.9 30l-3.7-6.9h-4v6.9h-2.3v-17.1h5.7q2.9 0 4.4 1.4 1.6 1.3 1.6 3.8 0 1.6-0.9 2.7-0.9 1.2-2.4 1.8l4 7.3v0.1zm-7.7-15.2v6.5h3.5q1.6 0 2.6-0.9 1-0.9 1-2.3 0-1.6-0.9-2.5-1-0.8-2.8-0.8zm14.6 2.5v12.7h-2.2v-12.7zm-2.3-3.3q0-0.6 0.3-0.9 0.3-0.4 1-0.4 0.6 0 0.9 0.4 0.3 0.3 0.3 0.9 0 0.5-0.3 0.8-0.3 0.4-0.9 0.4-0.7 0-1-0.4-0.3-0.3-0.3-0.8zm6.8 3.3l3.2 9.8 3.1-9.8h2.2l-4.5 12.7h-1.7l-4.6-12.7zm15.8 12.9q-2.6 0-4.2-1.7-1.6-1.7-1.6-4.5v-0.4q0-1.9 0.7-3.3 0.7-1.5 2-2.4 1.3-0.8 2.8-0.8 2.5 0 3.9 1.6 1.4 1.6 1.4 4.7v0.9h-8.6q0 1.9 1.1 3 1 1.2 2.6 1.2 1.2 0 2-0.5 0.8-0.5 1.4-1.2l1.3 1q-1.6 2.4-4.8 2.4zm-0.3-11.3q-1.3 0-2.2 0.9-0.9 1-1.1 2.7h6.4v-0.2q-0.1-1.6-0.9-2.5-0.8-0.9-2.2-0.9zm13.9 0.4q-0.5-0.1-1.1-0.1-2.1 0-2.9 1.8v9h-2.1v-12.7h2.1v1.5q1.1-1.7 3-1.7 0.7 0 1 0.1z"/>
	<path id="Shape 4 copy" class="s0" d="m445 375.5v3l-439-0.1v-3z"/>
	<path id="Answer copy" fill-rule="evenodd" class="s0" d="m13 273l-1.6-4.5h-7.1l-1.7 4.5h-2.3l6.5-17.1h2l6.5 17.1zm-5.2-14.3l-2.9 8h5.8zm9.5 1.6h2.1v1.6q1.5-1.8 3.8-1.8 4 0 4.1 4.5v8.4h-2.2v-8.4q0-1.4-0.6-2-0.6-0.7-1.9-0.7-1.1 0-1.9 0.6-0.8 0.5-1.2 1.4v9.1h-2.2zm20.6 9.3q0-0.9-0.6-1.4-0.7-0.5-2.3-0.8-1.7-0.4-2.7-0.8-0.9-0.5-1.4-1.2-0.4-0.7-0.4-1.6 0-1.6 1.3-2.7 1.3-1.1 3.3-1.1 2.2 0 3.5 1.2 1.4 1.1 1.4 2.8h-2.2q0-0.9-0.8-1.5-0.7-0.7-1.9-0.7-1.1 0-1.8 0.5-0.7 0.6-0.7 1.4 0 0.8 0.6 1.2 0.7 0.4 2.3 0.7 1.6 0.4 2.6 0.9 1 0.5 1.5 1.2 0.5 0.7 0.5 1.7 0 1.7-1.4 2.8-1.3 1-3.5 1-1.5 0-2.7-0.5-1.1-0.6-1.8-1.5-0.7-1-0.7-2.1h2.2q0.1 1 0.9 1.7 0.8 0.6 2.1 0.6 1.2 0 2-0.5 0.7-0.5 0.7-1.3zm13.2-9.3l3.1 9.7 2.4-9.7h2.2l-3.7 12.7h-1.8l-3.1-9.6-3 9.6h-1.7l-3.7-12.7h2.1l2.5 9.5 3-9.5zm15.1 12.9q-2.6 0-4.2-1.7-1.6-1.7-1.6-4.5v-0.4q0-1.9 0.7-3.4 0.7-1.5 2-2.3 1.3-0.9 2.8-0.9 2.5 0 3.9 1.7 1.3 1.6 1.3 4.6v0.9h-8.6q0.1 1.9 1.1 3.1 1.1 1.1 2.7 1.1 1.1 0 1.9-0.4 0.8-0.5 1.4-1.3l1.4 1q-1.6 2.5-4.8 2.5zm-0.3-11.4q-1.3 0-2.2 1-0.9 0.9-1.1 2.7h6.4v-0.2q-0.1-1.7-0.9-2.6-0.8-0.9-2.2-0.9zm13.9-1.6v2q-0.5-0.1-1.1-0.1-2.1 0-2.9 1.9v9h-2.2v-12.7h2.1l0.1 1.4q1-1.7 3-1.7 0.6 0 1 0.2z"/>
	<path id="Guess copy" fill-rule="evenodd" class="s0" d="m20.6 326.5v6.3q-0.9 1.2-2.4 1.8-1.6 0.6-3.7 0.6-2 0-3.7-0.9-1.6-1-2.5-2.8-0.8-1.8-0.9-4.2v-1.5q0-3.9 1.8-6 1.8-2.1 5.1-2.1 2.7 0 4.3 1.4 1.6 1.3 2 3.8h-2.3q-0.6-3.3-4-3.3-2.3 0-3.4 1.5-1.2 1.6-1.2 4.6v1.4q0 2.9 1.3 4.6 1.3 1.7 3.6 1.7 1.2 0 2.2-0.3 0.9-0.3 1.5-0.9v-3.9h-3.9v-1.8zm11.3 8.5l-0.1-1.3q-1.2 1.5-3.7 1.5-2 0-3.1-1.1-1-1.2-1-3.5v-8.3h2.1v8.2q0 2.9 2.4 2.9 2.4 0 3.3-1.9v-9.2h2.1v12.7zm10.7 0.2q-2.6 0-4.2-1.7-1.7-1.7-1.7-4.5v-0.4q0-1.9 0.8-3.3 0.7-1.5 2-2.4 1.3-0.8 2.8-0.8 2.5 0 3.8 1.6 1.4 1.6 1.4 4.7v0.9h-8.6q0.1 1.9 1.1 3 1.1 1.2 2.7 1.2 1.1 0 1.9-0.5 0.8-0.5 1.4-1.2l1.3 1q-1.6 2.4-4.7 2.4zm-0.3-11.3q-1.3 0-2.2 0.9-0.9 1-1.1 2.7h6.3v-0.2q-0.1-1.6-0.9-2.5-0.8-0.9-2.1-0.9zm15.1 7.7q0-0.8-0.7-1.3-0.6-0.5-2.3-0.9-1.6-0.3-2.6-0.8-1-0.5-1.4-1.2-0.5-0.7-0.5-1.6 0-1.6 1.3-2.6 1.4-1.1 3.4-1.1 2.2 0 3.5 1.1 1.3 1.1 1.3 2.8h-2.1q0-0.8-0.8-1.5-0.7-0.6-1.9-0.6-1.2 0-1.8 0.5-0.7 0.5-0.7 1.3 0 0.8 0.6 1.2 0.6 0.4 2.2 0.8 1.7 0.3 2.7 0.8 1 0.5 1.5 1.3 0.5 0.7 0.5 1.7 0 1.7-1.4 2.7-1.4 1-3.5 1-1.6 0-2.7-0.5-1.2-0.5-1.9-1.5-0.6-1-0.6-2.1h2.1q0.1 1.1 0.9 1.7 0.8 0.7 2.2 0.7 1.2 0 1.9-0.5 0.8-0.5 0.8-1.4zm12.4 0q0-0.8-0.7-1.3-0.7-0.5-2.3-0.9-1.7-0.3-2.6-0.8-1-0.5-1.5-1.2-0.4-0.7-0.4-1.6 0-1.6 1.3-2.6 1.3-1.1 3.4-1.1 2.1 0 3.5 1.1 1.3 1.1 1.3 2.8h-2.2q0-0.8-0.7-1.5-0.8-0.6-1.9-0.6-1.2 0-1.9 0.5-0.6 0.5-0.6 1.3 0 0.8 0.6 1.2 0.6 0.4 2.2 0.8 1.6 0.3 2.7 0.8 1 0.5 1.4 1.3 0.5 0.7 0.5 1.7 0 1.7-1.3 2.7-1.4 1-3.6 1-1.5 0-2.6-0.5-1.2-0.5-1.9-1.5-0.6-1-0.6-2.1h2.1q0.1 1.1 0.9 1.7 0.8 0.7 2.1 0.7 1.3 0 2-0.5 0.8-0.5 0.8-1.4z"/>
	<path id="Shape 1 copy 10" class="s0" d="m97 252c0-4.4 3.6-8 8-8h41c4.4 0 8 3.6 8 8v25c0 4.4-3.6 8-8 8h-41c-4.4 0-8-3.6-8-8z"/>
	<path id="Shape 1 copy 11" class="s0" d="m311 252c0-4.4 3.6-8 8-8h41c4.4 0 8 3.6 8 8v25c0 4.4-3.6 8-8 8h-41c-4.4 0-8-3.6-8-8z"/>
	<path id="Shape 1 copy 12" class="s0" d="m381 252c0-4.4 3.6-8 8-8h41c4.4 0 8 3.6 8 8v25c0 4.4-3.6 8-8 8h-41c-4.4 0-8-3.6-8-8z"/>
	<path id="Shape 1 copy 13" class="s0" d="m168 252c0-4.4 3.6-8 8-8h41c4.4 0 8 3.6 8 8v25c0 4.4-3.6 8-8 8h-41c-4.4 0-8-3.6-8-8z"/>
	<path id="Shape 1 copy 14" class="s0" d="m238 252c0-4.4 3.6-8 8-8h41c4.4 0 8 3.6 8 8v25c0 4.4-3.6 8-8 8h-41c-4.4 0-8-3.6-8-8z"/>
	<path id="Shape 1 copy 15" class="s1" d="m238 314c0-4.4 3.6-8 8-8h41c4.4 0 8 3.6 8 8v25c0 4.4-3.6 8-8 8h-41c-4.4 0-8-3.6-8-8z"/>
	<path id="Shape 1 copy 16" class="s6" d="m311 314c0-4.4 3.6-8 8-8h41c4.4 0 8 3.6 8 8v25c0 4.4-3.6 8-8 8h-41c-4.4 0-8-3.6-8-8z"/>
	<path id="Shape 1 copy 17" class="s1" d="m381 314c0-4.4 3.6-8 8-8h41c4.4 0 8 3.6 8 8v25c0 4.4-3.6 8-8 8h-41c-4.4 0-8-3.6-8-8z"/>
	<path id="Shape 1 copy 18" class="s2" d="m168 314c0-4.4 3.6-8 8-8h41c4.4 0 8 3.6 8 8v25c0 4.4-3.6 8-8 8h-41c-4.4 0-8-3.6-8-8z"/>
	<path id="Shape 1 copy 19" class="s6" d="m97 314c0-4.4 3.6-8 8-8h41c4.4 0 8 3.6 8 8v25c0 4.4-3.6 8-8 8h-41c-4.4 0-8-3.6-8-8z"/>
	<path id="Shape 2 copy" class="s3" d="m89 210c0-4.4 3.6-8 8-8h198c4.4 0 8 3.6 8 8v137c0 4.4-3.6 8-8 8h-198c-4.4 0-8-3.6-8-8z"/>
	<path id="3 copy" class="s5" d="m183.1 265.6v-2.6h1.8q1.3 0 1.9-0.7 0.6-0.6 0.6-1.7 0-1-0.6-1.6-0.6-0.6-1.7-0.6-0.9 0-1.6 0.6-0.7 0.5-0.7 1.4h-3.3q0-1.4 0.7-2.4 0.7-1.1 2-1.7 1.3-0.6 2.9-0.6 2.7 0 4.2 1.3 1.5 1.3 1.5 3.6 0 1.1-0.7 2.1-0.7 1-1.9 1.5 1.5 0.6 2.2 1.6 0.7 1 0.7 2.4 0 2.3-1.7 3.7-1.6 1.3-4.3 1.3-2.6 0-4.2-1.3-1.6-1.4-1.6-3.6h3.3q0 1 0.8 1.6 0.7 0.6 1.7 0.6 1.2 0 1.9-0.6 0.7-0.7 0.7-1.7 0-2.6-2.8-2.6z"/>
	<path id="Layer copy 31" class="s4" d="m149.4 259.4c0 7.5-10.4 15-10.4 15 0 0-10.4-7.5-10.4-15 0-4.3 3.3-5.8 5-5.8 3.6 0 5.4 3 5.4 3 0 0 1.8-3 5.4-3 1.7 0 5 1.5 5 5.8z"/>
	<path id="Layer copy 9" class="s5" d="m221.9 267.2c0 3.3-2.9 4.8-4.9 4.8-2.2 0-3.8-1-4.8-1.8 0.1 2.7 0.8 4.6 3.6 6.1h-9.3c2.8-1.5 3.5-3.4 3.6-6.1-1 0.8-2.6 1.8-4.8 1.8-2 0-4.9-1.5-4.9-4.8 0-6.1 4.3-4.4 10.8-14.6 6.4 10.2 10.7 8.5 10.7 14.6z"/>
	<path id="Layer copy 11" class="s5" d="m434.9 267.2c0 3.3-2.9 4.8-4.9 4.8-2.2 0-3.8-1-4.8-1.8 0.1 2.7 0.8 4.6 3.6 6.1h-9.3c2.8-1.5 3.5-3.4 3.6-6.1-1 0.8-2.6 1.8-4.8 1.8-2 0-4.9-1.5-4.9-4.8 0-6.1 4.3-4.4 10.8-14.6 6.4 10.2 10.7 8.5 10.7 14.6z"/>
	<path id="Layer copy 14" class="s5" d="m364.8 266.1c0 1.3-0.4 2.6-1.3 3.6-0.8 1-2 1.6-3.3 1.9-1.2 0.2-2.6 0-3.7-0.7-1.1-0.6-2-1.6-2.5-2.9 0 3.7 0.3 6.2 3.7 8h-9.4c3.4-1.8 3.7-4.3 3.7-8-0.8 2.1-2.8 3.5-5 3.7-2.2 0.1-4.3-1.2-5.3-3.2-0.9-2-0.6-4.4 0.8-6.1 1.5-1.6 3.8-2.3 5.9-1.6-1.2-1.7-1.3-4-0.4-5.8 1-1.8 2.9-3 5-3 2.1 0 4 1.2 4.9 3 1 1.8 0.9 4.1-0.3 5.8 0.8-0.3 1.7-0.4 2.6-0.2 0.8 0.1 1.6 0.5 2.3 1 0.7 0.5 1.3 1.2 1.7 2 0.4 0.8 0.6 1.6 0.6 2.5z"/>
	<path id="Layer copy 34" class="s5" d="m364.8 327.1c0 1.3-0.4 2.6-1.3 3.6-0.8 1-2 1.6-3.3 1.9-1.2 0.2-2.6 0-3.7-0.7-1.1-0.6-2-1.6-2.5-2.9 0 3.7 0.3 6.2 3.7 8h-9.4c3.4-1.8 3.7-4.3 3.7-8-0.8 2.1-2.8 3.5-5 3.7-2.2 0.1-4.3-1.2-5.3-3.2-0.9-2-0.6-4.4 0.8-6.1 1.5-1.6 3.8-2.3 5.9-1.6-1.2-1.7-1.3-4-0.4-5.8 1-1.8 2.9-3 5-3 2.1 0 4 1.2 4.9 3 1 1.8 0.9 4.1-0.3 5.8 0.8-0.3 1.7-0.4 2.6-0.2 0.8 0.1 1.6 0.5 2.3 1 0.7 0.5 1.3 1.2 1.7 2 0.4 0.8 0.6 1.6 0.6 2.5z"/>
	<path id="Layer copy 15" class="s5" d="m292.8 328.1c0 1.3-0.4 2.6-1.3 3.6-0.8 1-2 1.6-3.3 1.9-1.2 0.2-2.6 0-3.7-0.7-1.1-0.6-2-1.6-2.5-2.9 0 3.7 0.3 6.2 3.7 8h-9.4c3.4-1.8 3.7-4.3 3.7-8-0.8 2.1-2.8 3.5-5 3.7-2.2 0.1-4.3-1.2-5.3-3.2-0.9-2-0.6-4.4 0.8-6.1 1.5-1.6 3.8-2.3 5.9-1.6-1.2-1.7-1.3-4-0.4-5.8 1-1.8 2.9-3 5-3 2.1 0 4 1.2 4.9 3 1 1.8 0.9 4.1-0.3 5.8 0.8-0.3 1.7-0.4 2.6-0.2 0.8 0.1 1.6 0.5 2.3 1 0.7 0.5 1.3 1.2 1.7 2 0.4 0.8 0.6 1.6 0.6 2.5z"/>
	<path id="Layer copy 17" class="s4" d="m149.8 326c-3.1 2.1-6.1 6.3-7.8 11.2-1.7-4.9-4.7-9.1-7.7-11.2 3-2.1 6-6.3 7.7-11.2 1.7 4.9 4.7 9.1 7.8 11.2z"/>
	<path id="Layer copy 33" class="s4" d="m218.8 326c-3.1 2.1-6.1 6.3-7.8 11.2-1.7-4.9-4.7-9.1-7.7-11.2 3-2.1 6-6.3 7.7-11.2 1.7 4.9 4.7 9.1 7.8 11.2z"/>
	<path id="Layer copy 32" class="s4" d="m288.8 264c-3.1 2.1-6.1 6.3-7.8 11.2-1.7-4.9-4.7-9.1-7.7-11.2 3-2.1 6-6.3 7.7-11.2 1.7 4.9 4.7 9.1 7.8 11.2z"/>
	<path id="K copy 7" class="s5" d="m331.8 273l-4.4-6.8-1.9 1.9v4.9h-3.5v-17.1h3.5v7.8l1.6-2.1 4.3-5.7h4.4l-6.1 7.6 6.2 9.5z"/>
	<path id="K copy 8" class="s5" d="m332.8 335l-4.4-6.8-1.9 1.9v4.9h-3.5v-17.1h3.5v7.8l1.6-2.1 4.3-5.7h4.4l-6.1 7.6 6.2 9.5z"/>
	<path id="9 copy 6" fill-rule="evenodd" class="s5" d="m256.6 328.2q-1.3 1.3-3.1 1.3-2.3 0-3.6-1.6-1.4-1.5-1.4-4.2 0-1.6 0.7-3 0.8-1.4 2.1-2.2 1.3-0.8 2.9-0.8 1.7 0 3 0.8 1.4 0.9 2.1 2.5 0.7 1.6 0.7 3.6v1.2q0 4.3-2.1 6.8-2.1 2.4-6 2.6h-0.8v-2.9h0.7q4.4-0.2 4.8-4.1zm-2.3-1.3q0.8 0 1.4-0.4 0.6-0.5 0.9-1.1v-1.3q0-1.8-0.6-2.7-0.7-1-1.8-1-1 0-1.7 1-0.6 0.9-0.6 2.3 0 1.4 0.6 2.3 0.7 0.9 1.8 0.9z"/>
	<path id="9 copy 5" fill-rule="evenodd" class="s5" d="m402.6 266.2q-1.3 1.3-3.1 1.3-2.3 0-3.6-1.6-1.4-1.5-1.4-4.2 0-1.6 0.7-3 0.8-1.4 2.1-2.2 1.3-0.8 2.9-0.8 1.7 0 3 0.8 1.4 0.9 2.1 2.5 0.7 1.6 0.7 3.6v1.2q0 4.3-2.1 6.8-2.1 2.4-6 2.6h-0.8v-2.9h0.7q4.4-0.2 4.8-4.1zm-2.3-1.3q0.8 0 1.4-0.4 0.6-0.5 0.9-1.1v-1.3q0-1.8-0.6-2.7-0.7-1-1.8-1-1 0-1.7 1-0.6 0.9-0.6 2.3 0 1.4 0.6 2.3 0.7 0.9 1.8 0.9z"/>
	<path id="9 copy 4" fill-rule="evenodd" class="s4" d="m116.6 266.2q-1.3 1.3-3.1 1.3-2.3 0-3.6-1.6-1.4-1.5-1.4-4.2 0-1.6 0.7-3 0.8-1.4 2.1-2.2 1.3-0.8 2.9-0.8 1.7 0 3 0.8 1.4 0.9 2.1 2.5 0.7 1.6 0.7 3.6v1.2q0 4.3-2.1 6.8-2.1 2.4-6 2.6h-0.8v-2.9h0.7q4.4-0.2 4.8-4.1zm-2.3-1.3q0.8 0 1.4-0.4 0.6-0.5 0.9-1.1v-1.3q0-1.8-0.6-2.7-0.7-1-1.8-1-1 0-1.7 1-0.6 0.9-0.6 2.3 0 1.4 0.6 2.3 0.7 0.9 1.8 0.9z"/>
	<path id="6 copy 5" fill-rule="evenodd" class="s4" d="m259.3 255.8h0.5v2.8h-0.3q-2.3 0-3.7 1.1-1.4 1.2-1.7 3.3 1.4-1.4 3.5-1.4 2.2 0 3.5 1.6 1.3 1.6 1.3 4.2 0 1.6-0.7 3-0.7 1.3-2 2.1-1.4 0.7-3 0.7-2.7 0-4.4-1.8-1.6-1.9-1.6-5v-1.3q0-2.7 1-4.9 1.1-2.1 3-3.3 2-1.1 4.6-1.1zm-2.8 8.5q-0.8 0-1.4 0.4-0.7 0.5-1 1.2v1q0 1.7 0.6 2.7 0.7 0.9 1.9 0.9 1.1 0 1.8-0.9 0.7-0.8 0.7-2.2 0-1.4-0.7-2.2-0.7-0.9-1.9-0.9z"/>
	<path id="6 copy 6" fill-rule="evenodd" class="s4" d="m118.3 317.8h0.5v2.8h-0.3q-2.3 0-3.7 1.1-1.4 1.2-1.7 3.3 1.4-1.4 3.5-1.4 2.2 0 3.5 1.6 1.3 1.6 1.3 4.2 0 1.6-0.7 3-0.7 1.3-2 2.1-1.4 0.7-3 0.7-2.7 0-4.4-1.8-1.6-1.9-1.6-5v-1.3q0-2.7 1-4.9 1.1-2.1 3-3.3 2-1.1 4.6-1.1zm-2.8 8.5q-0.8 0-1.4 0.4-0.7 0.5-1 1.2v1q0 1.7 0.6 2.7 0.7 0.9 1.9 0.9 1.1 0 1.8-0.9 0.7-0.8 0.7-2.2 0-1.4-0.7-2.2-0.7-0.9-1.9-0.9z"/>
	<path id="Flop copy" fill-rule="evenodd" class="s0" d="m184.3 218.6v1.9h-7.1v7.5h-2.3v-17.1h10.6v1.9h-8.3v5.8zm5.9-8.6v18h-2.2v-18zm2.9 11.7v-0.2q0-1.8 0.7-3.3 0.8-1.5 2.1-2.3 1.3-0.8 2.9-0.8 2.6 0 4.2 1.8 1.6 1.8 1.6 4.7v0.2q0 1.9-0.7 3.3-0.7 1.5-2 2.3-1.3 0.8-3 0.8-2.6 0-4.2-1.8-1.6-1.8-1.6-4.7zm2.2 0.1q0 2.1 0.9 3.4 1 1.3 2.7 1.3 1.6 0 2.6-1.3 1-1.3 1-3.7 0-2-1-3.3-1-1.3-2.7-1.3-1.6 0-2.6 1.2-0.9 1.3-0.9 3.7zm22.8-0.2v0.2q0 2.9-1.4 4.7-1.3 1.7-3.6 1.7-2.3 0-3.6-1.4v6.1h-2.2v-17.6h2l0.1 1.4q1.4-1.6 3.7-1.6 2.3 0 3.6 1.7 1.4 1.7 1.4 4.8zm-2.2 0q0-2.2-0.9-3.4-0.9-1.3-2.5-1.3-2 0-3 1.8v6q1 1.8 3 1.8 1.6 0 2.5-1.3 0.9-1.2 0.9-3.6z"/>
	<path id="Turn copy" class="s0" d="m329.7 209.9v1.9h-5.5v15.2h-2.2v-15.2h-5.5v-1.9zm9 17.1l-0.1-1.3q-1.2 1.5-3.7 1.5-2 0-3.1-1.1-1-1.2-1-3.5v-8.3h2.1v8.2q0 2.9 2.4 2.9 2.5 0 3.3-1.9v-9.2h2.1v12.7zm11.5-12.8v2.1q-0.5-0.1-1-0.1-2.2 0-2.9 1.8v9h-2.2v-12.7h2.1v1.5q1.1-1.7 3.1-1.7 0.6 0 0.9 0.1zm2 0.1h2.1v1.6q1.5-1.8 3.8-1.8 4.1 0 4.1 4.5v8.4h-2.2v-8.4q0-1.4-0.6-2-0.6-0.7-1.9-0.7-1.1 0-1.9 0.6-0.8 0.6-1.2 1.5v9h-2.2z"/>
	<path id="River copy" fill-rule="evenodd" class="s0" d="m393.9 227l-3.7-6.9h-4v6.9h-2.3v-17.1h5.7q2.9 0 4.4 1.4 1.6 1.3 1.6 3.8 0 1.6-0.9 2.7-0.9 1.2-2.4 1.8l4 7.3v0.1zm-7.7-15.2v6.5h3.5q1.6 0 2.6-0.9 1-0.9 1-2.3 0-1.6-0.9-2.5-1-0.8-2.8-0.8zm14.6 2.5v12.7h-2.2v-12.7zm-2.3-3.3q0-0.6 0.3-0.9 0.3-0.4 1-0.4 0.6 0 0.9 0.4 0.3 0.3 0.3 0.9 0 0.5-0.3 0.8-0.3 0.4-0.9 0.4-0.7 0-1-0.4-0.3-0.3-0.3-0.8zm6.8 3.3l3.2 9.8 3.1-9.8h2.2l-4.5 12.7h-1.7l-4.6-12.7zm15.8 12.9q-2.6 0-4.2-1.7-1.6-1.7-1.6-4.5v-0.4q0-1.9 0.7-3.3 0.7-1.5 2-2.4 1.3-0.8 2.8-0.8 2.5 0 3.9 1.6 1.4 1.6 1.4 4.7v0.9h-8.6q0 1.9 1.1 3 1 1.2 2.6 1.2 1.2 0 2-0.5 0.8-0.5 1.4-1.2l1.3 1q-1.6 2.4-4.8 2.4zm-0.3-11.3q-1.3 0-2.2 0.9-0.9 1-1.1 2.7h6.4v-0.2q-0.1-1.6-0.9-2.5-0.8-0.9-2.2-0.9zm13.9 0.4q-0.5-0.1-1.1-0.1-2.1 0-2.9 1.8v9h-2.1v-12.7h2.1v1.5q1.1-1.7 3-1.7 0.7 0 1 0.1z"/>
	<path id="Answer copy 2" fill-rule="evenodd" class="s0" d="m13 470l-1.6-4.5h-7.1l-1.7 4.5h-2.3l6.5-17.1h2l6.5 17.1zm-5.2-14.3l-2.9 8h5.8zm9.5 1.6h2.1v1.6q1.5-1.8 3.8-1.8 4 0 4.1 4.5v8.4h-2.2v-8.4q0-1.4-0.6-2-0.6-0.7-1.9-0.7-1.1 0-1.9 0.6-0.8 0.5-1.2 1.4v9.1h-2.2zm20.6 9.3q0-0.9-0.6-1.4-0.7-0.5-2.3-0.8-1.7-0.4-2.7-0.8-0.9-0.5-1.4-1.2-0.4-0.7-0.4-1.6 0-1.6 1.3-2.7 1.3-1.1 3.3-1.1 2.2 0 3.5 1.2 1.4 1.1 1.4 2.8h-2.2q0-0.9-0.8-1.5-0.7-0.7-1.9-0.7-1.1 0-1.8 0.5-0.7 0.6-0.7 1.4 0 0.8 0.6 1.2 0.7 0.4 2.3 0.7 1.6 0.4 2.6 0.9 1 0.5 1.5 1.2 0.5 0.7 0.5 1.7 0 1.7-1.4 2.8-1.3 1-3.5 1-1.5 0-2.7-0.5-1.1-0.6-1.8-1.5-0.7-1-0.7-2.1h2.2q0.1 1 0.9 1.7 0.8 0.6 2.1 0.6 1.2 0 2-0.5 0.7-0.5 0.7-1.3zm13.2-9.3l3.1 9.7 2.4-9.7h2.2l-3.7 12.7h-1.8l-3.1-9.6-3 9.6h-1.7l-3.7-12.7h2.1l2.5 9.5 3-9.5zm15.1 12.9q-2.6 0-4.2-1.7-1.6-1.7-1.6-4.5v-0.4q0-1.9 0.7-3.4 0.7-1.5 2-2.3 1.3-0.9 2.8-0.9 2.5 0 3.9 1.7 1.3 1.6 1.3 4.6v0.9h-8.6q0.1 1.9 1.1 3.1 1.1 1.1 2.7 1.1 1.1 0 1.9-0.4 0.8-0.5 1.4-1.3l1.4 1q-1.6 2.5-4.8 2.5zm-0.3-11.4q-1.3 0-2.2 1-0.9 0.9-1.1 2.7h6.4v-0.2q-0.1-1.7-0.9-2.6-0.8-0.9-2.2-0.9zm13.9-1.6v2q-0.5-0.1-1.1-0.1-2.1 0-2.9 1.9v9h-2.2v-12.7h2.1l0.1 1.4q1-1.7 3-1.7 0.6 0 1 0.2z"/>
	<path id="Guess copy 2" fill-rule="evenodd" class="s0" d="m20.6 523.5v6.3q-0.9 1.2-2.4 1.8-1.6 0.6-3.7 0.6-2 0-3.7-0.9-1.6-1-2.5-2.8-0.8-1.8-0.9-4.2v-1.5q0-3.9 1.8-6 1.8-2.1 5.1-2.1 2.7 0 4.3 1.4 1.6 1.3 2 3.8h-2.3q-0.6-3.3-4-3.3-2.3 0-3.4 1.5-1.2 1.6-1.2 4.6v1.4q0 2.9 1.3 4.6 1.3 1.7 3.6 1.7 1.2 0 2.2-0.3 0.9-0.3 1.5-0.9v-3.9h-3.9v-1.8zm11.3 8.5l-0.1-1.3q-1.2 1.5-3.7 1.5-2 0-3.1-1.1-1-1.2-1-3.5v-8.3h2.1v8.2q0 2.9 2.4 2.9 2.4 0 3.3-1.9v-9.2h2.1v12.7zm10.7 0.2q-2.6 0-4.2-1.7-1.7-1.7-1.7-4.5v-0.4q0-1.9 0.8-3.3 0.7-1.5 2-2.4 1.3-0.8 2.8-0.8 2.5 0 3.8 1.6 1.4 1.6 1.4 4.7v0.9h-8.6q0.1 1.9 1.1 3 1.1 1.2 2.7 1.2 1.1 0 1.9-0.5 0.8-0.5 1.4-1.2l1.3 1q-1.6 2.4-4.7 2.4zm-0.3-11.3q-1.3 0-2.2 0.9-0.9 1-1.1 2.7h6.3v-0.2q-0.1-1.6-0.9-2.5-0.8-0.9-2.1-0.9zm15.1 7.7q0-0.8-0.7-1.3-0.6-0.5-2.3-0.9-1.6-0.3-2.6-0.8-1-0.5-1.4-1.2-0.5-0.7-0.5-1.6 0-1.6 1.3-2.6 1.4-1.1 3.4-1.1 2.2 0 3.5 1.1 1.3 1.1 1.3 2.8h-2.1q0-0.8-0.8-1.5-0.7-0.6-1.9-0.6-1.2 0-1.8 0.5-0.7 0.5-0.7 1.3 0 0.8 0.6 1.2 0.6 0.4 2.2 0.8 1.7 0.3 2.7 0.8 1 0.5 1.5 1.3 0.5 0.7 0.5 1.7 0 1.7-1.4 2.7-1.4 1-3.5 1-1.6 0-2.7-0.5-1.2-0.5-1.9-1.5-0.6-1-0.6-2.1h2.1q0.1 1.1 0.9 1.7 0.8 0.7 2.2 0.7 1.2 0 1.9-0.5 0.8-0.5 0.8-1.4zm12.4 0q0-0.8-0.7-1.3-0.7-0.5-2.3-0.9-1.7-0.3-2.6-0.8-1-0.5-1.5-1.2-0.4-0.7-0.4-1.6 0-1.6 1.3-2.6 1.3-1.1 3.4-1.1 2.1 0 3.5 1.1 1.3 1.1 1.3 2.8h-2.2q0-0.8-0.7-1.5-0.8-0.6-1.9-0.6-1.2 0-1.9 0.5-0.6 0.5-0.6 1.3 0 0.8 0.6 1.2 0.6 0.4 2.2 0.8 1.6 0.3 2.7 0.8 1 0.5 1.4 1.3 0.5 0.7 0.5 1.7 0 1.7-1.3 2.7-1.4 1-3.6 1-1.5 0-2.6-0.5-1.2-0.5-1.9-1.5-0.6-1-0.6-2.1h2.1q0.1 1.1 0.9 1.7 0.8 0.7 2.1 0.7 1.3 0 2-0.5 0.8-0.5 0.8-1.4z"/>
	<path id="Shape 1 copy 20" class="s0" d="m97 449c0-4.4 3.6-8 8-8h41c4.4 0 8 3.6 8 8v25c0 4.4-3.6 8-8 8h-41c-4.4 0-8-3.6-8-8z"/>
	<path id="Shape 1 copy 21" class="s0" d="m311 449c0-4.4 3.6-8 8-8h41c4.4 0 8 3.6 8 8v25c0 4.4-3.6 8-8 8h-41c-4.4 0-8-3.6-8-8z"/>
	<path id="Shape 1 copy 22" class="s0" d="m381 449c0-4.4 3.6-8 8-8h41c4.4 0 8 3.6 8 8v25c0 4.4-3.6 8-8 8h-41c-4.4 0-8-3.6-8-8z"/>
	<path id="Shape 1 copy 23" class="s0" d="m168 449c0-4.4 3.6-8 8-8h41c4.4 0 8 3.6 8 8v25c0 4.4-3.6 8-8 8h-41c-4.4 0-8-3.6-8-8z"/>
	<path id="Shape 1 copy 24" class="s0" d="m238 449c0-4.4 3.6-8 8-8h41c4.4 0 8 3.6 8 8v25c0 4.4-3.6 8-8 8h-41c-4.4 0-8-3.6-8-8z"/>
	<path id="Shape 1 copy 25" class="s6" d="m97 511c0-4.4 3.6-8 8-8h41c4.4 0 8 3.6 8 8v25c0 4.4-3.6 8-8 8h-41c-4.4 0-8-3.6-8-8z"/>
	<path id="Shape 1 copy 26" class="s1" d="m311 511c0-4.4 3.6-8 8-8h41c4.4 0 8 3.6 8 8v25c0 4.4-3.6 8-8 8h-41c-4.4 0-8-3.6-8-8z"/>
	<path id="Shape 1 copy 27" class="s6" d="m381 511c0-4.4 3.6-8 8-8h41c4.4 0 8 3.6 8 8v25c0 4.4-3.6 8-8 8h-41c-4.4 0-8-3.6-8-8z"/>
	<path id="Shape 1 copy 28" class="s1" d="m168 511c0-4.4 3.6-8 8-8h41c4.4 0 8 3.6 8 8v25c0 4.4-3.6 8-8 8h-41c-4.4 0-8-3.6-8-8z"/>
	<path id="Shape 1 copy 29" class="s1" d="m238 511c0-4.4 3.6-8 8-8h41c4.4 0 8 3.6 8 8v25c0 4.4-3.6 8-8 8h-41c-4.4 0-8-3.6-8-8z"/>
	<path id="Shape 2 copy 2" class="s3" d="m89 407c0-4.4 3.6-8 8-8h198c4.4 0 8 3.6 8 8v137c0 4.4-3.6 8-8 8h-198c-4.4 0-8-3.6-8-8z"/>
	<path id="Layer copy 23" class="s4" d="m364.4 518.4c0 7.5-10.4 15-10.4 15 0 0-10.4-7.5-10.4-15 0-4.3 3.3-5.8 5-5.8 3.6 0 5.4 3 5.4 3 0 0 1.8-3 5.4-3 1.7 0 5 1.5 5 5.8z"/>
	<path id="Layer copy 35" class="s4" d="m291.4 457.4c0 7.5-10.4 15-10.4 15 0 0-10.4-7.5-10.4-15 0-4.3 3.3-5.8 5-5.8 3.6 0 5.4 3 5.4 3 0 0 1.8-3 5.4-3 1.7 0 5 1.5 5 5.8z"/>
	<path id="Layer copy 19" class="s5" d="m221.9 464.2c0 3.3-2.9 4.8-4.9 4.8-2.2 0-3.8-1-4.8-1.8 0.1 2.7 0.8 4.6 3.6 6.1h-9.3c2.8-1.5 3.5-3.4 3.6-6.1-1 0.8-2.6 1.8-4.8 1.8-2 0-4.9-1.5-4.9-4.8 0-6.1 4.3-4.4 10.8-14.6 6.4 10.2 10.7 8.5 10.7 14.6z"/>
	<path id="Layer copy 26" class="s5" d="m149.9 463.2c0 3.3-2.9 4.8-4.9 4.8-2.2 0-3.8-1-4.8-1.8 0.1 2.7 0.8 4.6 3.6 6.1h-9.3c2.8-1.5 3.5-3.4 3.6-6.1-1 0.8-2.6 1.8-4.8 1.8-2 0-4.9-1.5-4.9-4.8 0-6.1 4.3-4.4 10.8-14.6 6.4 10.2 10.7 8.5 10.7 14.6z"/>
	<path id="Layer copy 36" class="s5" d="m434.9 329.2c0 3.3-2.9 4.8-4.9 4.8-2.2 0-3.8-1-4.8-1.8 0.1 2.7 0.8 4.6 3.6 6.1h-9.3c2.8-1.5 3.5-3.4 3.6-6.1-1 0.8-2.6 1.8-4.8 1.8-2 0-4.9-1.5-4.9-4.8 0-6.1 4.3-4.4 10.8-14.6 6.4 10.2 10.7 8.5 10.7 14.6z"/>
	<path id="Layer copy 20" class="s5" d="m150.9 526.2c0 3.3-2.9 4.8-4.9 4.8-2.2 0-3.8-1-4.8-1.8 0.1 2.7 0.8 4.6 3.6 6.1h-9.3c2.8-1.5 3.5-3.4 3.6-6.1-1 0.8-2.6 1.8-4.8 1.8-2 0-4.9-1.5-4.9-4.8 0-6.1 4.3-4.4 10.8-14.6 6.4 10.2 10.7 8.5 10.7 14.6z"/>
	<path id="Layer copy 25" class="s5" d="m221.9 525.2c0 3.3-2.9 4.8-4.9 4.8-2.2 0-3.8-1-4.8-1.8 0.1 2.7 0.8 4.6 3.6 6.1h-9.3c2.8-1.5 3.5-3.4 3.6-6.1-1 0.8-2.6 1.8-4.8 1.8-2 0-4.9-1.5-4.9-4.8 0-6.1 4.3-4.4 10.8-14.6 6.4 10.2 10.7 8.5 10.7 14.6z"/>
	<path id="Layer copy 37" class="s5" d="m293.9 524.2c0 3.3-2.9 4.8-4.9 4.8-2.2 0-3.8-1-4.8-1.8 0.1 2.7 0.8 4.6 3.6 6.1h-9.3c2.8-1.5 3.5-3.4 3.6-6.1-1 0.8-2.6 1.8-4.8 1.8-2 0-4.9-1.5-4.9-4.8 0-6.1 4.3-4.4 10.8-14.6 6.4 10.2 10.7 8.5 10.7 14.6z"/>
	<path id="Layer copy 21" class="s5" d="m434.9 464.2c0 3.3-2.9 4.8-4.9 4.8-2.2 0-3.8-1-4.8-1.8 0.1 2.7 0.8 4.6 3.6 6.1h-9.3c2.8-1.5 3.5-3.4 3.6-6.1-1 0.8-2.6 1.8-4.8 1.8-2 0-4.9-1.5-4.9-4.8 0-6.1 4.3-4.4 10.8-14.6 6.4 10.2 10.7 8.5 10.7 14.6z"/>
	<path id="Layer copy 22" class="s5" d="m434.9 526.2c0 3.3-2.9 4.8-4.9 4.8-2.2 0-3.8-1-4.8-1.8 0.1 2.7 0.8 4.6 3.6 6.1h-9.3c2.8-1.5 3.5-3.4 3.6-6.1-1 0.8-2.6 1.8-4.8 1.8-2 0-4.9-1.5-4.9-4.8 0-6.1 4.3-4.4 10.8-14.6 6.4 10.2 10.7 8.5 10.7 14.6z"/>
	<path id="Layer copy 24" class="s5" d="m364.8 463.1c0 1.3-0.4 2.6-1.3 3.6-0.8 1-2 1.6-3.3 1.9-1.2 0.2-2.6 0-3.7-0.7-1.1-0.6-2-1.6-2.5-2.9 0 3.7 0.3 6.2 3.7 8h-9.4c3.4-1.8 3.7-4.3 3.7-8-0.8 2.1-2.8 3.5-5 3.7-2.2 0.1-4.3-1.2-5.3-3.2-0.9-2-0.6-4.4 0.8-6.1 1.5-1.6 3.8-2.3 5.9-1.6-1.2-1.7-1.3-4-0.4-5.8 1-1.8 2.9-3 5-3 2.1 0 4 1.2 4.9 3 1 1.8 0.9 4.1-0.3 5.8 0.8-0.3 1.7-0.4 2.6-0.2 0.8 0.1 1.6 0.5 2.3 1 0.7 0.5 1.3 1.2 1.7 2 0.4 0.8 0.6 1.6 0.6 2.5z"/>
	<path id="7 copy 2" class="s5" d="m120.3 452.9v1.9l-6.6 15.2h-3.6l6.6-14.3h-8.5v-2.8z"/>
	<path id="7 copy 3" class="s4" d="m191.3 317.9v1.9l-6.6 15.2h-3.6l6.6-14.3h-8.5v-2.8z"/>
	<path id="K copy 3" class="s5" d="m188.8 470l-4.4-6.8-1.9 1.9v4.9h-3.5v-17.1h3.5v7.8l1.6-2.1 4.3-5.7h4.4l-6.1 7.6 6.2 9.5z"/>
	<path id="K copy 4" class="s5" d="m117.8 532l-4.4-6.8-1.9 1.9v4.9h-3.5v-17.1h3.5v7.8l1.6-2.1 4.3-5.7h4.4l-6.1 7.6 6.2 9.5z"/>
	<path id="9 copy 2" fill-rule="evenodd" class="s5" d="m186.6 525.2q-1.3 1.3-3.1 1.3-2.3 0-3.6-1.6-1.4-1.5-1.4-4.2 0-1.6 0.7-3 0.8-1.4 2.1-2.2 1.3-0.8 2.9-0.8 1.7 0 3 0.8 1.4 0.9 2.1 2.5 0.7 1.6 0.7 3.6v1.2q0 4.3-2.1 6.8-2.1 2.4-6 2.6h-0.8v-2.9h0.7q4.4-0.2 4.8-4.1zm-2.3-1.3q0.8 0 1.4-0.4 0.6-0.5 0.9-1.1v-1.3q0-1.8-0.6-2.7-0.7-1-1.8-1-1 0-1.7 1-0.6 0.9-0.6 2.3 0 1.4 0.6 2.3 0.7 0.9 1.8 0.9z"/>
	<path id="A copy 3" fill-rule="evenodd" class="s4" d="m260.8 470l-1.1-3.5h-6.2l-1.2 3.5h-3.7l6.3-17.1h3.3l6.4 17.1zm-4.3-12.8l-2.1 6.4h4.2z"/>
	<path id="A copy 5" fill-rule="evenodd" class="s5" d="m403.8 335l-1.1-3.5h-6.2l-1.2 3.5h-3.7l6.3-17.1h3.3l6.4 17.1zm-4.3-12.8l-2.1 6.4h4.2z"/>
	<path id="A copy 4" fill-rule="evenodd" class="s5" d="m260.8 532l-1.1-3.5h-6.2l-1.2 3.5h-3.7l6.3-17.1h3.3l6.4 17.1zm-4.3-12.8l-2.1 6.4h4.2z"/>
	<path id="4 copy 3" fill-rule="evenodd" class="s4" d="m332.7 514.9v10.7h1.9v2.7h-1.9v3.7h-3.4v-3.7h-7l-0.2-2.1 7.2-11.3zm-3.7 5l-3.5 5.7h3.8v-6z"/>
	<path id="6 copy 3" fill-rule="evenodd" class="s5" d="m400.3 514.8h0.5v2.8h-0.3q-2.3 0-3.7 1.1-1.4 1.2-1.7 3.3 1.4-1.4 3.5-1.4 2.2 0 3.5 1.6 1.3 1.6 1.3 4.2 0 1.6-0.7 3-0.7 1.3-2 2.1-1.4 0.7-3 0.7-2.7 0-4.4-1.8-1.6-1.9-1.6-5v-1.3q0-2.7 1-4.9 1.1-2.1 3-3.3 2-1.1 4.6-1.1zm-2.8 8.5q-0.8 0-1.4 0.4-0.7 0.5-1 1.2v1q0 1.7 0.6 2.7 0.7 0.9 1.9 0.9 1.1 0 1.8-0.9 0.7-0.8 0.7-2.2 0-1.4-0.7-2.2-0.7-0.9-1.9-0.9z"/>
	<path id="6 copy 4" fill-rule="evenodd" class="s5" d="m399.3 452.8h0.5v2.8h-0.3q-2.3 0-3.7 1.1-1.4 1.2-1.7 3.3 1.4-1.4 3.5-1.4 2.2 0 3.5 1.6 1.3 1.6 1.3 4.2 0 1.6-0.7 3-0.7 1.3-2 2.1-1.4 0.7-3 0.7-2.7 0-4.4-1.8-1.6-1.9-1.6-5v-1.3q0-2.7 1-4.9 1.1-2.1 3-3.3 2-1.1 4.6-1.1zm-2.8 8.5q-0.8 0-1.4 0.4-0.7 0.5-1 1.2v1q0 1.7 0.6 2.7 0.7 0.9 1.9 0.9 1.1 0 1.8-0.9 0.7-0.8 0.7-2.2 0-1.4-0.7-2.2-0.7-0.9-1.9-0.9z"/>
	<path id="4 copy 4" fill-rule="evenodd" class="s5" d="m330.7 452.9v10.7h1.9v2.7h-1.9v3.7h-3.4v-3.7h-7l-0.2-2.1 7.2-11.3zm-3.7 5l-3.5 5.7h3.8v-6z"/>
	<path id="Flop copy 2" fill-rule="evenodd" class="s0" d="m184.3 415.6v1.9h-7.1v7.5h-2.3v-17.1h10.6v1.9h-8.3v5.8zm5.9-8.6v18h-2.2v-18zm2.9 11.7v-0.2q0-1.8 0.7-3.3 0.8-1.5 2.1-2.3 1.3-0.8 2.9-0.8 2.6 0 4.2 1.8 1.6 1.8 1.6 4.7v0.2q0 1.9-0.7 3.3-0.7 1.5-2 2.3-1.3 0.8-3 0.8-2.6 0-4.2-1.8-1.6-1.8-1.6-4.7zm2.2 0.1q0 2.1 0.9 3.4 1 1.3 2.7 1.3 1.6 0 2.6-1.3 1-1.3 1-3.7 0-2-1-3.3-1-1.3-2.7-1.3-1.6 0-2.6 1.2-0.9 1.3-0.9 3.7zm22.8-0.2v0.2q0 2.9-1.4 4.7-1.3 1.7-3.6 1.7-2.3 0-3.6-1.4v6.1h-2.2v-17.6h2l0.1 1.4q1.4-1.6 3.7-1.6 2.3 0 3.6 1.7 1.4 1.7 1.4 4.8zm-2.2 0q0-2.2-0.9-3.4-0.9-1.3-2.5-1.3-2 0-3 1.8v6q1 1.8 3 1.8 1.6 0 2.5-1.3 0.9-1.2 0.9-3.6z"/>
	<path id="Turn copy 2" class="s0" d="m329.7 406.9v1.9h-5.5v15.2h-2.2v-15.2h-5.5v-1.9zm9 17.1l-0.1-1.3q-1.2 1.5-3.7 1.5-2 0-3.1-1.1-1-1.2-1-3.5v-8.3h2.1v8.2q0 2.9 2.4 2.9 2.5 0 3.3-1.9v-9.2h2.1v12.7zm11.5-12.8v2.1q-0.5-0.1-1-0.1-2.2 0-2.9 1.8v9h-2.2v-12.7h2.1v1.5q1.1-1.7 3.1-1.7 0.6 0 0.9 0.1zm2 0.1h2.1v1.6q1.5-1.8 3.8-1.8 4.1 0 4.1 4.5v8.4h-2.2v-8.4q0-1.4-0.6-2-0.6-0.7-1.9-0.7-1.1 0-1.9 0.6-0.8 0.6-1.2 1.5v9h-2.2z"/>
	<path id="River copy 2" fill-rule="evenodd" class="s0" d="m393.9 424l-3.7-6.9h-4v6.9h-2.3v-17.1h5.7q2.9 0 4.4 1.4 1.6 1.3 1.6 3.8 0 1.6-0.9 2.7-0.9 1.2-2.4 1.8l4 7.3v0.1zm-7.7-15.2v6.5h3.5q1.6 0 2.6-0.9 1-0.9 1-2.3 0-1.6-0.9-2.5-1-0.8-2.8-0.8zm14.6 2.5v12.7h-2.2v-12.7zm-2.3-3.3q0-0.6 0.3-0.9 0.3-0.4 1-0.4 0.6 0 0.9 0.4 0.3 0.3 0.3 0.9 0 0.5-0.3 0.8-0.3 0.4-0.9 0.4-0.7 0-1-0.4-0.3-0.3-0.3-0.8zm6.8 3.3l3.2 9.8 3.1-9.8h2.2l-4.5 12.7h-1.7l-4.6-12.7zm15.8 12.9q-2.6 0-4.2-1.7-1.6-1.7-1.6-4.5v-0.4q0-1.9 0.7-3.3 0.7-1.5 2-2.4 1.3-0.8 2.8-0.8 2.5 0 3.9 1.6 1.4 1.6 1.4 4.7v0.9h-8.6q0 1.9 1.1 3 1 1.2 2.6 1.2 1.2 0 2-0.5 0.8-0.5 1.4-1.2l1.3 1q-1.6 2.4-4.8 2.4zm-0.3-11.3q-1.3 0-2.2 0.9-0.9 1-1.1 2.7h6.4v-0.2q-0.1-1.6-0.9-2.5-0.8-0.9-2.2-0.9zm13.9 0.4q-0.5-0.1-1.1-0.1-2.1 0-2.9 1.8v9h-2.1v-12.7h2.1v1.5q1.1-1.7 3-1.7 0.7 0 1 0.1z"/>
</svg>