<svg version="1.2" xmlns="http://www.w3.org/2000/svg" viewBox="0 0 231 245" width="231" height="245">
	<title>help3-svg</title>
	<style>
		.s0 { fill: #ffffff } 
		.s1 { fill: #006400 } 
		.s2 { fill: #808080 } 
		.s3 { fill: none;stroke: #ff00ff;stroke-width: 2.6 } 
		.s4 { fill: #ff00ff } 
		.s5 { fill: none;stroke: #ff00ff;stroke-width: 1.6 } 
		.s6 { fill: #ff0000 } 
		.s7 { fill: #000000 } 
		.s8 { fill: #ffd700 } 
	</style>
	<path id="Shape 1" class="s0" d="m98 145c0-4.4 3.6-8 8-8h41c4.4 0 8 3.6 8 8v25c0 4.4-3.6 8-8 8h-41c-4.4 0-8-3.6-8-8z"/>
	<path id="Shape 1 copy" class="s0" d="m169 145c0-4.4 3.6-8 8-8h41c4.4 0 8 3.6 8 8v25c0 4.4-3.6 8-8 8h-41c-4.4 0-8-3.6-8-8z"/>
	<path id="Shape 1 copy 5" class="s1" d="m98 207c0-4.4 3.6-8 8-8h41c4.4 0 8 3.6 8 8v25c0 4.4-3.6 8-8 8h-41c-4.4 0-8-3.6-8-8z"/>
	<path id="Shape 1 copy 8" class="s2" d="m169 207c0-4.4 3.6-8 8-8h41c4.4 0 8 3.6 8 8v25c0 4.4-3.6 8-8 8h-41c-4.4 0-8-3.6-8-8z"/>
	<path id="Layer 2" class="s3" d="m169 140c0-1.7 1.3-3 3-3h51c1.7 0 3 1.3 3 3v35c0 1.7-1.3 3-3 3h-51c-1.7 0-3-1.3-3-3z"/>
	<path id="Shape 3" class="s3" d="m98 202c0-1.7 1.3-3 3-3h51c1.7 0 3 1.3 3 3v35c0 1.7-1.3 3-3 3h-51c-1.7 0-3-1.3-3-3z"/>
	<path id="Layer 3" class="s4" d="m154.7 201.4l-2.4-1.7 17-24.1 2.4 1.7z"/>
	<path id="Shape 5" class="s5" d="m174 215c0-4.4 3.6-8 8-8h9c4.4 0 8 3.6 8 8v9c0 4.4-3.6 8-8 8h-9c-4.4 0-8-3.6-8-8z"/>
	<path id="Layer 5" class="s4" d="m187 206.4h-2l0.1-17.4h2z"/>
	<path id="Layer 6" class="s6" d="m178.5 199.4l-2.8-2.8 17.9-17.9 2.8 2.8z"/>
	<path id="Shape 4" class="s6" d="m197.3 196.5l-2.7 2.9-18.9-17.9 2.7-2.9z"/>
	<path id="Answer" fill-rule="evenodd" class="s0" d="m14 166l-1.6-4.5h-7.1l-1.7 4.5h-2.3l6.5-17.1h2l6.5 17.1zm-5.2-14.3l-2.9 8h5.8zm9.5 1.6h2.1v1.6q1.5-1.8 3.8-1.8 4 0 4.1 4.5v8.4h-2.2v-8.4q0-1.4-0.6-2-0.6-0.7-1.9-0.7-1.1 0-1.9 0.6-0.8 0.5-1.2 1.4v9.1h-2.2zm20.6 9.3q0-0.9-0.6-1.4-0.7-0.5-2.3-0.8-1.7-0.4-2.7-0.8-0.9-0.5-1.4-1.2-0.4-0.7-0.4-1.6 0-1.6 1.3-2.7 1.3-1.1 3.3-1.1 2.2 0 3.5 1.2 1.4 1.1 1.4 2.8h-2.2q0-0.9-0.8-1.5-0.7-0.7-1.9-0.7-1.1 0-1.8 0.5-0.7 0.6-0.7 1.4 0 0.8 0.6 1.2 0.7 0.4 2.3 0.7 1.6 0.4 2.6 0.9 1 0.5 1.5 1.2 0.5 0.7 0.5 1.7 0 1.7-1.4 2.8-1.3 1-3.5 1-1.5 0-2.7-0.5-1.1-0.6-1.8-1.5-0.7-1-0.7-2.1h2.2q0.1 1 0.9 1.7 0.8 0.6 2.1 0.6 1.2 0 2-0.5 0.7-0.5 0.7-1.3zm13.2-9.3l3.1 9.7 2.4-9.7h2.2l-3.7 12.7h-1.8l-3.1-9.6-3 9.6h-1.7l-3.7-12.7h2.1l2.5 9.5 3-9.5zm15.1 12.9q-2.6 0-4.2-1.7-1.6-1.7-1.6-4.5v-0.4q0-1.9 0.7-3.4 0.7-1.5 2-2.3 1.3-0.9 2.8-0.9 2.5 0 3.9 1.7 1.3 1.6 1.3 4.6v0.9h-8.6q0.1 1.9 1.1 3.1 1.1 1.1 2.7 1.1 1.1 0 1.9-0.4 0.8-0.5 1.4-1.3l1.4 1q-1.6 2.5-4.8 2.5zm-0.3-11.4q-1.3 0-2.2 1-0.9 0.9-1.1 2.7h6.4v-0.2q-0.1-1.7-0.9-2.6-0.8-0.9-2.2-0.9zm13.9-1.6v2q-0.5-0.1-1.1-0.1-2.1 0-2.9 1.9v9h-2.2v-12.7h2.1l0.1 1.4q1-1.7 3-1.7 0.6 0 1 0.2z"/>
	<path id="Guess" fill-rule="evenodd" class="s0" d="m21.6 219.5v6.3q-0.9 1.2-2.4 1.8-1.6 0.6-3.7 0.6-2 0-3.7-0.9-1.6-1-2.5-2.8-0.8-1.8-0.9-4.2v-1.5q0-3.9 1.8-6 1.8-2.1 5.1-2.1 2.7 0 4.3 1.4 1.6 1.3 2 3.8h-2.3q-0.6-3.3-4-3.3-2.3 0-3.4 1.5-1.2 1.6-1.2 4.6v1.4q0 2.9 1.3 4.6 1.3 1.7 3.6 1.7 1.2 0 2.2-0.3 0.9-0.3 1.5-0.9v-3.9h-3.9v-1.8zm11.3 8.5l-0.1-1.3q-1.2 1.5-3.7 1.5-2 0-3.1-1.1-1-1.2-1-3.5v-8.3h2.1v8.2q0 2.9 2.4 2.9 2.4 0 3.3-1.9v-9.2h2.1v12.7zm10.7 0.2q-2.6 0-4.2-1.7-1.7-1.7-1.7-4.5v-0.4q0-1.9 0.8-3.3 0.7-1.5 2-2.4 1.3-0.8 2.8-0.8 2.5 0 3.8 1.6 1.4 1.6 1.4 4.7v0.9h-8.6q0.1 1.9 1.1 3 1.1 1.2 2.7 1.2 1.1 0 1.9-0.5 0.8-0.5 1.4-1.2l1.3 1q-1.6 2.4-4.7 2.4zm-0.3-11.3q-1.3 0-2.2 0.9-0.9 1-1.1 2.7h6.3v-0.2q-0.1-1.6-0.9-2.5-0.8-0.9-2.1-0.9zm15.1 7.7q0-0.8-0.7-1.3-0.6-0.5-2.3-0.9-1.6-0.3-2.6-0.8-1-0.5-1.4-1.2-0.5-0.7-0.5-1.6 0-1.6 1.3-2.6 1.4-1.1 3.4-1.1 2.2 0 3.5 1.1 1.3 1.1 1.3 2.8h-2.1q0-0.8-0.8-1.5-0.7-0.6-1.9-0.6-1.2 0-1.8 0.5-0.7 0.5-0.7 1.3 0 0.8 0.6 1.2 0.6 0.4 2.2 0.8 1.7 0.3 2.7 0.8 1 0.5 1.5 1.3 0.5 0.7 0.5 1.7 0 1.7-1.4 2.7-1.4 1-3.5 1-1.6 0-2.7-0.5-1.2-0.5-1.9-1.5-0.6-1-0.6-2.1h2.1q0.1 1.1 0.9 1.7 0.8 0.7 2.2 0.7 1.2 0 1.9-0.5 0.8-0.5 0.8-1.4zm12.4 0q0-0.8-0.7-1.3-0.7-0.5-2.3-0.9-1.7-0.3-2.6-0.8-1-0.5-1.5-1.2-0.4-0.7-0.4-1.6 0-1.6 1.3-2.6 1.3-1.1 3.4-1.1 2.1 0 3.5 1.1 1.3 1.1 1.3 2.8h-2.2q0-0.8-0.7-1.5-0.8-0.6-1.9-0.6-1.2 0-1.9 0.5-0.6 0.5-0.6 1.3 0 0.8 0.6 1.2 0.6 0.4 2.2 0.8 1.6 0.3 2.7 0.8 1 0.5 1.4 1.3 0.5 0.7 0.5 1.7 0 1.7-1.3 2.7-1.4 1-3.6 1-1.5 0-2.6-0.5-1.2-0.5-1.9-1.5-0.6-1-0.6-2.1h2.1q0.1 1.1 0.9 1.7 0.8 0.7 2.1 0.7 1.3 0 2-0.5 0.8-0.5 0.8-1.4z"/>
	<path id="Layer" class="s6" d="m222.4 215.4c0 7.5-10.4 15-10.4 15 0 0-10.4-7.5-10.4-15 0-4.3 3.3-5.8 5-5.8 3.6 0 5.4 3 5.4 3 0 0 1.8-3 5.4-3 1.7 0 5 1.5 5 5.8z"/>
	<path id="Layer" class="s7" d="m222.9 160.2c0 3.3-2.9 4.8-4.9 4.8-2.2 0-3.8-1-4.8-1.8 0.1 2.7 0.8 4.6 3.6 6.1h-9.3c2.8-1.5 3.5-3.4 3.6-6.1-1 0.8-2.6 1.8-4.8 1.8-2 0-4.9-1.5-4.9-4.8 0-6.1 4.3-4.4 10.8-14.6 6.4 10.2 10.7 8.5 10.7 14.6z"/>
	<path id="Layer copy" class="s7" d="m151.9 222.2c0 3.3-2.9 4.8-4.9 4.8-2.2 0-3.8-1-4.8-1.8 0.1 2.7 0.8 4.6 3.6 6.1h-9.3c2.8-1.5 3.5-3.4 3.6-6.1-1 0.8-2.6 1.8-4.8 1.8-2 0-4.9-1.5-4.9-4.8 0-6.1 4.3-4.4 10.8-14.6 6.4 10.2 10.7 8.5 10.7 14.6z"/>
	<path id="Layer copy 5" class="s7" d="m151.8 159.1c0 1.3-0.4 2.6-1.3 3.6-0.8 1-2 1.6-3.3 1.9-1.2 0.2-2.6 0-3.7-0.7-1.1-0.6-2-1.6-2.5-2.9 0 3.7 0.3 6.2 3.7 8h-9.4c3.4-1.8 3.7-4.3 3.7-8-0.8 2.1-2.8 3.5-5 3.7-2.2 0.1-4.3-1.2-5.3-3.2-0.9-2-0.6-4.4 0.8-6.1 1.5-1.6 3.8-2.3 5.9-1.6-1.2-1.7-1.3-4-0.4-5.8 1-1.8 2.9-3 5-3 2.1 0 4 1.2 4.9 3 1 1.8 0.9 4.1-0.3 5.8 0.8-0.3 1.7-0.4 2.6-0.2 0.8 0.1 1.6 0.5 2.3 1 0.7 0.5 1.3 1.2 1.7 2 0.4 0.8 0.6 1.6 0.6 2.5z"/>
	<path id="7" class="s7" d="m121.3 148.9v1.9l-6.6 15.2h-3.6l6.6-14.3h-8.5v-2.8z"/>
	<path id="K" class="s7" d="m189.8 166l-4.4-6.8-1.9 1.9v4.9h-3.5v-17.1h3.5v7.8l1.6-2.1 4.3-5.7h4.4l-6.1 7.6 6.2 9.5z"/>
	<path id="K" class="s7" d="m118.8 228l-4.4-6.8-1.9 1.9v4.9h-3.5v-17.1h3.5v7.8l1.6-2.1 4.3-5.7h4.4l-6.1 7.6 6.2 9.5z"/>
	<path id="K" class="s6" d="m189.8 228l-4.4-6.8-1.9 1.9v4.9h-3.5v-17.1h3.5v7.8l1.6-2.1 4.3-5.7h4.4l-6.1 7.6 6.2 9.5z"/>
	<path id="Shape 6" class="s0" d="m7.3 122.9v-3l218.6 0.9v3z"/>
	<path id="Answer" fill-rule="evenodd" class="s0" d="m14 36l-1.6-4.5h-7.1l-1.7 4.5h-2.3l6.5-17.1h2l6.5 17.1zm-5.2-14.3l-2.9 8h5.8zm9.5 1.6h2.1v1.6q1.5-1.8 3.8-1.8 4 0 4.1 4.5v8.4h-2.2v-8.4q0-1.4-0.6-2-0.6-0.7-1.9-0.7-1.1 0-1.9 0.6-0.8 0.5-1.2 1.4v9.1h-2.2zm20.6 9.3q0-0.9-0.6-1.4-0.7-0.5-2.3-0.8-1.7-0.4-2.7-0.8-0.9-0.5-1.4-1.2-0.4-0.7-0.4-1.6 0-1.6 1.3-2.7 1.3-1.1 3.3-1.1 2.2 0 3.5 1.2 1.4 1.1 1.4 2.8h-2.2q0-0.9-0.8-1.5-0.7-0.7-1.9-0.7-1.1 0-1.8 0.5-0.7 0.6-0.7 1.4 0 0.8 0.6 1.2 0.7 0.4 2.3 0.7 1.6 0.4 2.6 0.9 1 0.5 1.5 1.2 0.5 0.7 0.5 1.7 0 1.7-1.4 2.8-1.3 1-3.5 1-1.5 0-2.7-0.5-1.1-0.6-1.8-1.5-0.7-1-0.7-2.1h2.2q0.1 1 0.9 1.7 0.8 0.6 2.1 0.6 1.2 0 2-0.5 0.7-0.5 0.7-1.3zm13.2-9.3l3.1 9.7 2.4-9.7h2.2l-3.7 12.7h-1.8l-3.1-9.6-3 9.6h-1.7l-3.7-12.7h2.1l2.5 9.5 3-9.5zm15.1 12.9q-2.6 0-4.2-1.7-1.6-1.7-1.6-4.5v-0.4q0-1.9 0.7-3.4 0.7-1.5 2-2.3 1.3-0.9 2.8-0.9 2.5 0 3.9 1.7 1.3 1.6 1.3 4.6v0.9h-8.6q0.1 1.9 1.1 3.1 1.1 1.1 2.7 1.1 1.1 0 1.9-0.4 0.8-0.5 1.4-1.3l1.4 1q-1.6 2.5-4.8 2.5zm-0.3-11.4q-1.3 0-2.2 1-0.9 0.9-1.1 2.7h6.4v-0.2q-0.1-1.7-0.9-2.6-0.8-0.9-2.2-0.9zm13.9-1.6v2q-0.5-0.1-1.1-0.1-2.1 0-2.9 1.9v9h-2.2v-12.7h2.1l0.1 1.4q1-1.7 3-1.7 0.6 0 1 0.2z"/>
	<path id="Guess" fill-rule="evenodd" class="s0" d="m21.6 89.5v6.3q-0.9 1.2-2.4 1.8-1.6 0.6-3.7 0.6-2 0-3.7-0.9-1.6-1-2.5-2.8-0.8-1.8-0.9-4.2v-1.5q0-3.9 1.8-6 1.8-2.1 5.1-2.1 2.7 0 4.3 1.4 1.6 1.3 2 3.8h-2.3q-0.6-3.3-4-3.3-2.3 0-3.4 1.5-1.2 1.6-1.2 4.6v1.4q0 2.9 1.3 4.6 1.3 1.7 3.6 1.7 1.2 0 2.2-0.3 0.9-0.3 1.5-0.9v-3.9h-3.9v-1.8zm11.3 8.5l-0.1-1.3q-1.2 1.5-3.7 1.5-2 0-3.1-1.1-1-1.2-1-3.5v-8.3h2.1v8.2q0 2.9 2.4 2.9 2.4 0 3.3-1.9v-9.2h2.1v12.7zm10.7 0.2q-2.6 0-4.2-1.7-1.7-1.7-1.7-4.5v-0.4q0-1.9 0.8-3.3 0.7-1.5 2-2.4 1.3-0.8 2.8-0.8 2.5 0 3.8 1.6 1.4 1.6 1.4 4.7v0.9h-8.6q0.1 1.9 1.1 3 1.1 1.2 2.7 1.2 1.1 0 1.9-0.5 0.8-0.5 1.4-1.2l1.3 1q-1.6 2.4-4.7 2.4zm-0.3-11.3q-1.3 0-2.2 0.9-0.9 1-1.1 2.7h6.3v-0.2q-0.1-1.6-0.9-2.5-0.8-0.9-2.1-0.9zm15.1 7.7q0-0.8-0.7-1.3-0.6-0.5-2.3-0.9-1.6-0.3-2.6-0.8-1-0.5-1.4-1.2-0.5-0.7-0.5-1.6 0-1.6 1.3-2.6 1.4-1.1 3.4-1.1 2.2 0 3.5 1.1 1.3 1.1 1.3 2.8h-2.1q0-0.8-0.8-1.5-0.7-0.6-1.9-0.6-1.2 0-1.8 0.5-0.7 0.5-0.7 1.3 0 0.8 0.6 1.2 0.6 0.4 2.2 0.8 1.7 0.3 2.7 0.8 1 0.5 1.5 1.3 0.5 0.7 0.5 1.7 0 1.7-1.4 2.7-1.4 1-3.5 1-1.6 0-2.7-0.5-1.2-0.5-1.9-1.5-0.6-1-0.6-2.1h2.1q0.1 1.1 0.9 1.7 0.8 0.7 2.2 0.7 1.2 0 1.9-0.5 0.8-0.5 0.8-1.4zm12.4 0q0-0.8-0.7-1.3-0.7-0.5-2.3-0.9-1.7-0.3-2.6-0.8-1-0.5-1.5-1.2-0.4-0.7-0.4-1.6 0-1.6 1.3-2.6 1.3-1.1 3.4-1.1 2.1 0 3.5 1.1 1.3 1.1 1.3 2.8h-2.2q0-0.8-0.7-1.5-0.8-0.6-1.9-0.6-1.2 0-1.9 0.5-0.6 0.5-0.6 1.3 0 0.8 0.6 1.2 0.6 0.4 2.2 0.8 1.6 0.3 2.7 0.8 1 0.5 1.4 1.3 0.5 0.7 0.5 1.7 0 1.7-1.3 2.7-1.4 1-3.6 1-1.5 0-2.6-0.5-1.2-0.5-1.9-1.5-0.6-1-0.6-2.1h2.1q0.1 1.1 0.9 1.7 0.8 0.7 2.1 0.7 1.3 0 2-0.5 0.8-0.5 0.8-1.4z"/>
	<path id="Shape 1" class="s0" d="m98 15c0-4.4 3.6-8 8-8h41c4.4 0 8 3.6 8 8v25c0 4.4-3.6 8-8 8h-41c-4.4 0-8-3.6-8-8z"/>
	<path id="Shape 1 copy" class="s0" d="m169 15c0-4.4 3.6-8 8-8h41c4.4 0 8 3.6 8 8v25c0 4.4-3.6 8-8 8h-41c-4.4 0-8-3.6-8-8z"/>
	<path id="Shape 1 copy 5" class="s8" d="m98 77c0-4.4 3.6-8 8-8h41c4.4 0 8 3.6 8 8v25c0 4.4-3.6 8-8 8h-41c-4.4 0-8-3.6-8-8z"/>
	<path id="Shape 1 copy 8" class="s8" d="m169 77c0-4.4 3.6-8 8-8h41c4.4 0 8 3.6 8 8v25c0 4.4-3.6 8-8 8h-41c-4.4 0-8-3.6-8-8z"/>
	<path id="Layer" class="s6" d="m222.4 85.4c0 7.5-10.4 15-10.4 15 0 0-10.4-7.5-10.4-15 0-4.3 3.3-5.8 5-5.8 3.6 0 5.4 3 5.4 3 0 0 1.8-3 5.4-3 1.7 0 5 1.5 5 5.8z"/>
	<path id="Layer" class="s7" d="m222.9 30.2c0 3.3-2.9 4.8-4.9 4.8-2.2 0-3.8-1-4.8-1.8 0.1 2.7 0.8 4.6 3.6 6.1h-9.3c2.8-1.5 3.5-3.4 3.6-6.1-1 0.8-2.6 1.8-4.8 1.8-2 0-4.9-1.5-4.9-4.8 0-6.1 4.3-4.4 10.8-14.6 6.4 10.2 10.7 8.5 10.7 14.6z"/>
	<path id="Shape 4" class="s5" d="m174 23c0-4.4 3.6-8 8-8h9c4.4 0 8 3.6 8 8v9c0 4.4-3.6 8-8 8h-9c-4.4 0-8-3.6-8-8z"/>
	<path id="Shape 6" class="s5" d="m103 85c0-4.4 3.6-8 8-8h9c4.4 0 8 3.6 8 8v9c0 4.4-3.6 8-8 8h-9c-4.4 0-8-3.6-8-8z"/>
	<path id="Shape 5" class="s5" d="m174 85c0-4.4 3.6-8 8-8h9c4.4 0 8 3.6 8 8v9c0 4.4-3.6 8-8 8h-9c-4.4 0-8-3.6-8-8z"/>
	<path id="Layer 3" class="s4" d="m126.3 80.4l-1.3-1.7 50.6-42.7 1.4 1.7z"/>
	<path id="Shape 3" class="s4" d="m187.1 76.4h-2l-0.2-36.2h2z"/>
	<path id="Layer copy 5" class="s7" d="m151.8 29.1c0 1.3-0.4 2.6-1.3 3.6-0.8 1-2 1.6-3.3 1.9-1.2 0.2-2.6 0-3.7-0.7-1.1-0.6-2-1.6-2.5-2.9 0 3.7 0.3 6.2 3.7 8h-9.4c3.4-1.8 3.7-4.3 3.7-8-0.8 2.1-2.8 3.5-5 3.7-2.2 0.1-4.3-1.2-5.3-3.2-0.9-2-0.6-4.4 0.8-6.1 1.5-1.6 3.8-2.3 5.9-1.6-1.2-1.7-1.3-4-0.4-5.8 1-1.8 2.9-3 5-3 2.1 0 4 1.2 4.9 3 1 1.8 0.9 4.1-0.3 5.8 0.8-0.3 1.7-0.4 2.6-0.2 0.8 0.1 1.6 0.5 2.3 1 0.7 0.5 1.3 1.2 1.7 2 0.4 0.8 0.6 1.6 0.6 2.5z"/>
	<path id="Layer copy" class="s6" d="m150.8 89c-3.1 2.1-6.1 6.3-7.8 11.2-1.7-4.9-4.7-9.1-7.7-11.2 3-2.1 6-6.3 7.7-11.2 1.7 4.9 4.7 9.1 7.8 11.2z"/>
	<path id="7" class="s7" d="m121.3 18.9v1.9l-6.6 15.2h-3.6l6.6-14.3h-8.5v-2.8z"/>
	<path id="K" class="s7" d="m189.8 36l-4.4-6.8-1.9 1.9v4.9h-3.5v-17.1h3.5v7.8l1.6-2.1 4.3-5.7h4.4l-6.1 7.6 6.2 9.5z"/>
	<path id="K" class="s6" d="m118.8 98l-4.4-6.8-1.9 1.9v4.9h-3.5v-17.1h3.5v7.8l1.6-2.1 4.3-5.7h4.4l-6.1 7.6 6.2 9.5z"/>
	<path id="K" class="s6" d="m189.8 98l-4.4-6.8-1.9 1.9v4.9h-3.5v-17.1h3.5v7.8l1.6-2.1 4.3-5.7h4.4l-6.1 7.6 6.2 9.5z"/>
</svg>