<svg version="1.2" xmlns="http://www.w3.org/2000/svg" viewBox="0 0 476 475" width="476" height="475">
	<title>fresh</title>
	<style>
		.s0 { fill: none;stroke: #ffffff;stroke-width: 2 } 
		.s1 { fill: #0000ff } 
		.s2 { fill: #ffffff } 
		.s3 { fill: #000000 } 
		.s4 { fill: #ff0000 } 
		.s5 { fill: #ffd700 } 
		.s6 { fill: #cd7f32 } 
		.s7 { fill: #c0c0c0 } 
	</style>
	<path id="Shape 14" class="s0" d="m9 366c0-6.6 5.4-12 12-12h260c6.6 0 12 5.4 12 12v90c0 6.6-5.4 12-12 12h-260c-6.6 0-12-5.4-12-12z"/>
	<path id="Shape 12" class="s1" d="m11 411c0-8.8 7.2-16 16-16h62c8.8 0 16 7.2 16 16v40c0 8.8-7.2 16-16 16h-62c-8.8 0-16-7.2-16-16z"/>
	<path id="Shape 7" class="s2" d="m19 413c0-5.5 4.5-10 10-10h58c5.5 0 10 4.5 10 10v36c0 5.5-4.5 10-10 10h-58c-5.5 0-10-4.5-10-10z"/>
	<path id="Shape 8" class="s2" d="m113 413c0-5.5 4.5-10 10-10h58c5.5 0 10 4.5 10 10v36c0 5.5-4.5 10-10 10h-58c-5.5 0-10-4.5-10-10z"/>
	<path id="Shape 9" class="s2" d="m207 413c0-5.5 4.5-10 10-10h58c5.5 0 10 4.5 10 10v36c0 5.5-4.5 10-10 10h-58c-5.5 0-10-4.5-10-10z"/>
	<path id="Shape 10" class="s2" d="m302 413c0-5.5 4.5-10 10-10h58c5.5 0 10 4.5 10 10v36c0 5.5-4.5 10-10 10h-58c-5.5 0-10-4.5-10-10z"/>
	<path id="Shape 11" class="s2" d="m396 413c0-5.5 4.5-10 10-10h58c5.5 0 10 4.5 10 10v36c0 5.5-4.5 10-10 10h-58c-5.5 0-10-4.5-10-10z"/>
	<path id="suit2" class="s3" d="m188.3 430.3c0.1 3.2-3.3 4.2-5.3 2.5l1.8 4.2h-5.3l1.8-4.2c-2 1.8-5.2 0.7-5.3-2.5-0.1-3.6 6.1-8.2 6.1-8.2 0 0 6.1 4.4 6.2 8.2zm-28.1-8c1.8 0 3.2 1.4 3.2 3.1 0 0.8-0.3 1.5-0.7 2q0.2 0 0.4 0c1.8 0 3.2 1.4 3.2 3.2 0 1.8-1.4 3.2-3.2 3.2-0.7 0-1.4-0.2-2-0.7l1.7 4h-5.3l1.7-3.9c-0.6 0.4-1.2 0.6-2 0.6-1.7 0-3.2-1.4-3.2-3.2 0-1.8 1.5-3.2 3.2-3.2q0.2 0 0.4 0c-0.4-0.5-0.6-1.2-0.6-2 0-1.7 1.4-3.1 3.2-3.1z"/>
	<path id="suit1" class="s4" d="m177.7 417.7c0.2 4-6.2 6.9-6.8 9.1-0.6-2.4-6.7-4.9-6.8-9.1-0.2-4.1 4.8-5 6.8-1.6 0.8-1.4 2.1-2.1 3.3-2.1 1.8 0 3.5 1.3 3.5 3.7zm-0.6 22.8l-6.2 7.6-6.2-7.6 6.2-7.6z"/>
	<path id="suit2 copy" class="s3" d="m94.3 430.3c0.1 3.2-3.3 4.2-5.3 2.5l1.8 4.2h-5.3l1.8-4.2c-2 1.8-5.2 0.7-5.3-2.5-0.1-3.6 6.1-8.2 6.1-8.2 0 0 6.1 4.4 6.2 8.2zm-28.1-8c1.8 0 3.2 1.4 3.2 3.1 0 0.8-0.3 1.5-0.7 2q0.2 0 0.4 0c1.8 0 3.2 1.4 3.2 3.2 0 1.8-1.4 3.2-3.2 3.2-0.7 0-1.4-0.2-2-0.7l1.7 4h-5.3l1.7-3.9c-0.6 0.4-1.2 0.6-2 0.6-1.7 0-3.2-1.4-3.2-3.2 0-1.8 1.5-3.2 3.2-3.2q0.2 0 0.4 0c-0.4-0.5-0.6-1.2-0.6-2 0-1.7 1.4-3.1 3.2-3.1z"/>
	<path id="suit1 copy" class="s4" d="m83.7 417.7c0.2 4-6.2 6.9-6.8 9.1-0.6-2.4-6.7-4.9-6.8-9.1-0.2-4.1 4.8-5 6.8-1.6 0.8-1.4 2.1-2.1 3.3-2.1 1.8 0 3.5 1.3 3.5 3.7zm-0.6 22.8l-6.2 7.6-6.2-7.6 6.2-7.6z"/>
	<path id="suit2 copy 2" class="s3" d="m282.3 429.3c0.1 3.2-3.3 4.2-5.3 2.5l1.8 4.2h-5.3l1.8-4.2c-2 1.8-5.2 0.7-5.3-2.5-0.1-3.6 6.1-8.2 6.1-8.2 0 0 6.1 4.4 6.2 8.2zm-28.1-8c1.8 0 3.2 1.4 3.2 3.1 0 0.8-0.3 1.5-0.7 2q0.2 0 0.4 0c1.8 0 3.2 1.4 3.2 3.2 0 1.8-1.4 3.2-3.2 3.2-0.7 0-1.4-0.2-2-0.7l1.7 4h-5.3l1.7-3.9c-0.6 0.4-1.2 0.6-2 0.6-1.7 0-3.2-1.4-3.2-3.2 0-1.8 1.5-3.2 3.2-3.2q0.2 0 0.4 0c-0.4-0.5-0.6-1.2-0.6-2 0-1.7 1.4-3.1 3.2-3.1z"/>
	<path id="suit1 copy 2" class="s4" d="m271.7 416.7c0.2 4-6.2 6.9-6.8 9.1-0.6-2.4-6.7-4.9-6.8-9.1-0.2-4.1 4.8-5 6.8-1.6 0.8-1.4 2.1-2.1 3.3-2.1 1.8 0 3.5 1.3 3.5 3.7zm-0.6 22.8l-6.2 7.6-6.2-7.6 6.2-7.6z"/>
	<path id="suit2 copy 3" class="s3" d="m377.3 429.3c0.1 3.2-3.3 4.2-5.3 2.5l1.8 4.2h-5.3l1.8-4.2c-2 1.8-5.2 0.7-5.3-2.5-0.1-3.6 6.1-8.2 6.1-8.2 0 0 6.1 4.4 6.2 8.2zm-28.1-8c1.8 0 3.2 1.4 3.2 3.1 0 0.8-0.3 1.5-0.7 2q0.2 0 0.4 0c1.8 0 3.2 1.4 3.2 3.2 0 1.8-1.4 3.2-3.2 3.2-0.7 0-1.4-0.2-2-0.7l1.7 4h-5.3l1.7-3.9c-0.6 0.4-1.2 0.6-2 0.6-1.7 0-3.2-1.4-3.2-3.2 0-1.8 1.5-3.2 3.2-3.2q0.2 0 0.4 0c-0.4-0.5-0.6-1.2-0.6-2 0-1.7 1.4-3.1 3.2-3.1z"/>
	<path id="suit1 copy 3" class="s4" d="m366.7 416.7c0.2 4-6.2 6.9-6.8 9.1-0.6-2.4-6.7-4.9-6.8-9.1-0.2-4.1 4.8-5 6.8-1.6 0.8-1.4 2.1-2.1 3.3-2.1 1.8 0 3.5 1.3 3.5 3.7zm-0.6 22.8l-6.2 7.6-6.2-7.6 6.2-7.6z"/>
	<path id="suit2 copy 4" class="s3" d="m471.3 429.3c0.1 3.2-3.3 4.2-5.3 2.5l1.8 4.2h-5.3l1.8-4.2c-2 1.8-5.2 0.7-5.3-2.5-0.1-3.6 6.1-8.2 6.1-8.2 0 0 6.1 4.4 6.2 8.2zm-28.1-8c1.8 0 3.2 1.4 3.2 3.1 0 0.8-0.3 1.5-0.7 2q0.2 0 0.4 0c1.8 0 3.2 1.4 3.2 3.2 0 1.8-1.4 3.2-3.2 3.2-0.7 0-1.4-0.2-2-0.7l1.7 4h-5.3l1.7-3.9c-0.6 0.4-1.2 0.6-2 0.6-1.7 0-3.2-1.4-3.2-3.2 0-1.8 1.5-3.2 3.2-3.2q0.2 0 0.4 0c-0.4-0.5-0.6-1.2-0.6-2 0-1.7 1.4-3.1 3.2-3.1z"/>
	<path id="suit1 copy 4" class="s4" d="m460.7 416.7c0.2 4-6.2 6.9-6.8 9.1-0.6-2.4-6.7-4.9-6.8-9.1-0.2-4.1 4.8-5 6.8-1.6 0.8-1.4 2.1-2.1 3.3-2.1 1.8 0 3.5 1.3 3.5 3.7zm-0.6 22.8l-6.2 7.6-6.2-7.6 6.2-7.6z"/>
	<path id="?" class="s3" aria-label="?"  d="m44.3 435.4h-4.4q0-2.4 0.6-3.9 0.6-1.4 2.1-2.7 1.6-1.4 2.1-2.3 0.5-0.8 0.5-1.8 0-2.9-2.7-2.9-1.2 0-2 0.8-0.7 0.8-0.8 2.1h-4.9q0-3.2 2.1-5.1 2.1-1.8 5.6-1.8 3.7 0 5.7 1.7 2 1.8 2 5 0 1.4-0.7 2.7-0.6 1.3-2.3 2.9l-1.3 1.3q-1.3 1.2-1.5 2.9zm-4.9 5.3q0-1.2 0.8-1.9 0.8-0.8 2-0.8 1.2 0 2 0.8 0.7 0.7 0.7 1.9 0 1.1-0.7 1.8-0.8 0.8-2 0.8-1.3 0-2-0.8-0.8-0.7-0.8-1.8z"/>
	<path id="? copy" class="s3" aria-label="?"  d="m138.3 435.4h-4.4q0-2.4 0.6-3.9 0.6-1.4 2.1-2.7 1.6-1.4 2.1-2.3 0.5-0.8 0.5-1.8 0-2.9-2.7-2.9-1.2 0-2 0.8-0.7 0.8-0.8 2.1h-4.9q0-3.2 2.1-5.1 2.1-1.8 5.6-1.8 3.7 0 5.7 1.7 2 1.8 2 5 0 1.4-0.7 2.7-0.6 1.3-2.3 2.9l-1.3 1.3q-1.3 1.2-1.5 2.9zm-4.9 5.3q0-1.2 0.8-1.9 0.8-0.8 2-0.8 1.2 0 2 0.8 0.7 0.7 0.7 1.9 0 1.1-0.7 1.8-0.8 0.8-2 0.8-1.3 0-2-0.8-0.8-0.7-0.8-1.8z"/>
	<path id="? copy 2" class="s3" aria-label="?"  d="m232.3 436.4h-4.4q0-2.4 0.6-3.9 0.6-1.4 2.1-2.7 1.6-1.4 2.1-2.3 0.5-0.8 0.5-1.8 0-2.9-2.7-2.9-1.2 0-2 0.8-0.7 0.8-0.8 2.1h-4.9q0-3.2 2.1-5.1 2.1-1.8 5.6-1.8 3.7 0 5.7 1.7 2 1.8 2 5 0 1.4-0.7 2.7-0.6 1.3-2.3 2.9l-1.3 1.3q-1.3 1.2-1.5 2.9zm-4.9 5.3q0-1.2 0.8-1.9 0.8-0.8 2-0.8 1.2 0 2 0.8 0.7 0.7 0.7 1.9 0 1.1-0.7 1.8-0.8 0.8-2 0.8-1.3 0-2-0.8-0.8-0.7-0.8-1.8z"/>
	<path id="? copy 3" class="s3" aria-label="?"  d="m327.3 435.4h-4.4q0-2.4 0.6-3.9 0.6-1.4 2.1-2.7 1.6-1.4 2.1-2.3 0.5-0.8 0.5-1.8 0-2.9-2.7-2.9-1.2 0-2 0.8-0.7 0.8-0.8 2.1h-4.9q0-3.2 2.1-5.1 2.1-1.8 5.6-1.8 3.7 0 5.7 1.7 2 1.8 2 5 0 1.4-0.7 2.7-0.6 1.3-2.3 2.9l-1.3 1.3q-1.3 1.2-1.5 2.9zm-4.9 5.3q0-1.2 0.8-1.9 0.8-0.8 2-0.8 1.2 0 2 0.8 0.7 0.7 0.7 1.9 0 1.1-0.7 1.8-0.8 0.8-2 0.8-1.3 0-2-0.8-0.8-0.7-0.8-1.8z"/>
	<path id="? copy 4" class="s3" aria-label="?"  d="m421.3 435.4h-4.4q0-2.4 0.6-3.9 0.6-1.4 2.1-2.7 1.6-1.4 2.1-2.3 0.5-0.8 0.5-1.8 0-2.9-2.7-2.9-1.2 0-2 0.8-0.7 0.8-0.8 2.1h-4.9q0-3.2 2.1-5.1 2.1-1.8 5.6-1.8 3.7 0 5.7 1.7 2 1.8 2 5 0 1.4-0.7 2.7-0.6 1.3-2.3 2.9l-1.3 1.3q-1.3 1.2-1.5 2.9zm-4.9 5.3q0-1.2 0.8-1.9 0.8-0.8 2-0.8 1.2 0 2 0.8 0.7 0.7 0.7 1.9 0 1.1-0.7 1.8-0.8 0.8-2 0.8-1.3 0-2-0.8-0.8-0.7-0.8-1.8z"/>
	<path id="Gold" fill-rule="evenodd" class="s5" d="m180.1 280.7q2 0.3 3.2 0.7 0.6 0.2 1.1 0.5c0.2 0.2 0.5 0.6 0.6 1q0 1.3-0.1 2.6h2.3q0-1-0.1-1.9l2.4-0.7c0.5 9.1-2.7 18.4-9.6 24.6l-1.4-2.5q0.6-0.5 1.1-1.1-0.7-0.7-1.6-1.3-1.7 1.7-3.8 2.6c-1.9 1.6-0.7 2.6 2.1 3.2-5.1 0.9-3.4 5.4 1.2 8q0.3 0 0.5 0 1.6 0.3 2.6 0.6c0.3 0.1 0.6 0.2 0.8 0.4 0.3 0.2 0.6 0.5 0.6 1 0 0.5-0.3 0.8-0.6 1-0.2 0.1-0.5 0.3-0.8 0.4q-1 0.3-2.6 0.5c-2.1 0.3-4.9 0.5-8 0.5-3.1 0-6-0.2-8.1-0.5q-1.5-0.2-2.5-0.5c-0.3-0.1-0.6-0.3-0.9-0.4-0.2-0.2-0.5-0.5-0.5-1 0-0.5 0.3-0.8 0.5-1 0.3-0.2 0.6-0.3 0.9-0.4q1-0.3 2.5-0.6 0.3 0 0.6 0c4.6-2.6 6.3-7.1 1.2-8 2.7-0.6 4-1.6 2-3.2q-2-0.9-3.8-2.6-0.9 0.7-1.6 1.4 0.5 0.5 1 1l-1.3 2.5c-6.6-6.4-10.2-15.4-9.5-24.6l2.3 0.6q0 1 0 2h2.2q-0.1-1.3-0.1-2.6h0.1c0-0.4 0.3-0.8 0.6-1q0.4-0.3 1-0.5 1.3-0.4 3.2-0.7c2.7-0.5 6.2-0.7 10.2-0.7 3.9 0 7.5 0.2 10.1 0.7zm-20 1.6c-1.3 0.1-2.3 0.4-2.9 0.6q-0.1 0.1-0.2 0.1 0.1 0.1 0.2 0.1c0.6 0.2 1.6 0.5 2.9 0.7 2.5 0.4 6 0.6 9.9 0.6 3.9 0 7.4-0.2 9.9-0.6 1.2-0.2 2.2-0.5 2.9-0.7q0.1 0 0.2-0.1-0.1 0-0.2-0.1c-0.7-0.2-1.7-0.5-2.9-0.6-2.5-0.4-6-0.7-9.9-0.7-3.9 0-7.4 0.3-9.9 0.7zm-1.6 19.8q0.7-0.8 1.6-1.6c-2.4-3.2-4.1-7.6-4.8-12.7h-2.4c0.5 5.3 2.2 10.3 5.6 14.3zm21.4-1.6q0.8 0.7 1.5 1.4c3.2-4 5.2-8.9 5.6-14.1h-2.3c-0.7 5-2.4 9.4-4.8 12.7z"/>
	<path id="Gold copy" fill-rule="evenodd" class="s5" d="m305.1 163.7q2 0.3 3.2 0.7 0.6 0.2 1.1 0.5c0.2 0.2 0.5 0.6 0.6 1q0 1.3-0.1 2.6h2.3q0-1-0.1-1.9l2.4-0.7c0.5 9.1-2.7 18.4-9.6 24.6l-1.4-2.5q0.6-0.5 1.1-1.1-0.7-0.7-1.6-1.3-1.7 1.7-3.8 2.6c-1.9 1.6-0.7 2.6 2.1 3.2-5.1 0.9-3.4 5.4 1.2 8q0.3 0 0.5 0 1.6 0.3 2.6 0.6c0.3 0.1 0.6 0.2 0.8 0.4 0.3 0.2 0.6 0.5 0.6 1 0 0.5-0.3 0.8-0.6 1-0.2 0.1-0.5 0.3-0.8 0.4q-1 0.3-2.6 0.5c-2.1 0.3-4.9 0.5-8 0.5-3.1 0-6-0.2-8.1-0.5q-1.5-0.2-2.5-0.5c-0.3-0.1-0.6-0.3-0.9-0.4-0.2-0.2-0.5-0.5-0.5-1 0-0.5 0.3-0.8 0.5-1 0.3-0.2 0.6-0.3 0.9-0.4q1-0.3 2.5-0.6 0.3 0 0.6 0c4.6-2.6 6.3-7.1 1.2-8 2.7-0.6 4-1.6 2-3.2q-2-0.9-3.8-2.6-0.9 0.7-1.6 1.4 0.5 0.5 1 1l-1.3 2.5c-6.6-6.4-10.2-15.4-9.5-24.6l2.3 0.6q0 1 0 2h2.2q-0.1-1.3-0.1-2.6h0.1c0-0.4 0.3-0.8 0.6-1q0.4-0.3 1-0.5 1.3-0.4 3.2-0.7c2.7-0.5 6.2-0.7 10.2-0.7 3.9 0 7.5 0.2 10.1 0.7zm-20 1.6c-1.3 0.1-2.3 0.4-2.9 0.6q-0.1 0.1-0.2 0.1 0.1 0.1 0.2 0.1c0.6 0.2 1.6 0.5 2.9 0.7 2.5 0.4 6 0.6 9.9 0.6 3.9 0 7.4-0.2 9.9-0.6 1.2-0.2 2.2-0.5 2.9-0.7q0.1 0 0.2-0.1-0.1 0-0.2-0.1c-0.7-0.2-1.7-0.5-2.9-0.6-2.5-0.4-6-0.7-9.9-0.7-3.9 0-7.4 0.3-9.9 0.7zm-1.6 19.8q0.7-0.8 1.6-1.6c-2.4-3.2-4.1-7.6-4.8-12.7h-2.4c0.5 5.3 2.2 10.3 5.6 14.3zm21.4-1.6q0.8 0.7 1.5 1.4c3.2-4 5.2-8.9 5.6-14.1h-2.3c-0.7 5-2.4 9.4-4.8 12.7z"/>
	<path id="Gold copy 2" fill-rule="evenodd" class="s5" d="m431.1 222.7q2 0.3 3.2 0.7 0.6 0.2 1.1 0.5c0.2 0.2 0.5 0.6 0.6 1q0 1.3-0.1 2.6h2.3q0-1-0.1-1.9l2.4-0.7c0.5 9.1-2.7 18.4-9.6 24.6l-1.4-2.5q0.6-0.5 1.1-1.1-0.7-0.7-1.6-1.3-1.7 1.7-3.8 2.6c-1.9 1.6-0.7 2.6 2.1 3.2-5.1 0.9-3.4 5.4 1.2 8q0.3 0 0.5 0 1.6 0.3 2.6 0.6c0.3 0.1 0.6 0.2 0.8 0.4 0.3 0.2 0.6 0.5 0.6 1 0 0.5-0.3 0.8-0.6 1-0.2 0.1-0.5 0.3-0.8 0.4q-1 0.3-2.6 0.5c-2.1 0.3-4.9 0.5-8 0.5-3.1 0-6-0.2-8.1-0.5q-1.5-0.2-2.5-0.5c-0.3-0.1-0.6-0.3-0.9-0.4-0.2-0.2-0.5-0.5-0.5-1 0-0.5 0.3-0.8 0.5-1 0.3-0.2 0.6-0.3 0.9-0.4q1-0.3 2.5-0.6 0.3 0 0.6 0c4.6-2.6 6.3-7.1 1.2-8 2.7-0.6 4-1.6 2-3.2q-2-0.9-3.8-2.6-0.9 0.7-1.6 1.4 0.5 0.5 1 1l-1.3 2.5c-6.6-6.4-10.2-15.4-9.5-24.6l2.3 0.6q0 1 0 2h2.2q-0.1-1.3-0.1-2.6h0.1c0-0.4 0.3-0.8 0.6-1q0.4-0.3 1-0.5 1.3-0.4 3.2-0.7c2.7-0.5 6.2-0.7 10.2-0.7 3.9 0 7.5 0.2 10.1 0.7zm-20 1.6c-1.3 0.1-2.3 0.4-2.9 0.6q-0.1 0.1-0.2 0.1 0.1 0.1 0.2 0.1c0.6 0.2 1.6 0.5 2.9 0.7 2.5 0.4 6 0.6 9.9 0.6 3.9 0 7.4-0.2 9.9-0.6 1.2-0.2 2.2-0.5 2.9-0.7q0.1 0 0.2-0.1-0.1 0-0.2-0.1c-0.7-0.2-1.7-0.5-2.9-0.6-2.5-0.4-6-0.7-9.9-0.7-3.9 0-7.4 0.3-9.9 0.7zm-1.6 19.8q0.7-0.8 1.6-1.6c-2.4-3.2-4.1-7.6-4.8-12.7h-2.4c0.5 5.3 2.2 10.3 5.6 14.3zm21.4-1.6q0.8 0.7 1.5 1.4c3.2-4 5.2-8.9 5.6-14.1h-2.3c-0.7 5-2.4 9.4-4.8 12.7z"/>
	<path id="Bronze" fill-rule="evenodd" class="s6" d="m305.4 280.7q2 0.3 3.3 0.7c0.4 0.2 0.7 0.3 1 0.6 0.3 0.2 0.6 0.5 0.6 1h0.1q0 1.3-0.1 2.6h2.3q0-1-0.1-2l2.4-0.7c0.6 9.4-2.7 18.9-9.7 25.2l-1.4-2.6q0.5-0.5 1.1-1.1-0.8-0.7-1.6-1.3-1.8 1.7-3.9 2.7c-2 1.6-0.8 2.6 2 3.2-5.2 0.9-3.4 5.5 1.3 8.2q0.3 0 0.5 0 1.6 0.3 2.6 0.6c0.4 0.1 0.7 0.2 0.9 0.4 0.3 0.2 0.6 0.5 0.6 1 0 0.5-0.3 0.8-0.6 1-0.2 0.2-0.5 0.3-0.9 0.4q-1 0.4-2.6 0.6c-2.1 0.3-5 0.5-8.2 0.5-3.2 0-6.1-0.2-8.2-0.5q-1.6-0.2-2.6-0.6c-0.3-0.1-0.6-0.2-0.9-0.4-0.2-0.2-0.6-0.5-0.6-1 0-0.5 0.4-0.8 0.6-1 0.3-0.2 0.6-0.3 0.9-0.4q1-0.3 2.6-0.6 0.3 0 0.5 0c4.7-2.7 6.5-7.3 1.3-8.2 2.8-0.6 4-1.6 2.1-3.2q-2.1-1-3.9-2.7-0.9 0.7-1.7 1.5 0.5 0.5 1.1 0.9l-1.4 2.6c-6.8-6.5-10.5-15.7-9.7-25.1l2.4 0.5q-0.1 1.1-0.1 2.1h2.3q-0.1-1.3-0.1-2.6h0.1c0-0.5 0.3-0.8 0.6-1 0.3-0.3 0.7-0.4 1.1-0.6q1.2-0.4 3.2-0.7c2.7-0.4 6.4-0.7 10.4-0.7 4.1 0 7.7 0.3 10.4 0.7zm-20.5 1.6c-1.3 0.2-2.3 0.4-3 0.7q-0.1 0-0.2 0.1 0.1 0 0.2 0.1c0.7 0.2 1.7 0.5 3 0.6 2.6 0.4 6.1 0.7 10.1 0.7 4 0 7.6-0.3 10.1-0.7 1.3-0.1 2.3-0.4 3-0.6q0.1-0.1 0.2-0.1-0.1-0.1-0.2-0.1c-0.7-0.3-1.7-0.5-3-0.7-2.5-0.4-6.1-0.6-10.1-0.6-4 0-7.5 0.2-10.1 0.6zm-1.6 20.3q0.7-0.9 1.7-1.6c-2.5-3.4-4.3-7.9-5-13h-2.4c0.4 5.4 2.2 10.5 5.7 14.6zm21.8-1.7q0.9 0.7 1.6 1.5c3.3-4.1 5.2-9.1 5.7-14.4h-2.3c-0.8 5.1-2.5 9.6-5 12.9z"/>
	<path id="Bronze copy" fill-rule="evenodd" class="s6" d="m180.4 221.7q2 0.3 3.3 0.7c0.4 0.2 0.7 0.3 1 0.6 0.3 0.2 0.6 0.5 0.6 1h0.1q0 1.3-0.1 2.6h2.3q0-1-0.1-2l2.4-0.7c0.6 9.4-2.7 18.9-9.7 25.2l-1.4-2.6q0.5-0.5 1.1-1.1-0.8-0.7-1.6-1.3-1.8 1.7-3.9 2.7c-2 1.6-0.8 2.6 2 3.2-5.2 0.9-3.4 5.5 1.3 8.2q0.3 0 0.5 0 1.6 0.3 2.6 0.6c0.4 0.1 0.7 0.2 0.9 0.4 0.3 0.2 0.6 0.5 0.6 1 0 0.5-0.3 0.8-0.6 1-0.2 0.2-0.5 0.3-0.9 0.4q-1 0.4-2.6 0.6c-2.1 0.3-5 0.5-8.2 0.5-3.2 0-6.1-0.2-8.2-0.5q-1.6-0.2-2.6-0.6c-0.3-0.1-0.6-0.2-0.9-0.4-0.2-0.2-0.6-0.5-0.6-1 0-0.5 0.4-0.8 0.6-1 0.3-0.2 0.6-0.3 0.9-0.4q1-0.3 2.6-0.6 0.3 0 0.5 0c4.7-2.7 6.5-7.3 1.3-8.2 2.8-0.6 4-1.6 2.1-3.2q-2.1-1-3.9-2.7-0.9 0.7-1.7 1.5 0.5 0.5 1.1 0.9l-1.4 2.6c-6.8-6.5-10.5-15.7-9.7-25.1l2.4 0.5q-0.1 1.1-0.1 2.1h2.3q-0.1-1.3-0.1-2.6h0.1c0-0.5 0.3-0.8 0.6-1 0.3-0.3 0.7-0.4 1.1-0.6q1.2-0.4 3.2-0.7c2.7-0.4 6.4-0.7 10.4-0.7 4.1 0 7.7 0.3 10.4 0.7zm-20.5 1.6c-1.3 0.2-2.3 0.4-3 0.7q-0.1 0-0.2 0.1 0.1 0 0.2 0.1c0.7 0.2 1.7 0.5 3 0.6 2.6 0.4 6.1 0.7 10.1 0.7 4 0 7.6-0.3 10.1-0.7 1.3-0.1 2.3-0.4 3-0.6q0.1-0.1 0.2-0.1-0.1-0.1-0.2-0.1c-0.7-0.3-1.7-0.5-3-0.7-2.5-0.4-6.1-0.6-10.1-0.6-4 0-7.5 0.2-10.1 0.6zm-1.6 20.3q0.7-0.9 1.7-1.6c-2.5-3.4-4.3-7.9-5-13h-2.4c0.4 5.4 2.2 10.5 5.7 14.6zm21.8-1.7q0.9 0.7 1.6 1.5c3.3-4.1 5.2-9.1 5.7-14.4h-2.3c-0.8 5.1-2.5 9.6-5 12.9z"/>
	<path id="Bronze copy 2" fill-rule="evenodd" class="s6" d="m431.4 163.7q2 0.3 3.3 0.7c0.4 0.2 0.7 0.3 1 0.6 0.3 0.2 0.6 0.5 0.6 1h0.1q0 1.3-0.1 2.6h2.3q0-1-0.1-2l2.4-0.7c0.6 9.4-2.7 18.9-9.7 25.2l-1.4-2.6q0.5-0.5 1.1-1.1-0.8-0.7-1.6-1.3-1.8 1.7-3.9 2.7c-2 1.6-0.8 2.6 2 3.2-5.2 0.9-3.4 5.5 1.3 8.2q0.3 0 0.5 0 1.6 0.3 2.6 0.6c0.4 0.1 0.7 0.2 0.9 0.4 0.3 0.2 0.6 0.5 0.6 1 0 0.5-0.3 0.8-0.6 1-0.2 0.2-0.5 0.3-0.9 0.4q-1 0.4-2.6 0.6c-2.1 0.3-5 0.5-8.2 0.5-3.2 0-6.1-0.2-8.2-0.5q-1.6-0.2-2.6-0.6c-0.3-0.1-0.6-0.2-0.9-0.4-0.2-0.2-0.6-0.5-0.6-1 0-0.5 0.4-0.8 0.6-1 0.3-0.2 0.6-0.3 0.9-0.4q1-0.3 2.6-0.6 0.3 0 0.5 0c4.7-2.7 6.5-7.3 1.3-8.2 2.8-0.6 4-1.6 2.1-3.2q-2.1-1-3.9-2.7-0.9 0.7-1.7 1.5 0.5 0.5 1.1 0.9l-1.4 2.6c-6.8-6.5-10.5-15.7-9.7-25.1l2.4 0.5q-0.1 1.1-0.1 2.1h2.3q-0.1-1.3-0.1-2.6h0.1c0-0.5 0.3-0.8 0.6-1 0.3-0.3 0.7-0.4 1.1-0.6q1.2-0.4 3.2-0.7c2.7-0.4 6.4-0.7 10.4-0.7 4.1 0 7.7 0.3 10.4 0.7zm-20.5 1.6c-1.3 0.2-2.3 0.4-3 0.7q-0.1 0-0.2 0.1 0.1 0 0.2 0.1c0.7 0.2 1.7 0.5 3 0.6 2.6 0.4 6.1 0.7 10.1 0.7 4 0 7.6-0.3 10.1-0.7 1.3-0.1 2.3-0.4 3-0.6q0.1-0.1 0.2-0.1-0.1-0.1-0.2-0.1c-0.7-0.3-1.7-0.5-3-0.7-2.5-0.4-6.1-0.6-10.1-0.6-4 0-7.5 0.2-10.1 0.6zm-1.6 20.3q0.7-0.9 1.7-1.6c-2.5-3.4-4.3-7.9-5-13h-2.4c0.4 5.4 2.2 10.5 5.7 14.6zm21.8-1.7q0.9 0.7 1.6 1.5c3.3-4.1 5.2-9.1 5.7-14.4h-2.3c-0.8 5.1-2.5 9.6-5 12.9z"/>
	<path id="silver2" fill-rule="evenodd" class="s7" d="m305.4 221.7q2 0.3 3.3 0.7c0.4 0.2 0.7 0.3 1 0.6 0.3 0.2 0.6 0.5 0.6 1h0.1q0 1.3-0.1 2.6h2.3q0-1-0.1-2l2.4-0.7c0.6 9.4-2.7 18.9-9.7 25.2l-1.4-2.6q0.5-0.5 1.1-1.1-0.8-0.7-1.6-1.3-1.8 1.7-3.9 2.7c-2 1.6-0.8 2.6 2 3.2-5.2 0.9-3.4 5.5 1.3 8.2q0.3 0 0.5 0 1.6 0.3 2.6 0.6c0.4 0.1 0.7 0.2 0.9 0.4 0.3 0.2 0.6 0.5 0.6 1 0 0.5-0.3 0.8-0.6 1-0.2 0.2-0.5 0.3-0.9 0.4q-1 0.4-2.6 0.6c-2.1 0.3-5 0.5-8.2 0.5-3.2 0-6.1-0.2-8.2-0.5q-1.6-0.2-2.6-0.6c-0.3-0.1-0.6-0.2-0.9-0.4-0.2-0.2-0.6-0.5-0.6-1 0-0.5 0.4-0.8 0.6-1 0.3-0.2 0.6-0.3 0.9-0.4q1-0.3 2.6-0.6 0.3 0 0.5 0c4.7-2.7 6.5-7.3 1.3-8.2 2.8-0.6 4-1.6 2.1-3.2q-2.1-1-3.9-2.7-0.9 0.7-1.7 1.5 0.5 0.5 1.1 0.9l-1.4 2.6c-6.8-6.5-10.5-15.7-9.7-25.1l2.4 0.5q-0.1 1.1-0.1 2.1h2.3q-0.1-1.3-0.1-2.6h0.1c0-0.5 0.3-0.8 0.6-1 0.3-0.3 0.7-0.4 1.1-0.6q1.2-0.4 3.2-0.7c2.7-0.4 6.4-0.7 10.4-0.7 4.1 0 7.7 0.3 10.4 0.7zm-20.5 1.6c-1.3 0.2-2.3 0.4-3 0.7q-0.1 0-0.2 0.1 0.1 0 0.2 0.1c0.7 0.2 1.7 0.5 3 0.6 2.6 0.4 6.1 0.7 10.1 0.7 4 0 7.6-0.3 10.1-0.7 1.3-0.1 2.3-0.4 3-0.6q0.1-0.1 0.2-0.1-0.1-0.1-0.2-0.1c-0.7-0.3-1.7-0.5-3-0.7-2.5-0.4-6.1-0.6-10.1-0.6-4 0-7.5 0.2-10.1 0.6zm-1.6 20.3q0.7-0.9 1.7-1.6c-2.5-3.4-4.3-7.9-5-13h-2.4c0.4 5.4 2.2 10.5 5.7 14.6zm21.8-1.7q0.9 0.7 1.6 1.5c3.3-4.1 5.2-9.1 5.7-14.4h-2.3c-0.8 5.1-2.5 9.6-5 12.9z"/>
	<path id="silver2 copy" fill-rule="evenodd" class="s7" d="m431.4 280.7q2 0.3 3.3 0.7c0.4 0.2 0.7 0.3 1 0.6 0.3 0.2 0.6 0.5 0.6 1h0.1q0 1.3-0.1 2.6h2.3q0-1-0.1-2l2.4-0.7c0.6 9.4-2.7 18.9-9.7 25.2l-1.4-2.6q0.5-0.5 1.1-1.1-0.8-0.7-1.6-1.3-1.8 1.7-3.9 2.7c-2 1.6-0.8 2.6 2 3.2-5.2 0.9-3.4 5.5 1.3 8.2q0.3 0 0.5 0 1.6 0.3 2.6 0.6c0.4 0.1 0.7 0.2 0.9 0.4 0.3 0.2 0.6 0.5 0.6 1 0 0.5-0.3 0.8-0.6 1-0.2 0.2-0.5 0.3-0.9 0.4q-1 0.4-2.6 0.6c-2.1 0.3-5 0.5-8.2 0.5-3.2 0-6.1-0.2-8.2-0.5q-1.6-0.2-2.6-0.6c-0.3-0.1-0.6-0.2-0.9-0.4-0.2-0.2-0.6-0.5-0.6-1 0-0.5 0.4-0.8 0.6-1 0.3-0.2 0.6-0.3 0.9-0.4q1-0.3 2.6-0.6 0.3 0 0.5 0c4.7-2.7 6.5-7.3 1.3-8.2 2.8-0.6 4-1.6 2.1-3.2q-2.1-1-3.9-2.7-0.9 0.7-1.7 1.5 0.5 0.5 1.1 0.9l-1.4 2.6c-6.8-6.5-10.5-15.7-9.7-25.1l2.4 0.5q-0.1 1.1-0.1 2.1h2.3q-0.1-1.3-0.1-2.6h0.1c0-0.5 0.3-0.8 0.6-1 0.3-0.3 0.7-0.4 1.1-0.6q1.2-0.4 3.2-0.7c2.7-0.4 6.4-0.7 10.4-0.7 4.1 0 7.7 0.3 10.4 0.7zm-20.5 1.6c-1.3 0.2-2.3 0.4-3 0.7q-0.1 0-0.2 0.1 0.1 0 0.2 0.1c0.7 0.2 1.7 0.5 3 0.6 2.6 0.4 6.1 0.7 10.1 0.7 4 0 7.6-0.3 10.1-0.7 1.3-0.1 2.3-0.4 3-0.6q0.1-0.1 0.2-0.1-0.1-0.1-0.2-0.1c-0.7-0.3-1.7-0.5-3-0.7-2.5-0.4-6.1-0.6-10.1-0.6-4 0-7.5 0.2-10.1 0.6zm-1.6 20.3q0.7-0.9 1.7-1.6c-2.5-3.4-4.3-7.9-5-13h-2.4c0.4 5.4 2.2 10.5 5.7 14.6zm21.8-1.7q0.9 0.7 1.6 1.5c3.3-4.1 5.2-9.1 5.7-14.4h-2.3c-0.8 5.1-2.5 9.6-5 12.9z"/>
	<path id="Bex" class="s2" aria-label="Bex"  d="m153.5 28h-7.9v-22.8l7.5 0.1q3.7 0 5.5 1.5 1.9 1.5 1.9 4.5 0 1.6-0.9 2.8-0.9 1.3-2.5 1.9 1.9 0.5 2.9 2 1.1 1.4 1.1 3.4 0 3.1-2 4.9-1.9 1.7-5.6 1.7zm0.1-10.6h-5v8.1h5q2.1 0 3.3-1 1.2-1.1 1.2-3 0-4.1-4.5-4.1zm-5-9.7v7.3h4.6q1.9 0 3.1-1 1.2-1 1.2-2.7 0-1.9-1.1-2.7-1.1-0.9-3.3-0.9zm23.5 20.6q-3.5 0-5.6-2.2-2.2-2.3-2.2-6.1v-0.5q0-2.5 1-4.5 0.9-2 2.7-3.1 1.7-1.1 3.7-1.1 3.3 0 5.1 2.2 1.9 2.1 1.9 6.2v1.2h-11.5q0.1 2.5 1.5 4 1.4 1.6 3.5 1.6 1.5 0 2.6-0.7 1.1-0.6 1.9-1.6l1.7 1.3q-2.1 3.3-6.3 3.3zm-0.4-15.1q-1.7 0-2.9 1.2-1.2 1.3-1.5 3.6h8.5v-0.2q-0.2-2.2-1.2-3.4-1.1-1.2-2.9-1.2zm12.3-2.1l3.7 6.2 3.7-6.2h3.4l-5.5 8.4 5.7 8.5h-3.4l-3.9-6.3-3.9 6.3h-3.3l5.7-8.5-5.6-8.4z"/>
	<path id="Rex" class="s2" aria-label="Rex"  d="m284.9 27l-4.9-9.2h-5.4v9.2h-3v-22.8l7.6 0.1q3.8 0 5.9 1.7 2 1.8 2 5.1 0 2.1-1.1 3.7-1.2 1.6-3.2 2.4l5.3 9.6v0.2zm-10.2-20.3v8.6h4.6q2.2 0 3.5-1.1 1.3-1.2 1.3-3.1 0-2.1-1.2-3.2-1.3-1.2-3.6-1.2zm23.2 20.6q-3.4 0-5.6-2.2-2.1-2.3-2.1-6.1v-0.5q0-2.5 0.9-4.5 1-2 2.7-3.1 1.7-1.1 3.8-1.1 3.3 0 5.1 2.2 1.8 2.1 1.8 6.2v1.2h-11.4q0 2.5 1.4 4 1.4 1.6 3.6 1.6 1.5 0 2.6-0.7 1-0.6 1.8-1.6l1.8 1.3q-2.1 3.3-6.4 3.3zm-0.3-15.1q-1.8 0-3 1.2-1.2 1.3-1.4 3.6h8.4v-0.2q-0.1-2.2-1.2-3.4-1-1.2-2.8-1.2zm12.2-2.1l3.7 6.2 3.8-6.2h3.4l-5.6 8.4 5.7 8.5h-3.3l-3.9-6.3-3.9 6.3h-3.4l5.7-8.5-5.5-8.4z"/>
	<path id="Lex" class="s2" aria-label="Lex"  d="m400.7 4.3v20.2h10.7v2.5h-13.8v-22.8zm20.8 23.1q-3.4 0-5.6-2.2-2.1-2.3-2.1-6.1v-0.5q0-2.5 0.9-4.5 1-2 2.7-3.1 1.7-1.1 3.7-1.1 3.3 0 5.2 2.2 1.8 2.1 1.8 6.2v1.2h-11.5q0.1 2.5 1.5 4 1.4 1.6 3.6 1.6 1.5 0 2.6-0.7 1-0.6 1.8-1.6l1.8 1.3q-2.1 3.3-6.4 3.3zm-0.4-15.1q-1.7 0-2.9 1.2-1.2 1.3-1.5 3.6h8.5v-0.2q-0.1-2.2-1.2-3.4-1-1.2-2.9-1.2zm12.3-2.1l3.7 6.2 3.8-6.2h3.3l-5.5 8.4 5.7 8.5h-3.3l-3.9-6.3-3.9 6.3h-3.4l5.7-8.5-5.5-8.4z"/>
	<path id="Flop" class="s2" aria-label="Flop"  d="m41.2 183.5v2.5h-9.6v10h-3v-22.8l14.1 0.1v2.4h-11.1v7.8zm7.9-11.5v24h-2.9v-24zm3.8 15.6v-0.2q0-2.5 1-4.5 1-2 2.7-3 1.8-1.1 4-1.1 3.5 0 5.6 2.4 2.1 2.4 2.1 6.3v0.2q0 2.5-0.9 4.5-1 1.9-2.7 3-1.8 1.1-4.1 1.1-3.4 0-5.5-2.4-2.2-2.4-2.2-6.3zm2.9 0.1q0 2.8 1.3 4.6 1.4 1.7 3.5 1.7 2.2 0 3.5-1.8 1.3-1.7 1.3-4.8 0-2.8-1.3-4.5-1.3-1.7-3.5-1.7-2.1 0-3.4 1.7-1.4 1.7-1.4 4.8zm30.4-0.2v0.2q0 3.9-1.7 6.3-1.8 2.3-4.8 2.3-3.1 0-4.9-1.9v8.1h-2.8v-23.4h2.6l0.1 1.9q1.8-2.2 4.9-2.2 3.1 0 4.9 2.3 1.7 2.3 1.7 6.4zm-2.9-0.1q0-2.9-1.2-4.5-1.2-1.7-3.3-1.7-2.6 0-4 2.4v8q1.3 2.4 4 2.4 2.1 0 3.3-1.7 1.2-1.6 1.2-4.9z"/>
	<path id="Flop copy" class="s2" aria-label="Flop"  d="m135.2 374.5v2.5h-9.6v10h-3v-22.8l14.1 0.1v2.4h-11.1v7.8zm7.9-11.5v24h-2.9v-24zm3.8 15.6v-0.2q0-2.5 1-4.5 1-2 2.7-3 1.8-1.1 4-1.1 3.5 0 5.6 2.4 2.1 2.4 2.1 6.3v0.2q0 2.5-0.9 4.5-1 1.9-2.7 3-1.8 1.1-4.1 1.1-3.4 0-5.5-2.4-2.2-2.4-2.2-6.3zm2.9 0.1q0 2.8 1.3 4.6 1.4 1.7 3.5 1.7 2.2 0 3.5-1.8 1.3-1.7 1.3-4.8 0-2.8-1.3-4.5-1.3-1.7-3.5-1.7-2.1 0-3.4 1.7-1.4 1.7-1.4 4.8zm30.4-0.2v0.2q0 3.9-1.7 6.3-1.8 2.3-4.8 2.3-3.1 0-4.9-1.9v8.1h-2.8v-23.4h2.6l0.1 1.9q1.8-2.2 4.9-2.2 3.1 0 4.9 2.3 1.7 2.3 1.7 6.4zm-2.9-0.1q0-2.9-1.2-4.5-1.2-1.7-3.3-1.7-2.6 0-4 2.4v8q1.3 2.4 4 2.4 2.1 0 3.3-1.7 1.2-1.6 1.2-4.9z"/>
	<path id="Turn" class="s2" aria-label="Turn"  d="m43.4 230.3v2.4h-7.4v20.3h-2.9v-20.3h-7.3v-2.5zm11.9 22.8l-0.1-1.7q-1.6 2-4.9 2-2.7 0-4.1-1.6-1.4-1.5-1.5-4.6v-11h2.9v10.9q0 3.9 3.2 3.9 3.3 0 4.4-2.5v-12.3h2.9v16.9zm15.3-17v2.7q-0.7-0.1-1.5-0.1-2.8 0-3.8 2.4v12h-2.9v-16.9h2.8l0.1 1.9q1.4-2.2 4-2.2 0.8 0 1.3 0.2zm2.6 0.1h2.8l0.1 2.1q1.9-2.4 5-2.4 5.4 0 5.4 6v11.2h-2.9v-11.2q0-1.8-0.8-2.7-0.8-0.9-2.6-0.9-1.4 0-2.4 0.8-1.1 0.7-1.7 2v12h-2.9z"/>
	<path id="Turn copy" class="s2" aria-label="Turn"  d="m326.4 363.3v2.4h-7.4v20.3h-2.9v-20.3h-7.3v-2.5zm11.9 22.8l-0.1-1.7q-1.6 2-4.9 2-2.7 0-4.1-1.6-1.4-1.5-1.5-4.6v-11h2.9v10.9q0 3.9 3.2 3.9 3.3 0 4.4-2.5v-12.3h2.9v16.9zm15.3-17v2.7q-0.7-0.1-1.5-0.1-2.8 0-3.8 2.4v12h-2.9v-16.9h2.8l0.1 1.9q1.4-2.2 4-2.2 0.8 0 1.3 0.2zm2.6 0.1h2.8l0.1 2.1q1.9-2.4 5-2.4 5.4 0 5.4 6v11.2h-2.9v-11.2q0-1.8-0.8-2.7-0.8-0.9-2.6-0.9-1.4 0-2.4 0.8-1.1 0.7-1.7 2v12h-2.9z"/>
	<path id="River" class="s2" aria-label="River"  d="m36.9 313l-4.9-9.2h-5.4v9.2h-3v-22.8l7.6 0.1q3.8 0 5.9 1.7 2 1.8 2 5.1 0 2.1-1.1 3.7-1.2 1.6-3.2 2.4l5.3 9.6v0.2zm-10.2-20.3v8.6h4.6q2.2 0 3.5-1.1 1.3-1.2 1.3-3.1 0-2.1-1.2-3.2-1.3-1.2-3.6-1.2zm19.3 3.4v16.9h-2.8v-16.9zm-3.2-4.5q0-0.7 0.5-1.2 0.4-0.5 1.2-0.5 0.9 0 1.3 0.5 0.5 0.5 0.5 1.2 0 0.7-0.5 1.2-0.4 0.5-1.3 0.5-0.8 0-1.2-0.5-0.5-0.5-0.5-1.2zm9.1 4.5l4.3 13 4.1-13h3l-6.1 16.9h-2.2l-6.1-16.9zm21 17.2q-3.4 0-5.6-2.2-2.1-2.3-2.1-6.1v-0.5q0-2.5 0.9-4.5 1-2 2.7-3.1 1.8-1.1 3.8-1.1 3.3 0 5.1 2.2 1.8 2.1 1.8 6.2v1.2h-11.4q0 2.5 1.4 4 1.4 1.6 3.6 1.6 1.5 0 2.6-0.7 1.1-0.6 1.8-1.6l1.8 1.3q-2.1 3.3-6.4 3.3zm-0.3-15.1q-1.8 0-3 1.2-1.1 1.3-1.4 3.6h8.4v-0.2q-0.1-2.2-1.1-3.4-1.1-1.2-2.9-1.2zm18.4-2.2v2.7q-0.6-0.1-1.4-0.1-2.8 0-3.8 2.4v12h-2.9v-16.9h2.8v1.9q1.5-2.2 4.1-2.2 0.8 0 1.2 0.2z"/>
	<path id="River" class="s2" aria-label="River"  d="m413.9 386l-4.9-9.2h-5.4v9.2h-3v-22.8h7.6q3.8 0 5.9 1.8 2 1.7 2 5.1 0 2.1-1.1 3.7-1.2 1.6-3.2 2.4l5.3 9.6v0.2zm-10.2-20.3v8.6h4.6q2.2 0 3.5-1.1 1.3-1.2 1.3-3.1 0-2.1-1.2-3.2-1.3-1.2-3.6-1.2zm19.3 3.4v16.9h-2.8v-16.9zm-3.2-4.5q0-0.7 0.5-1.2 0.4-0.5 1.2-0.5 0.9 0 1.3 0.5 0.5 0.5 0.5 1.2 0 0.7-0.5 1.2-0.4 0.4-1.3 0.4-0.8 0-1.2-0.4-0.5-0.5-0.5-1.2zm9.1 4.5l4.3 13 4.1-13h3l-6.1 16.9h-2.2l-6.1-16.9zm21 17.2q-3.4 0-5.6-2.2-2.1-2.3-2.1-6.1v-0.5q0-2.5 0.9-4.5 1-2 2.7-3.1 1.8-1.1 3.8-1.1 3.3 0 5.1 2.2 1.8 2.1 1.8 6.2v1.2h-11.4q0 2.5 1.4 4 1.4 1.6 3.6 1.6 1.5 0 2.6-0.7 1.1-0.6 1.8-1.6l1.8 1.3q-2.1 3.3-6.4 3.3zm-0.3-15.1q-1.8 0-3 1.2-1.1 1.3-1.4 3.6h8.4v-0.2q-0.1-2.2-1.1-3.4-1.1-1.2-2.9-1.2zm18.4-2.2v2.7q-0.6-0.1-1.4-0.1-2.8 0-3.8 2.4v12h-2.9v-16.9h2.8v1.9q1.5-2.2 4.1-2.2 0.8 0 1.2 0.2z"/>
	<path id="silver" fill-rule="evenodd" class="s7" d="m180.4 163.7q2 0.3 3.3 0.7c0.4 0.2 0.7 0.3 1 0.6 0.3 0.2 0.6 0.5 0.6 1h0.1q0 1.3-0.1 2.6h2.3q0-1-0.1-2l2.4-0.7c0.6 9.4-2.7 18.9-9.7 25.2l-1.4-2.6q0.5-0.5 1.1-1.1-0.8-0.7-1.6-1.3-1.8 1.7-3.9 2.7c-2 1.6-0.8 2.6 2 3.2-5.2 0.9-3.4 5.5 1.3 8.2q0.3 0 0.5 0 1.6 0.3 2.6 0.6c0.4 0.1 0.7 0.2 0.9 0.4 0.3 0.2 0.6 0.5 0.6 1 0 0.5-0.3 0.8-0.6 1-0.2 0.2-0.5 0.3-0.9 0.4q-1 0.4-2.6 0.6c-2.1 0.3-5 0.5-8.2 0.5-3.2 0-6.1-0.2-8.2-0.5q-1.6-0.2-2.6-0.6c-0.3-0.1-0.6-0.2-0.9-0.4-0.2-0.2-0.6-0.5-0.6-1 0-0.5 0.4-0.8 0.6-1 0.3-0.2 0.6-0.3 0.9-0.4q1-0.3 2.6-0.6 0.3 0 0.5 0c4.7-2.7 6.5-7.3 1.3-8.2 2.8-0.6 4-1.6 2.1-3.2q-2.1-1-3.9-2.7-0.9 0.7-1.7 1.5 0.5 0.5 1.1 0.9l-1.4 2.6c-6.8-6.5-10.5-15.7-9.7-25.1l2.4 0.5q-0.1 1.1-0.1 2.1h2.3q-0.1-1.3-0.1-2.6h0.1c0-0.5 0.3-0.8 0.6-1 0.3-0.3 0.7-0.4 1.1-0.6q1.2-0.4 3.2-0.7c2.7-0.4 6.4-0.7 10.4-0.7 4.1 0 7.7 0.3 10.4 0.7zm-20.5 1.6c-1.3 0.2-2.3 0.4-3 0.7q-0.1 0-0.2 0.1 0.1 0 0.2 0.1c0.7 0.2 1.7 0.5 3 0.6 2.6 0.4 6.1 0.7 10.1 0.7 4 0 7.6-0.3 10.1-0.7 1.3-0.1 2.3-0.4 3-0.6q0.1-0.1 0.2-0.1-0.1-0.1-0.2-0.1c-0.7-0.3-1.7-0.5-3-0.7-2.5-0.4-6.1-0.6-10.1-0.6-4 0-7.5 0.2-10.1 0.6zm-1.6 20.3q0.7-0.9 1.7-1.6c-2.5-3.4-4.3-7.9-5-13h-2.4c0.4 5.4 2.2 10.5 5.7 14.6zm21.8-1.7q0.9 0.7 1.6 1.5c3.3-4.1 5.2-9.1 5.7-14.4h-2.3c-0.8 5.1-2.5 9.6-5 12.9z"/>
	<path id="Shape 1" class="s2" d="m131 48c0-5.5 4.5-10 10-10h58c5.5 0 10 4.5 10 10v36c0 5.5-4.5 10-10 10h-58c-5.5 0-10-4.5-10-10z"/>
	<path id="Shape 2" class="s2" d="m382 48c0-5.5 4.5-10 10-10h58c5.5 0 10 4.5 10 10v36c0 5.5-4.5 10-10 10h-58c-5.5 0-10-4.5-10-10z"/>
	<path id="Shape 3" class="s2" d="m131 107c0-5.5 4.5-10 10-10h58c5.5 0 10 4.5 10 10v36c0 5.5-4.5 10-10 10h-58c-5.5 0-10-4.5-10-10z"/>
	<path id="Shape 4" class="s2" d="m256 48c0-5.5 4.5-10 10-10h58c5.5 0 10 4.5 10 10v36c0 5.5-4.5 10-10 10h-58c-5.5 0-10-4.5-10-10z"/>
	<path id="Shape 5" class="s2" d="m382 107c0-5.5 4.5-10 10-10h58c5.5 0 10 4.5 10 10v36c0 5.5-4.5 10-10 10h-58c-5.5 0-10-4.5-10-10z"/>
	<path id="Shape 6" class="s2" d="m256 107c0-5.5 4.5-10 10-10h58c5.5 0 10 4.5 10 10v36c0 5.5-4.5 10-10 10h-58c-5.5 0-10-4.5-10-10z"/>
	<path id="A" class="s4" aria-label="A"  d="m159.5 78l-1.6-4.7h-8.2l-1.6 4.7h-5l8.5-22.8h4.3l8.5 22.8zm-5.7-17l-2.8 8.5h5.7z"/>
	<path id="A" class="s4" aria-label="A"  d="m159.5 137l-1.6-4.7h-8.2l-1.6 4.7h-5l8.5-22.8h4.3l8.5 22.8zm-5.7-17l-2.8 8.5h5.7z"/>
	<path id="2" class="s3" aria-label="2"  d="m286.1 74.4v3.6h-15.6v-3.1l7.4-7.8q1.5-1.7 2.2-2.9 0.8-1.3 0.8-2.4 0-1.5-0.8-2.3-0.8-0.9-2.2-0.9-1.5 0-2.4 1-0.9 1.1-0.9 2.8h-4.5q0-2.1 1-3.8 1-1.7 2.8-2.7 1.8-1 4.1-1 3.5 0 5.5 1.7 1.9 1.7 1.9 4.8 0 1.7-0.9 3.4-0.8 1.8-3 4.1l-5.1 5.5z"/>
	<path id="K" class="s3" aria-label="K"  d="m283 136l-5.8-9.1-2.5 2.6v6.5h-4.7v-22.8h4.7v10.4l2.1-2.9 5.8-7.5h5.7l-8 10.2 8.3 12.6z"/>
	<path id="9" class="s3" aria-label="9"  d="m407.1 126.9q-1.8 1.7-4.1 1.7-3 0-4.8-2-1.9-2.1-1.9-5.6 0-2.3 1-4.1 1-1.9 2.7-2.9 1.8-1.1 4-1.1 2.2 0 4 1.2 1.7 1.1 2.7 3.2 1 2.1 1 4.8v1.7q0 5.7-2.8 8.9-2.9 3.3-8.1 3.5h-1.1v-3.7l1-0.1q5.9-0.2 6.4-5.5zm-3-1.7q1.1 0 1.9-0.6 0.8-0.5 1.2-1.3v-1.9q0-2.3-0.9-3.6-0.9-1.2-2.3-1.2-1.4 0-2.3 1.2-0.9 1.3-0.9 3.1 0 1.9 0.9 3.1 0.8 1.2 2.4 1.2z"/>
	<path id="Q" class="s3" aria-label="Q"  d="m414.7 66.1v1q0 3.2-1 5.6-1.1 2.3-2.9 3.8l3.8 2.9-3 2.7-4.8-3.9q-0.9 0.1-1.8 0.1-2.8 0-5-1.3-2.2-1.4-3.5-3.9-1.2-2.6-1.2-5.8v-1.2q0-3.3 1.2-5.9 1.2-2.5 3.4-3.9 2.3-1.4 5.1-1.4 2.8 0 5 1.4 2.3 1.4 3.5 3.9 1.2 2.6 1.2 5.9zm-4.8 1.1v-1.1q0-3.6-1.2-5.4-1.3-1.9-3.7-1.9-2.4 0-3.6 1.9-1.3 1.8-1.3 5.3v1.1q0 3.5 1.2 5.4 1.3 2 3.7 2 2.4 0 3.7-1.9 1.2-1.8 1.2-5.4z"/>
	<path id="club" class="s3" d="m454 69.1c0 1.7-0.6 3.4-1.8 4.8-1.1 1.4-2.7 2.3-4.4 2.6-1.7 0.3-3.5 0-5.1-0.9-1.5-0.8-2.7-2.2-3.3-3.9 0 5 0.3 8.3 5 10.8h-12.8c4.7-2.5 5-5.8 5-10.8-1 2.8-3.7 4.8-6.7 4.9-3 0.1-5.8-1.5-7.1-4.2-1.4-2.8-0.9-6 1-8.3 2-2.2 5.1-3.1 8-2.2-1.6-2.3-1.8-5.3-0.5-7.8 1.3-2.5 3.9-4.1 6.7-4.1 2.8 0 5.4 1.6 6.7 4.1 1.3 2.5 1.1 5.5-0.5 7.8 1.1-0.4 2.3-0.5 3.5-0.3 1.1 0.2 2.3 0.7 3.2 1.4 1 0.7 1.7 1.6 2.3 2.7 0.5 1 0.8 2.2 0.8 3.4z"/>
	<path id="Spade" class="s3" d="m453 129.1c0 4.8-4.1 7-7 7-3.2 0-5.6-1.4-7-2.6 0.2 3.9 1.1 6.7 5.3 8.8h-13.6c4.2-2.1 5.1-4.9 5.3-8.8-1.4 1.2-3.8 2.6-7 2.6-2.9 0-7-2.2-7-7 0-8.7 6.2-6.3 15.5-21.1 9.3 14.8 15.5 12.4 15.5 21.1z"/>
	<path id="Spade copy" class="s3" d="m328 129.1c0 4.8-4.1 7-7 7-3.2 0-5.6-1.4-7-2.6 0.2 3.9 1.1 6.7 5.3 8.8h-13.6c4.2-2.1 5.1-4.9 5.3-8.8-1.4 1.2-3.8 2.6-7 2.6-2.9 0-7-2.2-7-7 0-8.7 6.2-6.3 15.5-21.1 9.3 14.8 15.5 12.4 15.5 21.1z"/>
	<path id="Spade copy 2" class="s3" d="m328 71.1c0 4.8-4.1 7-7 7-3.2 0-5.6-1.4-7-2.6 0.2 3.9 1.1 6.7 5.3 8.8h-13.6c4.2-2.1 5.1-4.9 5.3-8.8-1.4 1.2-3.8 2.6-7 2.6-2.9 0-7-2.2-7-7 0-8.7 6.2-6.3 15.5-21.1 9.3 14.8 15.5 12.4 15.5 21.1z"/>
	<path id="heart" class="s4" d="m204 59.2c0 11.9-16.5 23.9-16.5 23.9 0 0-16.5-12-16.5-23.9 0-6.7 5.2-9.2 7.9-9.2 5.7 0 8.6 4.8 8.6 4.8 0 0 2.9-4.8 8.6-4.8 2.7 0 7.9 2.5 7.9 9.2z"/>
	<path id="Diamond" class="s4" d="m200 125.3c-5.3 3.2-10.5 9.7-13.5 17.2-3-7.5-8.2-14-13.5-17.2 5.3-3.3 10.5-9.8 13.5-17.3 3 7.5 8.2 14 13.5 17.3z"/>
</svg>