<svg version="1.2" xmlns="http://www.w3.org/2000/svg" viewBox="0 0 200 131" width="200" height="131">
	<title>kofi-svg</title>
	<style>
		.s0 { fill: #ffffff;stroke: #000000;stroke-linecap: round;stroke-linejoin: round;stroke-width: 10 } 
		.s1 { fill: #ff0000 } 
	</style>
	<g id="layer1">
		<g id="g40">
			<g id="g4184">
				<path id="path38" fill-rule="evenodd" class="s0" d="m194.1 41.7c6.1 32.3-18.2 56.6-52.6 54.7 0.4 3.1 0.3 6.3-0.4 9.4-0.6 3-1.8 6-3.5 8.6-1.7 2.7-3.9 5-6.4 6.9-2.5 1.9-5.4 3.3-8.4 4.2q-0.5 0.1-1 0.2-0.6 0.1-1.1 0.1-0.5 0.1-1 0.1-0.6 0.1-1.1 0.1h-92.8c-2.6 0.1-5.2-0.3-7.7-1.2-2.5-0.9-4.7-2.3-6.6-4.1-2-1.7-3.5-3.9-4.6-6.2-1.2-2.4-1.8-5-1.9-7.6 0-32.5 0-93.3 0-93.3 0 0 0-0.6 0-1.5q0-1.4 0.5-2.6 0.5-1.3 1.5-2.3 0.9-0.9 2.1-1.5 1.2-0.6 2.6-0.7h137.4q3.6 0 7.2 0.5 3.6 0.6 7 1.6 3.5 1.1 6.8 2.7 3.2 1.6 6.2 3.6 3.5 2.5 6.4 5.5 3 3.1 5.3 6.7 2.3 3.6 3.8 7.6 1.6 4 2.3 8.2m-31.6 28.2c2.1-1.5 4-3.4 5.5-5.6 1.5-2.1 2.5-4.6 3.2-7.1 0.6-2.5 0.8-5.2 0.5-7.8 0.1-2.8-0.3-5.5-1.3-8.1-1-2.5-2.5-4.9-4.4-6.8-2-2-4.3-3.6-6.8-4.6-2.6-1-5.3-1.5-8.1-1.4h-9v44.7q1.7 0.2 3.3 0.3 1.7 0.1 3.4 0.1 1.6 0 3.3-0.1 1.6-0.1 3.3-0.3c2.5-0.7 4.9-1.8 7.1-3.3z"/>
				<path id="path42" class="s1" d="m71.5 100c-3.5-3.4-26.6-24-31.5-31.2-1.6-2-2.9-4.3-3.8-6.7q-1.3-3.6-1.5-7.5c-0.1-2.6 0.2-5.2 0.9-7.6 0.8-2.5 1.9-4.9 3.3-7 2.4-2.1 5.3-3.7 8.3-4.7q4.6-1.5 9.6-1.2c3.2 0.3 6.3 1.2 9.2 2.7 2.8 1.5 5.4 3.6 7.4 6.1 1.6-1.9 3.6-3.5 5.7-4.9 2.1-1.3 4.4-2.4 6.9-3 2.4-0.7 4.9-1 7.4-1 2.5 0.1 5 0.5 7.4 1.3 3.1 1.4 5.8 3.6 7.8 6.3 2.1 2.7 3.4 5.9 4 9.3 0.6 3.3 0.3 6.7-0.8 10-1 3.2-2.9 6.1-5.3 8.5-9.8 11.4-31.5 31.3-31.7 31.4q-0.3 0.2-0.6 0.3-0.3 0.1-0.6 0.1-0.3 0-0.6-0.1-0.3-0.1-0.6-0.3c0-0.1-0.9-0.8-0.9-0.8z"/>
			</g>
		</g>
	</g>
</svg>