<svg id="Layer_1" data-name="Layer 1" xmlns="http://www.w3.org/2000/svg" viewBox="0 0 447.94 61.46"><defs><style>.cls-1{fill:#1a50e9;}</style></defs><path class="cls-1" d="M424.81,324.85a7.55,7.55,0,0,1,2.08,5.56v45.48a7.71,7.71,0,0,1-2.08,5.61,7.44,7.44,0,0,1-5.57,2.12,7.53,7.53,0,0,1-5.57-2.08,7.63,7.63,0,0,1-2.08-5.65v-17H387.11v17A7.67,7.67,0,0,1,385,381.5a7.44,7.44,0,0,1-5.57,2.12,7.53,7.53,0,0,1-5.57-2.08,7.63,7.63,0,0,1-2.08-5.65V330.41a7.66,7.66,0,1,1,15.3,0v16.07h24.48V330.41a7.88,7.88,0,0,1,13.22-5.56Z" transform="translate(-371.81 -322.42)"/><path class="cls-1" d="M495.91,376.65a6.07,6.07,0,0,1-2.25,4.76,7.62,7.62,0,0,1-5.15,2,6.57,6.57,0,0,1-3.57-1,7,7,0,0,1-2.55-3.06l-3.82-8.59H451l-3.91,8.59a6.64,6.64,0,0,1-6.21,4.08,7.89,7.89,0,0,1-5.22-2,6,6,0,0,1-2.34-4.76,7.3,7.3,0,0,1,.76-3.14l22.44-46.07a7.9,7.9,0,0,1,3.28-3.53,9.53,9.53,0,0,1,4.8-1.23,9.65,9.65,0,0,1,4.76,1.23,7.8,7.8,0,0,1,3.31,3.53l22.44,46.07A7.32,7.32,0,0,1,495.91,376.65ZM456.3,359h17l-8.5-19Z" transform="translate(-371.81 -322.42)"/><path class="cls-1" d="M553.83,324.89a7.56,7.56,0,0,1,2.09,5.52v45.48a7.77,7.77,0,0,1-2,5.61,7,7,0,0,1-5.27,2.12,6.83,6.83,0,0,1-5.78-2.55L517,348.86v27a8,8,0,0,1-2,5.61,6.79,6.79,0,0,1-5.27,2.12,7,7,0,0,1-5.27-2.12,7.77,7.77,0,0,1-2-5.61V330.41a7.65,7.65,0,0,1,2-5.52,7,7,0,0,1,5.27-2.13,6.89,6.89,0,0,1,5.7,2.55l25.84,32.13v-27a7.7,7.7,0,0,1,2-5.56,6.94,6.94,0,0,1,5.23-2.09A7.08,7.08,0,0,1,553.83,324.89Z" transform="translate(-371.81 -322.42)"/><path class="cls-1" d="M618.18,350.86a5.54,5.54,0,0,1,1.66,4.2v14.79a25.51,25.51,0,0,1-.64,6.51,6.54,6.54,0,0,1-2.3,3.52,14.8,14.8,0,0,1-5,2.21,54.51,54.51,0,0,1-7.35,1.32,66,66,0,0,1-7.52.47,36.54,36.54,0,0,1-17-3.7,25.67,25.67,0,0,1-11-10.62,33.52,33.52,0,0,1-3.82-16.45,33.17,33.17,0,0,1,3.82-16.28A26.21,26.21,0,0,1,580,326.16a34.74,34.74,0,0,1,16.49-3.74,37.26,37.26,0,0,1,10.67,1.41,29.7,29.7,0,0,1,8.8,4.29,6.71,6.71,0,0,1,2.08,2.21,6.49,6.49,0,0,1,.64,3.06,7,7,0,0,1-1.45,4.46,4.3,4.3,0,0,1-3.48,1.83,6.52,6.52,0,0,1-2.34-.38,18,18,0,0,1-2.51-1.32,29,29,0,0,0-5.91-2.47,22.38,22.38,0,0,0-6-.76q-8.07,0-12,4.5t-4,13.86q0,9.6,4.12,14.24T597.74,372a38.4,38.4,0,0,0,8.07-.85V360h-6.12a6.15,6.15,0,0,1-4.33-1.4,5.86,5.86,0,0,1,0-7.9,6.15,6.15,0,0,1,4.33-1.41h14A6.22,6.22,0,0,1,618.18,350.86Z" transform="translate(-371.81 -322.42)"/><path class="cls-1" d="M688.52,324.89a7.64,7.64,0,0,1,2,5.52v46.24a6.89,6.89,0,0,1-1.86,5.1,7.38,7.38,0,0,1-9.82,0,6.76,6.76,0,0,1-1.91-5.1v-25l-9.69,17.85a11,11,0,0,1-3.06,3.87,6.94,6.94,0,0,1-7.65,0,10.8,10.8,0,0,1-3.06-3.87l-9.61-17.34v24.48a6.85,6.85,0,0,1-1.91,5.06,6.83,6.83,0,0,1-11.77-5.06V330.41a7.55,7.55,0,0,1,2.08-5.52,7.49,7.49,0,0,1,9.48-.81,10.37,10.37,0,0,1,3.14,3.78l15.64,29.41,15.55-29.41q2.64-5.1,7.15-5.1A7,7,0,0,1,688.52,324.89Z" transform="translate(-371.81 -322.42)"/><path class="cls-1" d="M759.75,376.65a6.08,6.08,0,0,1-2.26,4.76,7.58,7.58,0,0,1-5.14,2,6.57,6.57,0,0,1-3.57-1,6.84,6.84,0,0,1-2.55-3.06l-3.82-8.59H714.87L711,379.29a6.67,6.67,0,0,1-6.21,4.08,7.92,7.92,0,0,1-5.23-2,6,6,0,0,1-2.34-4.76,7.32,7.32,0,0,1,.77-3.14l22.44-46.07a7.94,7.94,0,0,1,3.27-3.53,9.9,9.9,0,0,1,9.56,0,7.83,7.83,0,0,1,3.32,3.53L759,373.51A7.32,7.32,0,0,1,759.75,376.65ZM720.13,359h17l-8.5-19Z" transform="translate(-371.81 -322.42)"/><path class="cls-1" d="M817.67,324.89a7.55,7.55,0,0,1,2.08,5.52v45.48a7.77,7.77,0,0,1-2,5.61,7,7,0,0,1-5.27,2.12,6.84,6.84,0,0,1-5.78-2.55l-25.84-32.21v27a8,8,0,0,1-2,5.61,6.81,6.81,0,0,1-5.27,2.12,7,7,0,0,1-5.27-2.12,7.77,7.77,0,0,1-2-5.61V330.41a7.65,7.65,0,0,1,2-5.52,7,7,0,0,1,5.27-2.13,6.88,6.88,0,0,1,5.69,2.55l25.84,32.13v-27a7.7,7.7,0,0,1,2-5.56,6.91,6.91,0,0,1,5.23-2.09A7.11,7.11,0,0,1,817.67,324.89Z" transform="translate(-371.81 -322.42)"/></svg>