<svg version="1.2" xmlns="http://www.w3.org/2000/svg" viewBox="0 0 451 168" width="451" height="168">
	<title>help2-svg</title>
	<style>
		.s0 { fill: #ffffff } 
		.s1 { fill: #ffd700 } 
		.s2 { fill: #808080 } 
		.s3 { fill: none;stroke: #ffffff } 
		.s4 { fill: #ff0000 } 
		.s5 { fill: #000000 } 
		.s6 { fill: none;stroke: #ff00ff;stroke-width: 1.6 } 
		.s7 { fill: #ff00ff } 
	</style>
	<path id="Answer" class="s0" aria-label="Answer"  d="m14 76l-1.6-4.5h-7.1l-1.7 4.5h-2.3l6.5-17.1h2l6.5 17.1zm-5.2-14.3l-2.9 8h5.8zm9.5 1.6h2.1v1.6q1.5-1.8 3.8-1.8 4 0 4.1 4.5v8.4h-2.2v-8.4q0-1.4-0.6-2-0.6-0.7-1.9-0.7-1.1 0-1.9 0.6-0.8 0.5-1.2 1.4v9.1h-2.2zm20.6 9.3q0-0.9-0.6-1.4-0.7-0.5-2.3-0.8-1.7-0.4-2.7-0.8-0.9-0.5-1.4-1.2-0.4-0.7-0.4-1.6 0-1.6 1.3-2.7 1.3-1.1 3.3-1.1 2.2 0 3.5 1.2 1.4 1.1 1.4 2.8h-2.2q0-0.9-0.8-1.5-0.7-0.7-1.9-0.7-1.1 0-1.8 0.5-0.7 0.6-0.7 1.4 0 0.8 0.6 1.2 0.7 0.4 2.3 0.7 1.6 0.4 2.6 0.9 1 0.5 1.5 1.2 0.5 0.7 0.5 1.7 0 1.7-1.4 2.8-1.3 1-3.5 1-1.5 0-2.7-0.5-1.1-0.6-1.8-1.5-0.7-1-0.7-2.1h2.2q0.1 1 0.9 1.7 0.8 0.6 2.1 0.6 1.2 0 2-0.5 0.7-0.5 0.7-1.3zm13.2-9.3l3.1 9.7 2.4-9.7h2.2l-3.7 12.7h-1.8l-3.1-9.6-3 9.6h-1.7l-3.7-12.7h2.1l2.5 9.5 3-9.5zm15.1 12.9q-2.6 0-4.2-1.7-1.6-1.7-1.6-4.5v-0.4q0-1.9 0.7-3.4 0.7-1.5 2-2.3 1.3-0.9 2.8-0.9 2.5 0 3.9 1.7 1.3 1.6 1.3 4.6v0.9h-8.6q0.1 1.9 1.1 3.1 1.1 1.1 2.7 1.1 1.1 0 1.9-0.4 0.8-0.5 1.4-1.3l1.4 1q-1.6 2.5-4.8 2.5zm-0.3-11.4q-1.3 0-2.2 1-0.9 0.9-1.1 2.7h6.4v-0.2q-0.1-1.7-0.9-2.6-0.8-0.9-2.2-0.9zm13.9-1.6v2q-0.5-0.1-1.1-0.1-2.1 0-2.9 1.9v9h-2.2v-12.7h2.1l0.1 1.4q1-1.7 3-1.7 0.6 0 1 0.2z"/>
	<path id="Guess" class="s0" aria-label="Guess"  d="m21.6 129.5v6.3q-0.9 1.2-2.4 1.8-1.6 0.6-3.7 0.6-2 0-3.7-0.9-1.6-1-2.5-2.8-0.8-1.8-0.9-4.2v-1.5q0-3.9 1.8-6 1.8-2.1 5.1-2.1 2.7 0 4.3 1.4 1.6 1.3 2 3.8h-2.3q-0.6-3.3-4-3.3-2.3 0-3.4 1.5-1.2 1.6-1.2 4.6v1.4q0 2.9 1.3 4.6 1.3 1.7 3.6 1.7 1.2 0 2.2-0.3 0.9-0.3 1.5-0.9v-3.9h-3.9v-1.8zm11.3 8.5l-0.1-1.3q-1.2 1.5-3.7 1.5-2 0-3.1-1.1-1-1.2-1-3.5v-8.3h2.1v8.2q0 2.9 2.4 2.9 2.4 0 3.3-1.9v-9.2h2.1v12.7zm10.7 0.2q-2.6 0-4.2-1.7-1.7-1.7-1.7-4.5v-0.4q0-1.9 0.8-3.3 0.7-1.5 2-2.4 1.3-0.8 2.8-0.8 2.5 0 3.8 1.6 1.4 1.6 1.4 4.7v0.9h-8.6q0.1 1.9 1.1 3 1.1 1.2 2.7 1.2 1.1 0 1.9-0.5 0.8-0.5 1.4-1.2l1.3 1q-1.6 2.4-4.7 2.4zm-0.3-11.3q-1.3 0-2.2 0.9-0.9 1-1.1 2.7h6.3v-0.2q-0.1-1.6-0.9-2.5-0.8-0.9-2.1-0.9zm15.1 7.7q0-0.8-0.7-1.3-0.6-0.5-2.3-0.9-1.6-0.3-2.6-0.8-1-0.5-1.4-1.2-0.5-0.7-0.5-1.6 0-1.6 1.3-2.6 1.4-1.1 3.4-1.1 2.2 0 3.5 1.1 1.3 1.1 1.3 2.8h-2.1q0-0.8-0.8-1.5-0.7-0.6-1.9-0.6-1.2 0-1.8 0.5-0.7 0.5-0.7 1.3 0 0.8 0.6 1.2 0.6 0.4 2.2 0.8 1.7 0.3 2.7 0.8 1 0.5 1.5 1.3 0.5 0.7 0.5 1.7 0 1.7-1.4 2.7-1.4 1-3.5 1-1.6 0-2.7-0.5-1.2-0.5-1.9-1.5-0.6-1-0.6-2.1h2.1q0.1 1.1 0.9 1.7 0.8 0.7 2.2 0.7 1.2 0 1.9-0.5 0.8-0.5 0.8-1.4zm12.4 0q0-0.8-0.7-1.3-0.7-0.5-2.3-0.9-1.7-0.3-2.6-0.8-1-0.5-1.5-1.2-0.4-0.7-0.4-1.6 0-1.6 1.3-2.6 1.3-1.1 3.4-1.1 2.1 0 3.5 1.1 1.3 1.1 1.3 2.8h-2.2q0-0.8-0.7-1.5-0.8-0.6-1.9-0.6-1.2 0-1.9 0.5-0.6 0.5-0.6 1.3 0 0.8 0.6 1.2 0.6 0.4 2.2 0.8 1.6 0.3 2.7 0.8 1 0.5 1.4 1.3 0.5 0.7 0.5 1.7 0 1.7-1.3 2.7-1.4 1-3.6 1-1.5 0-2.6-0.5-1.2-0.5-1.9-1.5-0.6-1-0.6-2.1h2.1q0.1 1.1 0.9 1.7 0.8 0.7 2.1 0.7 1.3 0 2-0.5 0.8-0.5 0.8-1.4z"/>
	<path id="Shape 1" class="s0" d="m98 55c0-4.4 3.6-8 8-8h41c4.4 0 8 3.6 8 8v25c0 4.4-3.6 8-8 8h-41c-4.4 0-8-3.6-8-8z"/>
	<path id="Shape 1 copy 3" class="s0" d="m312 55c0-4.4 3.6-8 8-8h41c4.4 0 8 3.6 8 8v25c0 4.4-3.6 8-8 8h-41c-4.4 0-8-3.6-8-8z"/>
	<path id="Shape 1 copy 4" class="s0" d="m382 55c0-4.4 3.6-8 8-8h41c4.4 0 8 3.6 8 8v25c0 4.4-3.6 8-8 8h-41c-4.4 0-8-3.6-8-8z"/>
	<path id="Shape 1 copy" class="s0" d="m169 55c0-4.4 3.6-8 8-8h41c4.4 0 8 3.6 8 8v25c0 4.4-3.6 8-8 8h-41c-4.4 0-8-3.6-8-8z"/>
	<path id="Shape 1 copy 2" class="s0" d="m239 55c0-4.4 3.6-8 8-8h41c4.4 0 8 3.6 8 8v25c0 4.4-3.6 8-8 8h-41c-4.4 0-8-3.6-8-8z"/>
	<path id="Shape 1 copy 5" class="s1" d="m98 117c0-4.4 3.6-8 8-8h41c4.4 0 8 3.6 8 8v25c0 4.4-3.6 8-8 8h-41c-4.4 0-8-3.6-8-8z"/>
	<path id="Shape 1 copy 6" class="s2" d="m312 117c0-4.4 3.6-8 8-8h41c4.4 0 8 3.6 8 8v25c0 4.4-3.6 8-8 8h-41c-4.4 0-8-3.6-8-8z"/>
	<path id="Shape 1 copy 7" class="s2" d="m382 117c0-4.4 3.6-8 8-8h41c4.4 0 8 3.6 8 8v25c0 4.4-3.6 8-8 8h-41c-4.4 0-8-3.6-8-8z"/>
	<path id="Shape 1 copy 8" class="s1" d="m169 117c0-4.4 3.6-8 8-8h41c4.4 0 8 3.6 8 8v25c0 4.4-3.6 8-8 8h-41c-4.4 0-8-3.6-8-8z"/>
	<path id="Shape 1 copy 9" class="s2" d="m239 117c0-4.4 3.6-8 8-8h41c4.4 0 8 3.6 8 8v25c0 4.4-3.6 8-8 8h-41c-4.4 0-8-3.6-8-8z"/>
	<path id="Shape 2" class="s3" d="m90 13c0-4.4 3.6-8 8-8h198c4.4 0 8 3.6 8 8v137c0 4.4-3.6 8-8 8h-198c-4.4 0-8-3.6-8-8z"/>
	<path id="Layer" class="s4" d="m222.4 125.4c0 7.5-10.4 15-10.4 15 0 0-10.4-7.5-10.4-15 0-4.3 3.3-5.8 5-5.8 3.6 0 5.4 3 5.4 3 0 0 1.8-3 5.4-3 1.7 0 5 1.5 5 5.8z"/>
	<path id="Layer" class="s5" d="m222.9 70.2c0 3.3-2.9 4.8-4.9 4.8-2.2 0-3.8-1-4.8-1.8 0.1 2.7 0.8 4.6 3.6 6.1h-9.3c2.8-1.5 3.5-3.4 3.6-6.1-1 0.8-2.6 1.8-4.8 1.8-2 0-4.9-1.5-4.9-4.8 0-6.1 4.3-4.4 10.8-14.6 6.4 10.2 10.7 8.5 10.7 14.6z"/>
	<path id="Layer copy 6" class="s5" d="m435.9 70.2c0 3.3-2.9 4.8-4.9 4.8-2.2 0-3.8-1-4.8-1.8 0.1 2.7 0.8 4.6 3.6 6.1h-9.3c2.8-1.5 3.5-3.4 3.6-6.1-1 0.8-2.6 1.8-4.8 1.8-2 0-4.9-1.5-4.9-4.8 0-6.1 4.3-4.4 10.8-14.6 6.4 10.2 10.7 8.5 10.7 14.6z"/>
	<path id="Layer copy 7" class="s5" d="m292.9 70.2c0 3.3-2.9 4.8-4.9 4.8-2.2 0-3.8-1-4.8-1.8 0.1 2.7 0.8 4.6 3.6 6.1h-9.3c2.8-1.5 3.5-3.4 3.6-6.1-1 0.8-2.6 1.8-4.8 1.8-2 0-4.9-1.5-4.9-4.8 0-6.1 4.3-4.4 10.8-14.6 6.4 10.2 10.7 8.5 10.7 14.6z"/>
	<path id="Shape 4" class="s6" d="m174 63c0-4.4 3.6-8 8-8h9c4.4 0 8 3.6 8 8v9c0 4.4-3.6 8-8 8h-9c-4.4 0-8-3.6-8-8z"/>
	<path id="Shape 6" class="s6" d="m103 125c0-4.4 3.6-8 8-8h9c4.4 0 8 3.6 8 8v9c0 4.4-3.6 8-8 8h-9c-4.4 0-8-3.6-8-8z"/>
	<path id="Shape 5" class="s6" d="m174 125c0-4.4 3.6-8 8-8h9c4.4 0 8 3.6 8 8v9c0 4.4-3.6 8-8 8h-9c-4.4 0-8-3.6-8-8z"/>
	<path id="Layer 3" class="s7" d="m126.3 120.4l-1.3-1.7 50.6-42.7 1.4 1.7z"/>
	<path id="Shape 3" class="s7" d="m187.1 116.4h-2l-0.2-36.2h2z"/>
	<path id="Layer" class="s5" d="m365.8 69.1c0 1.3-0.4 2.6-1.3 3.6-0.8 1-2 1.6-3.3 1.9-1.2 0.2-2.6 0-3.7-0.7-1.1-0.6-2-1.6-2.5-2.9 0 3.7 0.3 6.2 3.7 8h-9.4c3.4-1.8 3.7-4.3 3.7-8-0.8 2.1-2.8 3.5-5 3.7-2.2 0.1-4.3-1.2-5.3-3.2-0.9-2-0.6-4.4 0.8-6.1 1.5-1.6 3.8-2.3 5.9-1.6-1.2-1.7-1.3-4-0.4-5.8 1-1.8 2.9-3 5-3 2.1 0 4 1.2 4.9 3 1 1.8 0.9 4.1-0.3 5.8 0.8-0.3 1.7-0.4 2.6-0.2 0.8 0.1 1.6 0.5 2.3 1 0.7 0.5 1.3 1.2 1.7 2 0.4 0.8 0.6 1.6 0.6 2.5z"/>
	<path id="Layer copy 5" class="s5" d="m151.8 69.1c0 1.3-0.4 2.6-1.3 3.6-0.8 1-2 1.6-3.3 1.9-1.2 0.2-2.6 0-3.7-0.7-1.1-0.6-2-1.6-2.5-2.9 0 3.7 0.3 6.2 3.7 8h-9.4c3.4-1.8 3.7-4.3 3.7-8-0.8 2.1-2.8 3.5-5 3.7-2.2 0.1-4.3-1.2-5.3-3.2-0.9-2-0.6-4.4 0.8-6.1 1.5-1.6 3.8-2.3 5.9-1.6-1.2-1.7-1.3-4-0.4-5.8 1-1.8 2.9-3 5-3 2.1 0 4 1.2 4.9 3 1 1.8 0.9 4.1-0.3 5.8 0.8-0.3 1.7-0.4 2.6-0.2 0.8 0.1 1.6 0.5 2.3 1 0.7 0.5 1.3 1.2 1.7 2 0.4 0.8 0.6 1.6 0.6 2.5z"/>
	<path id="Layer copy" class="s4" d="m150.8 129c-3.1 2.1-6.1 6.3-7.8 11.2-1.7-4.9-4.7-9.1-7.7-11.2 3-2.1 6-6.3 7.7-11.2 1.7 4.9 4.7 9.1 7.8 11.2z"/>
	<path id="Layer copy 4" class="s4" d="m434.8 129c-3.1 2.1-6.1 6.3-7.8 11.2-1.7-4.9-4.7-9.1-7.7-11.2 3-2.1 6-6.3 7.7-11.2 1.7 4.9 4.7 9.1 7.8 11.2z"/>
	<path id="Layer copy 2" class="s4" d="m364.8 129c-3.1 2.1-6.1 6.3-7.8 11.2-1.7-4.9-4.7-9.1-7.7-11.2 3-2.1 6-6.3 7.7-11.2 1.7 4.9 4.7 9.1 7.8 11.2z"/>
	<path id="Layer copy 3" class="s4" d="m291.8 129c-3.1 2.1-6.1 6.3-7.8 11.2-1.7-4.9-4.7-9.1-7.7-11.2 3-2.1 6-6.3 7.7-11.2 1.7 4.9 4.7 9.1 7.8 11.2z"/>
	<path id="7" class="s5" d="m121.3 58.9v1.9l-6.6 15.2h-3.6l6.6-14.3h-8.5v-2.8z"/>
	<path id="K" class="s5" d="m189.8 76l-4.4-6.8-1.9 1.9v4.9h-3.5v-17.1h3.5v7.8l1.6-2.1 4.3-5.7h4.4l-6.1 7.6 6.2 9.5z"/>
	<path id="K" class="s4" d="m118.8 138l-4.4-6.8-1.9 1.9v4.9h-3.5v-17.1h3.5v7.8l1.6-2.1 4.3-5.7h4.4l-6.1 7.6 6.2 9.5z"/>
	<path id="K" class="s4" d="m189.8 138l-4.4-6.8-1.9 1.9v4.9h-3.5v-17.1h3.5v7.8l1.6-2.1 4.3-5.7h4.4l-6.1 7.6 6.2 9.5z"/>
	<path id="A" fill-rule="evenodd" class="s5" d="m261.8 76l-1.1-3.5h-6.2l-1.2 3.5h-3.7l6.3-17.1h3.3l6.4 17.1zm-4.3-12.8l-2.1 6.4h4.2z"/>
	<path id="3" class="s4" d="m254.1 130.6v-2.6h1.8q1.3 0 1.9-0.7 0.6-0.6 0.6-1.7 0-1-0.6-1.6-0.6-0.6-1.7-0.6-0.9 0-1.6 0.6-0.7 0.5-0.7 1.4h-3.3q0-1.4 0.7-2.4 0.7-1.1 2-1.7 1.3-0.6 2.9-0.6 2.7 0 4.2 1.3 1.5 1.3 1.5 3.6 0 1.1-0.7 2.1-0.7 1-1.9 1.5 1.5 0.6 2.2 1.6 0.7 1 0.7 2.4 0 2.3-1.7 3.7-1.6 1.3-4.3 1.3-2.6 0-4.2-1.3-1.6-1.4-1.6-3.6h3.3q0 1 0.8 1.6 0.7 0.6 1.7 0.6 1.2 0 1.9-0.6 0.7-0.7 0.7-1.7 0-2.6-2.8-2.6z"/>
	<path id="4" fill-rule="evenodd" class="s4" d="m333.7 120.9v10.7h1.9v2.7h-1.9v3.7h-3.4v-3.7h-7l-0.2-2.1 7.2-11.3zm-3.7 5l-3.5 5.7h3.8v-6z"/>
	<path id="6" fill-rule="evenodd" class="s4" d="m401.3 120.8h0.5v2.8h-0.3q-2.3 0-3.7 1.1-1.4 1.2-1.7 3.3 1.4-1.4 3.5-1.4 2.2 0 3.5 1.6 1.3 1.6 1.3 4.2 0 1.6-0.7 3-0.7 1.3-2 2.1-1.4 0.7-3 0.7-2.7 0-4.4-1.8-1.6-1.9-1.6-5v-1.3q0-2.7 1-4.9 1.1-2.1 3-3.3 2-1.1 4.6-1.1zm-2.8 8.5q-0.8 0-1.4 0.4-0.7 0.5-1 1.2v1q0 1.7 0.6 2.7 0.7 0.9 1.9 0.9 1.1 0 1.8-0.9 0.7-0.8 0.7-2.2 0-1.4-0.7-2.2-0.7-0.9-1.9-0.9z"/>
	<path id="6" fill-rule="evenodd" class="s5" d="m331.3 58.8h0.5v2.8h-0.3q-2.3 0-3.7 1.1-1.4 1.2-1.7 3.3 1.4-1.4 3.5-1.4 2.2 0 3.5 1.6 1.3 1.6 1.3 4.2 0 1.6-0.7 3-0.7 1.3-2 2.1-1.4 0.7-3 0.7-2.7 0-4.4-1.8-1.6-1.9-1.6-5v-1.3q0-2.7 1-4.9 1.1-2.1 3-3.3 2-1.1 4.6-1.1zm-2.8 8.5q-0.8 0-1.4 0.4-0.7 0.5-1 1.2v1q0 1.7 0.6 2.7 0.7 0.9 1.9 0.9 1.1 0 1.8-0.9 0.7-0.8 0.7-2.2 0-1.4-0.7-2.2-0.7-0.9-1.9-0.9z"/>
	<path id="4" fill-rule="evenodd" class="s5" d="m403.7 58.9v10.7h1.9v2.7h-1.9v3.7h-3.4v-3.7h-7l-0.2-2.1 7.2-11.3zm-3.7 5l-3.5 5.7h3.8v-6z"/>
	<path id="Flop" fill-rule="evenodd" class="s0" d="m185.3 21.6v1.9h-7.1v7.5h-2.3v-17.1h10.6v1.9h-8.3v5.8zm5.9-8.6v18h-2.2v-18zm2.9 11.7v-0.2q0-1.8 0.7-3.3 0.8-1.5 2.1-2.3 1.3-0.8 2.9-0.8 2.6 0 4.2 1.8 1.6 1.8 1.6 4.7v0.2q0 1.9-0.7 3.3-0.7 1.5-2 2.3-1.3 0.8-3 0.8-2.6 0-4.2-1.8-1.6-1.8-1.6-4.7zm2.2 0.1q0 2.1 0.9 3.4 1 1.3 2.7 1.3 1.6 0 2.6-1.3 1-1.3 1-3.7 0-2-1-3.3-1-1.3-2.7-1.3-1.6 0-2.6 1.2-0.9 1.3-0.9 3.7zm22.8-0.2v0.2q0 2.9-1.4 4.7-1.3 1.7-3.6 1.7-2.3 0-3.6-1.4v6.1h-2.2v-17.6h2l0.1 1.4q1.4-1.6 3.7-1.6 2.3 0 3.6 1.7 1.4 1.7 1.4 4.8zm-2.2 0q0-2.2-0.9-3.4-0.9-1.3-2.5-1.3-2 0-3 1.8v6q1 1.8 3 1.8 1.6 0 2.5-1.3 0.9-1.2 0.9-3.6z"/>
	<path id="Turn" class="s0" d="m330.7 12.9v1.9h-5.5v15.2h-2.2v-15.2h-5.5v-1.9zm9 17.1l-0.1-1.3q-1.2 1.5-3.7 1.5-2 0-3.1-1.1-1-1.2-1-3.5v-8.3h2.1v8.2q0 2.9 2.4 2.9 2.5 0 3.3-1.9v-9.2h2.1v12.7zm11.5-12.8v2.1q-0.5-0.1-1-0.1-2.2 0-2.9 1.8v9h-2.2v-12.7h2.1v1.5q1.1-1.7 3.1-1.7 0.6 0 0.9 0.1zm2 0.1h2.1v1.6q1.5-1.8 3.8-1.8 4.1 0 4.1 4.5v8.4h-2.2v-8.4q0-1.4-0.6-2-0.6-0.7-1.9-0.7-1.1 0-1.9 0.6-0.8 0.6-1.2 1.5v9h-2.2z"/>
	<path id="River" fill-rule="evenodd" class="s0" d="m394.9 30l-3.7-6.9h-4v6.9h-2.3v-17.1h5.7q2.9 0 4.4 1.4 1.6 1.3 1.6 3.8 0 1.6-0.9 2.7-0.9 1.2-2.4 1.8l4 7.3v0.1zm-7.7-15.2v6.5h3.5q1.6 0 2.6-0.9 1-0.9 1-2.3 0-1.6-0.9-2.5-1-0.8-2.8-0.8zm14.6 2.5v12.7h-2.2v-12.7zm-2.3-3.3q0-0.6 0.3-0.9 0.3-0.4 1-0.4 0.6 0 0.9 0.4 0.3 0.3 0.3 0.9 0 0.5-0.3 0.8-0.3 0.4-0.9 0.4-0.7 0-1-0.4-0.3-0.3-0.3-0.8zm6.8 3.3l3.2 9.8 3.1-9.8h2.2l-4.5 12.7h-1.7l-4.6-12.7zm15.8 12.9q-2.6 0-4.2-1.7-1.6-1.7-1.6-4.5v-0.4q0-1.9 0.7-3.3 0.7-1.5 2-2.4 1.3-0.8 2.8-0.8 2.5 0 3.9 1.6 1.4 1.6 1.4 4.7v0.9h-8.6q0 1.9 1.1 3 1 1.2 2.6 1.2 1.2 0 2-0.5 0.8-0.5 1.4-1.2l1.3 1q-1.6 2.4-4.8 2.4zm-0.3-11.3q-1.3 0-2.2 0.9-0.9 1-1.1 2.7h6.4v-0.2q-0.1-1.6-0.9-2.5-0.8-0.9-2.2-0.9zm13.9 0.4q-0.5-0.1-1.1-0.1-2.1 0-2.9 1.8v9h-2.1v-12.7h2.1v1.5q1.1-1.7 3-1.7 0.7 0 1 0.1z"/>
</svg>