<?xml version="1.0" encoding="utf-8"?>
<!DOCTYPE svg PUBLIC "-//W3C//DTD SVG 1.0//EN" "http://www.w3.org/TR/2001/REC-SVG-20010904/DTD/svg10.dtd">
<svg version="1.0" xmlns="http://www.w3.org/2000/svg" width="1894px" height="364px" viewBox="0 0 1894 364" preserveAspectRatio="xMidYMid meet">
 <g fill="#000000">
  <path d="M159.7 307 c-17.1 -2.7 -38.3 -11.3 -50.4 -20.4 -24 -18.2 -38.7 -46.5 -42.4 -81.8 -1.5 -13.9 -0.6 -43 1.6 -55.3 8.6 -48.1 39.6 -81 84.5 -90 10.8 -2.2 36.4 -3 49.1 -1.6 20.2 2.2 40.1 9.3 54.3 19.5 9.2 6.5 22.7 21.2 28 30.2 12.7 21.7 17.6 42.7 17.6 75.8 0 42.8 -10 71 -33.4 94.1 -14.2 14.1 -30.3 22.9 -50.3 27.6 -7.2 1.7 -12.8 2.2 -30.8 2.4 -12.1 0.2 -24.6 0 -27.8 -0.5z m45.3 -12.5 c52.2 -8.6 85 -51.6 85 -111.6 0 -46.7 -18.8 -82.3 -53.3 -100.9 -20.3 -11 -46 -15.2 -70.4 -11.6 -25.3 3.7 -42.7 12.5 -58.9 30 -13.6 14.5 -21.8 30.8 -26.5 52.6 -1.9 8.8 -2.3 13.7 -2.3 30 -0.1 21.4 1 28.8 6.5 45.5 16.2 48.5 64.4 75 119.9 66z"/>
  <path d="M167 261.4 c-20.7 -4.4 -37.6 -21.6 -43.9 -44.4 -4.7 -17 -5.2 -45.6 -1.2 -65 5.3 -25.1 21.4 -42.6 44.1 -48.1 8 -1.9 30 -1.7 37.7 0.4 18.1 4.8 32 17.3 38.8 34.8 3.9 9.8 5.6 20.1 6.2 36.4 1.2 33.7 -4.9 55.5 -19.7 70.4 -7.7 7.8 -17.9 13.5 -27.7 15.6 -8.5 1.8 -25.8 1.8 -34.3 -0.1z m28.3 -11.9 c12.4 -3.2 23.3 -11.3 30.8 -22.8 13.2 -20.2 14.5 -60.6 2.7 -84.7 -6.8 -13.9 -21.7 -24.6 -37.6 -27.1 -16.7 -2.5 -34.3 4.5 -45.7 18 -13 15.7 -18 47 -11.6 73.7 2.4 9.6 3.3 12 8.4 20.1 11.4 18.4 33.4 27.9 53 22.8z"/>
  <path d="M435.5 297.9 c-17.7 -1.4 -34.1 -7.1 -48.6 -17 -7.5 -5 -19.4 -16.7 -23.5 -22.9 -2 -3.1 -3 -3.9 -3.2 -2.7 -1.2 6.1 -9 -6.5 -14.6 -23.3 -5.3 -16.1 -6.8 -27.4 -6.8 -50 0 -21.5 1.6 -35.3 5.8 -49.8 4.4 -15.1 15.4 -35 15.4 -27.7 0 2.4 1.4 1.7 3.4 -1.6 1 -1.7 4.8 -6.2 8.3 -10 21.8 -23 51.1 -33.3 87.6 -30.7 13.1 0.9 24 3.7 35.2 9.1 17 8.2 29.3 20.3 37.5 36.7 3.5 7.1 8.4 19.9 7.8 20.5 -0.4 0.4 -42.7 10.5 -43.8 10.5 -0.5 0 -1.7 -2.7 -2.8 -6 -5.2 -15.1 -17.3 -26.5 -32.7 -30.6 -7.3 -2 -22.7 -1.8 -30.6 0.4 -16.9 4.7 -29.6 17.3 -36 35.9 -6.5 19 -6.7 59.9 -0.3 81.3 5.6 18.7 18.9 32.4 36.8 37.5 4.4 1.3 8.6 1.6 17 1.3 10 -0.3 11.8 -0.6 18 -3.6 3.9 -1.8 8.9 -4.8 11.2 -6.7 7.4 -6.1 16.6 -22.2 18.9 -33.2 0.3 -1.8 1 -3.5 1.5 -3.8 0.4 -0.3 10.5 2.5 22.3 6.2 l21.5 6.6 -1.4 4.8 c-4.6 15.5 -14 32.3 -23.7 42.6 -13.7 14.5 -34.6 24.2 -55.8 25.8 -4.1 0.3 -9 0.7 -10.9 0.9 -1.9 0.1 -8 -0.1 -13.5 -0.5z"/>
  <path d="M875.5 297.9 c-14.2 -1 -28.6 -4.7 -40.3 -10.4 -11.6 -5.6 -16.7 -9.1 -25.8 -17.7 -24.2 -23 -35.2 -57.5 -32.3 -101.2 2.1 -32.5 11 -55.3 29.2 -75.1 20.1 -21.9 44.6 -31.6 80.2 -31.6 33.5 0 57.1 8.5 77.8 28.1 14.7 13.8 23.7 29.3 29.2 50.2 6.3 24.1 6.1 58.6 -0.6 82.8 -2.6 9.4 -9.3 23.7 -15 32.1 -5.5 8.2 -16.6 19.3 -24.8 24.8 -14.2 9.7 -33.7 16.5 -50.4 17.6 -4.5 0.3 -10 0.7 -12.2 0.9 -2.2 0.1 -8.9 -0.1 -15 -0.5z m28.3 -40.4 c16.3 -3.9 30.9 -15.9 38.7 -32 5.5 -11.3 7.6 -21.6 8.2 -40.3 1 -29.6 -3.4 -48.1 -14.9 -62.7 -11.6 -14.7 -26.9 -21.5 -48.3 -21.5 -19.5 0 -31.2 4.6 -43.8 17.1 -11.9 11.9 -17.4 25 -19.8 47.9 -1.8 17 0 35.7 4.7 50.1 6.9 21 23 36.7 42.9 41.5 7 1.7 24.7 1.7 32.3 -0.1z"/>
  <path d="M641 199.5 l0 -95.5 -34.5 0 -34.5 0 0 -19.5 0 -19.5 91 0 91 0 0 19.5 0 19.5 -34 0 -34 0 0 95.5 0 95.5 -22.5 0 -22.5 0 0 -95.5z"/>
  <path d="M1043 179.9 l0 -115.2 60.8 0.6 c59.9 0.6 70 1.1 82.7 4.3 16.5 4.2 29.1 14.5 36.3 29.5 15.6 32.5 4.4 71.1 -24.8 85.2 -6.6 3.2 -16.9 6.5 -25.2 8.2 -1.6 0.3 -2.8 0.9 -2.7 1.3 0 0.4 3.2 2.7 7.1 5.2 8.9 5.6 19.6 16.2 27 26.7 5.6 7.7 43.8 67.9 43.8 68.8 0 0.3 -12.1 0.5 -26.8 0.5 l-26.9 0 -20.8 -31.2 c-32.7 -49.2 -39 -57 -50.2 -62 -4.1 -1.9 -7 -2.3 -20 -2.6 l-15.3 -0.4 0 48.1 0 48.1 -22.5 0 -22.5 0 0 -115.1z m115.3 -18.9 c8.3 -1.2 13.2 -3.6 18 -8.9 8.8 -9.7 8.9 -28.6 0.3 -38.8 -2 -2.2 -5.8 -5.1 -8.8 -6.4 -5.2 -2.4 -5.7 -2.4 -42.5 -2.7 l-37.3 -0.3 0 29.1 0 29 31.8 0 c17.4 0 34.8 -0.5 38.5 -1z"/>
  <path d="M1282 180 l0 -115 39.8 0 c43.4 0 71.1 1.2 81.3 3.4 16.1 3.5 29.1 10.9 41.1 23.4 12.7 13.3 21 30 25.5 51.1 3.4 16.1 4.3 48.2 1.9 65.1 -3.1 20.7 -10.7 39.6 -22.3 54.8 -7.2 9.4 -14.5 15.1 -26.8 21.2 -19.2 9.5 -32.3 10.9 -98.7 11 l-41.8 0 0 -115z m112 73.2 c12.3 -4.1 19.7 -11 24.8 -23.5 5 -11.8 6.3 -20.1 6.9 -42.9 0.6 -23.3 -0.5 -35.8 -4.3 -47.9 -4 -12.7 -12.6 -23.9 -22.1 -28.7 -9.7 -5 -13.3 -5.5 -43.5 -6 l-28.8 -0.4 0 76.2 0 76.2 30.3 -0.4 c27.7 -0.4 30.7 -0.6 36.7 -2.6z"/>
  <path d="M1522 181 l0 -114 23 0 23 0 0 94.5 0 94.5 57.5 0 57.5 0 0 19.5 0 19.5 -80.5 0 -80.5 0 0 -114z"/>
  <path d="M1724 180 l0 -115 84.5 0 84.5 0 0 19.5 0 19.5 -62 0 -62 0 0 25.5 0 25.5 58 0 58 0 0 19.5 0 19.5 -58 0 -58 0 0 31 0 31 62.5 0 62.5 0 0 19.5 0 19.5 -85 0 -85 0 0 -115z"/>
 </g>
 <g fill="#22c55e">
  <path d="M82.9 359 c-17.9 -2.3 -37.6 -12.1 -50.8 -25.3 -7.1 -7 -15.3 -19.5 -19.1 -29.1 -6.4 -15.9 -6.2 -13.8 -6.7 -97.1 -0.5 -92 0.5 -129 3.7 -138.3 5.2 -15.5 10.9 -25.2 20.9 -35.6 11.2 -11.6 22.7 -18.7 39.1 -24.2 l8.5 -2.8 82.5 -0.6 c45.4 -0.3 92.4 -0.2 104.5 0.1 19.7 0.6 22.9 0.9 30.8 3.3 25.4 7.6 44.5 24 55.6 47.8 5.8 12.2 7.2 18.5 7.8 34.5 l0.6 14.3 -5.1 10.2 c-9.4 19.1 -13.3 38.2 -13.3 65.9 0 19.6 1.7 31.7 6.7 46.9 1.9 5.8 5.3 13.8 7.6 17.9 l4.1 7.5 -0.6 17 c-0.4 15 -0.8 18.1 -3.2 25.6 -4.5 14 -10.6 24.4 -20.6 35.4 -13.1 14.4 -34.3 24.8 -54.4 26.6 -11.6 1.1 -190.3 1.1 -198.6 0z m132.4 -56.9 c20 -4.6 36.1 -13.5 50.3 -27.6 22.8 -22.5 33.4 -51.5 33.4 -91.1 0 -39.2 -9.9 -67.9 -30.9 -89.7 -10.4 -10.8 -17.7 -16.1 -30.2 -22.1 -17.5 -8.5 -38.9 -12.4 -61.4 -11.3 -40 2 -68.5 17.5 -88.3 48 -12.2 18.9 -17.8 39 -18.9 68.2 -1.5 40.1 8.5 72.1 29.8 94.9 9.6 10.2 17.4 15.9 30.4 22.1 19.4 9.3 31.2 11.5 58 11 14.7 -0.2 21 -0.8 27.8 -2.4z"/>
  <path d="M170.3 252.6 c-15.2 -3.7 -29.2 -16.1 -36.1 -32 -7.1 -16.2 -8 -50.9 -2 -70.6 7 -22.9 23.9 -36.7 47.3 -38.7 16.5 -1.3 32 4.1 42.9 14.9 11.6 11.7 16.4 25.8 17.3 50.8 1 30.6 -4.9 49.6 -19.9 63.6 -9.8 9.3 -21.1 13.5 -35.8 13.3 -4.7 0 -10.8 -0.6 -13.7 -1.3z"/>
 </g>
 <g fill="#ffffff">
  <path d="M171.3 298.9 c-30.6 -2.8 -55.5 -15.4 -72.2 -36.4 -10.8 -13.6 -17.5 -28.5 -21.8 -48.5 -2.8 -13.3 -2.5 -49.7 0.6 -64 4.7 -21.8 12.9 -38.1 26.5 -52.6 16.8 -18 35.2 -27.1 62 -30.4 12.1 -1.6 33.1 -0.8 44.1 1.5 39 8.2 67.2 34.7 77.8 73 4.7 17.2 6.1 47 3.1 67.4 -7 47.5 -38.7 81.2 -83.4 88.6 -11.7 1.9 -25.8 2.5 -36.7 1.4z m27 -40.4 c20.5 -4.3 37.2 -21.1 43.7 -43.8 6 -21.3 4.9 -53.8 -2.5 -72.6 -6.8 -17.6 -20.8 -30.1 -38.8 -34.8 -7.6 -2 -24 -2.2 -31.7 -0.4 -22.7 5.4 -38.9 23.1 -44 48.1 -5.4 26.3 -2.9 54.3 6.7 73.3 4.7 9.5 16.2 21.1 25.3 25.5 11.9 5.9 27.5 7.6 41.3 4.7z"/>
 </g>
</svg>