<svg version="1.2" xmlns="http://www.w3.org/2000/svg" viewBox="0 0 475 791" width="475" height="791">
	<title>complete</title>
	<style>
		.s0 { fill: #ffd700 } 
		.s1 { fill: #808080 } 
		.s2 { fill: #006400 } 
		.s3 { fill: #000000 } 
		.s4 { fill: #ff0000 } 
		.s5 { fill: #cd7f32 } 
		.s6 { fill: #c0c0c0 } 
		.s7 { fill: #000000;stroke: #ffffff;stroke-width: 0.9999999999999997 } 
		.s8 { fill: none;stroke: #006400;stroke-width: 2 } 
		.s9 { fill: #ffffff } 
		.s10 { fill: none;stroke: #ffffff;stroke-width: 2 } 
	</style>
	<path id="Shape 7" class="s0" d="m15 413c0-5.5 4.5-10 10-10h58c5.5 0 10 4.5 10 10v36c0 5.5-4.5 10-10 10h-58c-5.5 0-10-4.5-10-10z"/>
	<path id="Shape 8" class="s0" d="m109 413c0-5.5 4.5-10 10-10h58c5.5 0 10 4.5 10 10v36c0 5.5-4.5 10-10 10h-58c-5.5 0-10-4.5-10-10z"/>
	<path id="Shape 9" class="s0" d="m203 413c0-5.5 4.5-10 10-10h58c5.5 0 10 4.5 10 10v36c0 5.5-4.5 10-10 10h-58c-5.5 0-10-4.5-10-10z"/>
	<path id="Shape 10" class="s0" d="m109 485c0-5.5 4.5-10 10-10h58c5.5 0 10 4.5 10 10v36c0 5.5-4.5 10-10 10h-58c-5.5 0-10-4.5-10-10z"/>
	<path id="Shape 11" class="s0" d="m298 413c0-5.5 4.5-10 10-10h58c5.5 0 10 4.5 10 10v36c0 5.5-4.5 10-10 10h-58c-5.5 0-10-4.5-10-10z"/>
	<path id="Shape 12" class="s0" d="m392 413c0-5.5 4.5-10 10-10h58c5.5 0 10 4.5 10 10v36c0 5.5-4.5 10-10 10h-58c-5.5 0-10-4.5-10-10z"/>
	<path id="Shape 13" class="s1" d="m298 485c0-5.5 4.5-10 10-10h58c5.5 0 10 4.5 10 10v36c0 5.5-4.5 10-10 10h-58c-5.5 0-10-4.5-10-10z"/>
	<path id="Shape 14" class="s1" d="m392 485c0-5.5 4.5-10 10-10h58c5.5 0 10 4.5 10 10v36c0 5.5-4.5 10-10 10h-58c-5.5 0-10-4.5-10-10z"/>
	<path id="Shape 15" class="s1" d="m203 485c0-5.5 4.5-10 10-10h58c5.5 0 10 4.5 10 10v36c0 5.5-4.5 10-10 10h-58c-5.5 0-10-4.5-10-10z"/>
	<path id="Shape 16" class="s2" d="m15 485c0-5.5 4.5-10 10-10h58c5.5 0 10 4.5 10 10v36c0 5.5-4.5 10-10 10h-58c-5.5 0-10-4.5-10-10z"/>
	<path id="Shape 17" class="s2" d="m15 556c0-5.5 4.5-10 10-10h58c5.5 0 10 4.5 10 10v36c0 5.5-4.5 10-10 10h-58c-5.5 0-10-4.5-10-10z"/>
	<path id="Shape 18" class="s2" d="m109 556c0-5.5 4.5-10 10-10h58c5.5 0 10 4.5 10 10v36c0 5.5-4.5 10-10 10h-58c-5.5 0-10-4.5-10-10z"/>
	<path id="Shape 19" class="s0" d="m203 556c0-5.5 4.5-10 10-10h58c5.5 0 10 4.5 10 10v36c0 5.5-4.5 10-10 10h-58c-5.5 0-10-4.5-10-10z"/>
	<path id="Shape 20" class="s0" d="m298 556c0-5.5 4.5-10 10-10h58c5.5 0 10 4.5 10 10v36c0 5.5-4.5 10-10 10h-58c-5.5 0-10-4.5-10-10z"/>
	<path id="Shape 21" class="s2" d="m392 556c0-5.5 4.5-10 10-10h58c5.5 0 10 4.5 10 10v36c0 5.5-4.5 10-10 10h-58c-5.5 0-10-4.5-10-10z"/>
	<path id="Shape 22" class="s2" d="m15 627c0-5.5 4.5-10 10-10h58c5.5 0 10 4.5 10 10v36c0 5.5-4.5 10-10 10h-58c-5.5 0-10-4.5-10-10z"/>
	<path id="Shape 23" class="s2" d="m109 626c0-5.5 4.5-10 10-10h58c5.5 0 10 4.5 10 10v36c0 5.5-4.5 10-10 10h-58c-5.5 0-10-4.5-10-10z"/>
	<path id="Shape 24" class="s2" d="m203 626c0-5.5 4.5-10 10-10h58c5.5 0 10 4.5 10 10v36c0 5.5-4.5 10-10 10h-58c-5.5 0-10-4.5-10-10z"/>
	<path id="Shape 25" class="s2" d="m297 626c0-5.5 4.5-10 10-10h58c5.5 0 10 4.5 10 10v36c0 5.5-4.5 10-10 10h-58c-5.5 0-10-4.5-10-10z"/>
	<path id="Shape 26" class="s2" d="m392 626c0-5.5 4.5-10 10-10h58c5.5 0 10 4.5 10 10v36c0 5.5-4.5 10-10 10h-58c-5.5 0-10-4.5-10-10z"/>
	<path id="Q" class="s3" aria-label="Q"  d="m428.7 642.1v1q0 3.2-1 5.6-1.1 2.3-2.9 3.8l3.8 2.9-3 2.7-4.8-3.9q-0.9 0.1-1.8 0.1-2.8 0-5-1.3-2.2-1.4-3.5-3.9-1.2-2.6-1.2-5.8v-1.2q0-3.3 1.2-5.9 1.2-2.5 3.4-3.9 2.3-1.4 5.1-1.4 2.8 0 5 1.4 2.3 1.4 3.5 3.9 1.2 2.6 1.2 5.9zm-4.8 1.1v-1.1q0-3.6-1.2-5.4-1.3-1.9-3.7-1.9-2.4 0-3.6 1.9-1.3 1.8-1.3 5.3v1.1q0 3.5 1.2 5.4 1.3 2 3.7 2 2.4 0 3.7-1.9 1.2-1.8 1.2-5.4z"/>
	<path id="J" class="s4" aria-label="J"  d="m321.2 649v-15.8l4.7 0.1v15.7q0 2.2-1 3.8-0.9 1.7-2.7 2.6-1.7 0.9-3.9 0.9-3.6 0-5.7-1.8-2-1.9-2-5.2h4.7q0 1.7 0.7 2.5 0.8 0.7 2.3 0.7 1.3 0 2.1-0.9 0.8-0.9 0.8-2.6z"/>
	<path id="Gold" fill-rule="evenodd" class="s0" d="m176.1 280.7q2 0.3 3.2 0.7 0.6 0.2 1.1 0.5c0.2 0.2 0.5 0.6 0.6 1q0 1.3-0.1 2.6h2.3q0-1-0.1-1.9l2.4-0.7c0.5 9.1-2.7 18.4-9.6 24.6l-1.4-2.5q0.6-0.5 1.1-1.1-0.7-0.7-1.6-1.3-1.7 1.7-3.8 2.6c-1.9 1.6-0.7 2.6 2.1 3.2-5.1 0.9-3.4 5.4 1.2 8q0.3 0 0.5 0 1.6 0.3 2.6 0.6c0.3 0.1 0.6 0.2 0.8 0.4 0.3 0.2 0.6 0.5 0.6 1 0 0.5-0.3 0.8-0.6 1-0.2 0.1-0.5 0.3-0.8 0.4q-1 0.3-2.6 0.5c-2.1 0.3-4.9 0.5-8 0.5-3.1 0-6-0.2-8.1-0.5q-1.5-0.2-2.5-0.5c-0.3-0.1-0.6-0.3-0.9-0.4-0.2-0.2-0.5-0.5-0.5-1 0-0.5 0.3-0.8 0.5-1 0.3-0.2 0.6-0.3 0.9-0.4q1-0.3 2.5-0.6 0.3 0 0.6 0c4.6-2.6 6.3-7.1 1.2-8 2.7-0.6 4-1.6 2-3.2q-2-0.9-3.8-2.6-0.9 0.7-1.6 1.4 0.5 0.5 1 1l-1.3 2.5c-6.6-6.4-10.2-15.4-9.5-24.6l2.3 0.6q0 1 0 2h2.2q-0.1-1.3-0.1-2.6h0.1c0-0.4 0.3-0.8 0.6-1q0.4-0.3 1-0.5 1.3-0.4 3.2-0.7c2.7-0.5 6.2-0.7 10.2-0.7 3.9 0 7.5 0.2 10.1 0.7zm-20 1.6c-1.3 0.1-2.3 0.4-2.9 0.6q-0.1 0.1-0.2 0.1 0.1 0.1 0.2 0.1c0.6 0.2 1.6 0.5 2.9 0.7 2.5 0.4 6 0.6 9.9 0.6 3.9 0 7.4-0.2 9.9-0.6 1.2-0.2 2.2-0.5 2.9-0.7q0.1 0 0.2-0.1-0.1 0-0.2-0.1c-0.7-0.2-1.7-0.5-2.9-0.6-2.5-0.4-6-0.7-9.9-0.7-3.9 0-7.4 0.3-9.9 0.7zm-1.6 19.8q0.7-0.8 1.6-1.6c-2.4-3.2-4.1-7.6-4.8-12.7h-2.4c0.5 5.3 2.2 10.3 5.6 14.3zm21.4-1.6q0.8 0.7 1.5 1.4c3.2-4 5.2-8.9 5.6-14.1h-2.3c-0.7 5-2.4 9.4-4.8 12.7z"/>
	<path id="Gold copy" fill-rule="evenodd" class="s0" d="m301.1 163.7q2 0.3 3.2 0.7 0.6 0.2 1.1 0.5c0.2 0.2 0.5 0.6 0.6 1q0 1.3-0.1 2.6h2.3q0-1-0.1-1.9l2.4-0.7c0.5 9.1-2.7 18.4-9.6 24.6l-1.4-2.5q0.6-0.5 1.1-1.1-0.7-0.7-1.6-1.3-1.7 1.7-3.8 2.6c-1.9 1.6-0.7 2.6 2.1 3.2-5.1 0.9-3.4 5.4 1.2 8q0.3 0 0.5 0 1.6 0.3 2.6 0.6c0.3 0.1 0.6 0.2 0.8 0.4 0.3 0.2 0.6 0.5 0.6 1 0 0.5-0.3 0.8-0.6 1-0.2 0.1-0.5 0.3-0.8 0.4q-1 0.3-2.6 0.5c-2.1 0.3-4.9 0.5-8 0.5-3.1 0-6-0.2-8.1-0.5q-1.5-0.2-2.5-0.5c-0.3-0.1-0.6-0.3-0.9-0.4-0.2-0.2-0.5-0.5-0.5-1 0-0.5 0.3-0.8 0.5-1 0.3-0.2 0.6-0.3 0.9-0.4q1-0.3 2.5-0.6 0.3 0 0.6 0c4.6-2.6 6.3-7.1 1.2-8 2.7-0.6 4-1.6 2-3.2q-2-0.9-3.8-2.6-0.9 0.7-1.6 1.4 0.5 0.5 1 1l-1.3 2.5c-6.6-6.4-10.2-15.4-9.5-24.6l2.3 0.6q0 1 0 2h2.2q-0.1-1.3-0.1-2.6h0.1c0-0.4 0.3-0.8 0.6-1q0.4-0.3 1-0.5 1.3-0.4 3.2-0.7c2.7-0.5 6.2-0.7 10.2-0.7 3.9 0 7.5 0.2 10.1 0.7zm-20 1.6c-1.3 0.1-2.3 0.4-2.9 0.6q-0.1 0.1-0.2 0.1 0.1 0.1 0.2 0.1c0.6 0.2 1.6 0.5 2.9 0.7 2.5 0.4 6 0.6 9.9 0.6 3.9 0 7.4-0.2 9.9-0.6 1.2-0.2 2.2-0.5 2.9-0.7q0.1 0 0.2-0.1-0.1 0-0.2-0.1c-0.7-0.2-1.7-0.5-2.9-0.6-2.5-0.4-6-0.7-9.9-0.7-3.9 0-7.4 0.3-9.9 0.7zm-1.6 19.8q0.7-0.8 1.6-1.6c-2.4-3.2-4.1-7.6-4.8-12.7h-2.4c0.5 5.3 2.2 10.3 5.6 14.3zm21.4-1.6q0.8 0.7 1.5 1.4c3.2-4 5.2-8.9 5.6-14.1h-2.3c-0.7 5-2.4 9.4-4.8 12.7z"/>
	<path id="Gold copy 2" fill-rule="evenodd" class="s0" d="m427.1 222.7q2 0.3 3.2 0.7 0.6 0.2 1.1 0.5c0.2 0.2 0.5 0.6 0.6 1q0 1.3-0.1 2.6h2.3q0-1-0.1-1.9l2.4-0.7c0.5 9.1-2.7 18.4-9.6 24.6l-1.4-2.5q0.6-0.5 1.1-1.1-0.7-0.7-1.6-1.3-1.7 1.7-3.8 2.6c-1.9 1.6-0.7 2.6 2.1 3.2-5.1 0.9-3.4 5.4 1.2 8q0.3 0 0.5 0 1.6 0.3 2.6 0.6c0.3 0.1 0.6 0.2 0.8 0.4 0.3 0.2 0.6 0.5 0.6 1 0 0.5-0.3 0.8-0.6 1-0.2 0.1-0.5 0.3-0.8 0.4q-1 0.3-2.6 0.5c-2.1 0.3-4.9 0.5-8 0.5-3.1 0-6-0.2-8.1-0.5q-1.5-0.2-2.5-0.5c-0.3-0.1-0.6-0.3-0.9-0.4-0.2-0.2-0.5-0.5-0.5-1 0-0.5 0.3-0.8 0.5-1 0.3-0.2 0.6-0.3 0.9-0.4q1-0.3 2.5-0.6 0.3 0 0.6 0c4.6-2.6 6.3-7.1 1.2-8 2.7-0.6 4-1.6 2-3.2q-2-0.9-3.8-2.6-0.9 0.7-1.6 1.4 0.5 0.5 1 1l-1.3 2.5c-6.6-6.4-10.2-15.4-9.5-24.6l2.3 0.6q0 1 0 2h2.2q-0.1-1.3-0.1-2.6h0.1c0-0.4 0.3-0.8 0.6-1q0.4-0.3 1-0.5 1.3-0.4 3.2-0.7c2.7-0.5 6.2-0.7 10.2-0.7 3.9 0 7.5 0.2 10.1 0.7zm-20 1.6c-1.3 0.1-2.3 0.4-2.9 0.6q-0.1 0.1-0.2 0.1 0.1 0.1 0.2 0.1c0.6 0.2 1.6 0.5 2.9 0.7 2.5 0.4 6 0.6 9.9 0.6 3.9 0 7.4-0.2 9.9-0.6 1.2-0.2 2.2-0.5 2.9-0.7q0.1 0 0.2-0.1-0.1 0-0.2-0.1c-0.7-0.2-1.7-0.5-2.9-0.6-2.5-0.4-6-0.7-9.9-0.7-3.9 0-7.4 0.3-9.9 0.7zm-1.6 19.8q0.7-0.8 1.6-1.6c-2.4-3.2-4.1-7.6-4.8-12.7h-2.4c0.5 5.3 2.2 10.3 5.6 14.3zm21.4-1.6q0.8 0.7 1.5 1.4c3.2-4 5.2-8.9 5.6-14.1h-2.3c-0.7 5-2.4 9.4-4.8 12.7z"/>
	<path id="Bronze" fill-rule="evenodd" class="s5" d="m301.4 280.7q2 0.3 3.3 0.7c0.4 0.2 0.7 0.3 1 0.6 0.3 0.2 0.6 0.5 0.6 1h0.1q0 1.3-0.1 2.6h2.3q0-1-0.1-2l2.4-0.7c0.6 9.4-2.7 18.9-9.7 25.2l-1.4-2.6q0.5-0.5 1.1-1.1-0.8-0.7-1.6-1.3-1.8 1.7-3.9 2.7c-2 1.6-0.8 2.6 2 3.2-5.2 0.9-3.4 5.5 1.3 8.2q0.3 0 0.5 0 1.6 0.3 2.6 0.6c0.4 0.1 0.7 0.2 0.9 0.4 0.3 0.2 0.6 0.5 0.6 1 0 0.5-0.3 0.8-0.6 1-0.2 0.2-0.5 0.3-0.9 0.4q-1 0.4-2.6 0.6c-2.1 0.3-5 0.5-8.2 0.5-3.2 0-6.1-0.2-8.2-0.5q-1.6-0.2-2.6-0.6c-0.3-0.1-0.6-0.2-0.9-0.4-0.2-0.2-0.6-0.5-0.6-1 0-0.5 0.4-0.8 0.6-1 0.3-0.2 0.6-0.3 0.9-0.4q1-0.3 2.6-0.6 0.3 0 0.5 0c4.7-2.7 6.5-7.3 1.3-8.2 2.8-0.6 4-1.6 2.1-3.2q-2.1-1-3.9-2.7-0.9 0.7-1.7 1.5 0.5 0.5 1.1 0.9l-1.4 2.6c-6.8-6.5-10.5-15.7-9.7-25.1l2.4 0.5q-0.1 1.1-0.1 2.1h2.3q-0.1-1.3-0.1-2.6h0.1c0-0.5 0.3-0.8 0.6-1 0.3-0.3 0.7-0.4 1.1-0.6q1.2-0.4 3.2-0.7c2.7-0.4 6.4-0.7 10.4-0.7 4.1 0 7.7 0.3 10.4 0.7zm-20.5 1.6c-1.3 0.2-2.3 0.4-3 0.7q-0.1 0-0.2 0.1 0.1 0 0.2 0.1c0.7 0.2 1.7 0.5 3 0.6 2.6 0.4 6.1 0.7 10.1 0.7 4 0 7.6-0.3 10.1-0.7 1.3-0.1 2.3-0.4 3-0.6q0.1-0.1 0.2-0.1-0.1-0.1-0.2-0.1c-0.7-0.3-1.7-0.5-3-0.7-2.5-0.4-6.1-0.6-10.1-0.6-4 0-7.5 0.2-10.1 0.6zm-1.6 20.3q0.7-0.9 1.7-1.6c-2.5-3.4-4.3-7.9-5-13h-2.4c0.4 5.4 2.2 10.5 5.7 14.6zm21.8-1.7q0.9 0.7 1.6 1.5c3.3-4.1 5.2-9.1 5.7-14.4h-2.3c-0.8 5.1-2.5 9.6-5 12.9z"/>
	<path id="Bronze copy" fill-rule="evenodd" class="s5" d="m176.4 221.7q2 0.3 3.3 0.7c0.4 0.2 0.7 0.3 1 0.6 0.3 0.2 0.6 0.5 0.6 1h0.1q0 1.3-0.1 2.6h2.3q0-1-0.1-2l2.4-0.7c0.6 9.4-2.7 18.9-9.7 25.2l-1.4-2.6q0.5-0.5 1.1-1.1-0.8-0.7-1.6-1.3-1.8 1.7-3.9 2.7c-2 1.6-0.8 2.6 2 3.2-5.2 0.9-3.4 5.5 1.3 8.2q0.3 0 0.5 0 1.6 0.3 2.6 0.6c0.4 0.1 0.7 0.2 0.9 0.4 0.3 0.2 0.6 0.5 0.6 1 0 0.5-0.3 0.8-0.6 1-0.2 0.2-0.5 0.3-0.9 0.4q-1 0.4-2.6 0.6c-2.1 0.3-5 0.5-8.2 0.5-3.2 0-6.1-0.2-8.2-0.5q-1.6-0.2-2.6-0.6c-0.3-0.1-0.6-0.2-0.9-0.4-0.2-0.2-0.6-0.5-0.6-1 0-0.5 0.4-0.8 0.6-1 0.3-0.2 0.6-0.3 0.9-0.4q1-0.3 2.6-0.6 0.3 0 0.5 0c4.7-2.7 6.5-7.3 1.3-8.2 2.8-0.6 4-1.6 2.1-3.2q-2.1-1-3.9-2.7-0.9 0.7-1.7 1.5 0.5 0.5 1.1 0.9l-1.4 2.6c-6.8-6.5-10.5-15.7-9.7-25.1l2.4 0.5q-0.1 1.1-0.1 2.1h2.3q-0.1-1.3-0.1-2.6h0.1c0-0.5 0.3-0.8 0.6-1 0.3-0.3 0.7-0.4 1.1-0.6q1.2-0.4 3.2-0.7c2.7-0.4 6.4-0.7 10.4-0.7 4.1 0 7.7 0.3 10.4 0.7zm-20.5 1.6c-1.3 0.2-2.3 0.4-3 0.7q-0.1 0-0.2 0.1 0.1 0 0.2 0.1c0.7 0.2 1.7 0.5 3 0.6 2.6 0.4 6.1 0.7 10.1 0.7 4 0 7.6-0.3 10.1-0.7 1.3-0.1 2.3-0.4 3-0.6q0.1-0.1 0.2-0.1-0.1-0.1-0.2-0.1c-0.7-0.3-1.7-0.5-3-0.7-2.5-0.4-6.1-0.6-10.1-0.6-4 0-7.5 0.2-10.1 0.6zm-1.6 20.3q0.7-0.9 1.7-1.6c-2.5-3.4-4.3-7.9-5-13h-2.4c0.4 5.4 2.2 10.5 5.7 14.6zm21.8-1.7q0.9 0.7 1.6 1.5c3.3-4.1 5.2-9.1 5.7-14.4h-2.3c-0.8 5.1-2.5 9.6-5 12.9z"/>
	<path id="Bronze copy 2" fill-rule="evenodd" class="s5" d="m427.4 163.7q2 0.3 3.3 0.7c0.4 0.2 0.7 0.3 1 0.6 0.3 0.2 0.6 0.5 0.6 1h0.1q0 1.3-0.1 2.6h2.3q0-1-0.1-2l2.4-0.7c0.6 9.4-2.7 18.9-9.7 25.2l-1.4-2.6q0.5-0.5 1.1-1.1-0.8-0.7-1.6-1.3-1.8 1.7-3.9 2.7c-2 1.6-0.8 2.6 2 3.2-5.2 0.9-3.4 5.5 1.3 8.2q0.3 0 0.5 0 1.6 0.3 2.6 0.6c0.4 0.1 0.7 0.2 0.9 0.4 0.3 0.2 0.6 0.5 0.6 1 0 0.5-0.3 0.8-0.6 1-0.2 0.2-0.5 0.3-0.9 0.4q-1 0.4-2.6 0.6c-2.1 0.3-5 0.5-8.2 0.5-3.2 0-6.1-0.2-8.2-0.5q-1.6-0.2-2.6-0.6c-0.3-0.1-0.6-0.2-0.9-0.4-0.2-0.2-0.6-0.5-0.6-1 0-0.5 0.4-0.8 0.6-1 0.3-0.2 0.6-0.3 0.9-0.4q1-0.3 2.6-0.6 0.3 0 0.5 0c4.7-2.7 6.5-7.3 1.3-8.2 2.8-0.6 4-1.6 2.1-3.2q-2.1-1-3.9-2.7-0.9 0.7-1.7 1.5 0.5 0.5 1.1 0.9l-1.4 2.6c-6.8-6.5-10.5-15.7-9.7-25.1l2.4 0.5q-0.1 1.1-0.1 2.1h2.3q-0.1-1.3-0.1-2.6h0.1c0-0.5 0.3-0.8 0.6-1 0.3-0.3 0.7-0.4 1.1-0.6q1.2-0.4 3.2-0.7c2.7-0.4 6.4-0.7 10.4-0.7 4.1 0 7.7 0.3 10.4 0.7zm-20.5 1.6c-1.3 0.2-2.3 0.4-3 0.7q-0.1 0-0.2 0.1 0.1 0 0.2 0.1c0.7 0.2 1.7 0.5 3 0.6 2.6 0.4 6.1 0.7 10.1 0.7 4 0 7.6-0.3 10.1-0.7 1.3-0.1 2.3-0.4 3-0.6q0.1-0.1 0.2-0.1-0.1-0.1-0.2-0.1c-0.7-0.3-1.7-0.5-3-0.7-2.5-0.4-6.1-0.6-10.1-0.6-4 0-7.5 0.2-10.1 0.6zm-1.6 20.3q0.7-0.9 1.7-1.6c-2.5-3.4-4.3-7.9-5-13h-2.4c0.4 5.4 2.2 10.5 5.7 14.6zm21.8-1.7q0.9 0.7 1.6 1.5c3.3-4.1 5.2-9.1 5.7-14.4h-2.3c-0.8 5.1-2.5 9.6-5 12.9z"/>
	<path id="silver2" fill-rule="evenodd" class="s6" d="m301.4 221.7q2 0.3 3.3 0.7c0.4 0.2 0.7 0.3 1 0.6 0.3 0.2 0.6 0.5 0.6 1h0.1q0 1.3-0.1 2.6h2.3q0-1-0.1-2l2.4-0.7c0.6 9.4-2.7 18.9-9.7 25.2l-1.4-2.6q0.5-0.5 1.1-1.1-0.8-0.7-1.6-1.3-1.8 1.7-3.9 2.7c-2 1.6-0.8 2.6 2 3.2-5.2 0.9-3.4 5.5 1.3 8.2q0.3 0 0.5 0 1.6 0.3 2.6 0.6c0.4 0.1 0.7 0.2 0.9 0.4 0.3 0.2 0.6 0.5 0.6 1 0 0.5-0.3 0.8-0.6 1-0.2 0.2-0.5 0.3-0.9 0.4q-1 0.4-2.6 0.6c-2.1 0.3-5 0.5-8.2 0.5-3.2 0-6.1-0.2-8.2-0.5q-1.6-0.2-2.6-0.6c-0.3-0.1-0.6-0.2-0.9-0.4-0.2-0.2-0.6-0.5-0.6-1 0-0.5 0.4-0.8 0.6-1 0.3-0.2 0.6-0.3 0.9-0.4q1-0.3 2.6-0.6 0.3 0 0.5 0c4.7-2.7 6.5-7.3 1.3-8.2 2.8-0.6 4-1.6 2.1-3.2q-2.1-1-3.9-2.7-0.9 0.7-1.7 1.5 0.5 0.5 1.1 0.9l-1.4 2.6c-6.8-6.5-10.5-15.7-9.7-25.1l2.4 0.5q-0.1 1.1-0.1 2.1h2.3q-0.1-1.3-0.1-2.6h0.1c0-0.5 0.3-0.8 0.6-1 0.3-0.3 0.7-0.4 1.1-0.6q1.2-0.4 3.2-0.7c2.7-0.4 6.4-0.7 10.4-0.7 4.1 0 7.7 0.3 10.4 0.7zm-20.5 1.6c-1.3 0.2-2.3 0.4-3 0.7q-0.1 0-0.2 0.1 0.1 0 0.2 0.1c0.7 0.2 1.7 0.5 3 0.6 2.6 0.4 6.1 0.7 10.1 0.7 4 0 7.6-0.3 10.1-0.7 1.3-0.1 2.3-0.4 3-0.6q0.1-0.1 0.2-0.1-0.1-0.1-0.2-0.1c-0.7-0.3-1.7-0.5-3-0.7-2.5-0.4-6.1-0.6-10.1-0.6-4 0-7.5 0.2-10.1 0.6zm-1.6 20.3q0.7-0.9 1.7-1.6c-2.5-3.4-4.3-7.9-5-13h-2.4c0.4 5.4 2.2 10.5 5.7 14.6zm21.8-1.7q0.9 0.7 1.6 1.5c3.3-4.1 5.2-9.1 5.7-14.4h-2.3c-0.8 5.1-2.5 9.6-5 12.9z"/>
	<path id="silver2 copy" fill-rule="evenodd" class="s6" d="m427.4 280.7q2 0.3 3.3 0.7c0.4 0.2 0.7 0.3 1 0.6 0.3 0.2 0.6 0.5 0.6 1h0.1q0 1.3-0.1 2.6h2.3q0-1-0.1-2l2.4-0.7c0.6 9.4-2.7 18.9-9.7 25.2l-1.4-2.6q0.5-0.5 1.1-1.1-0.8-0.7-1.6-1.3-1.8 1.7-3.9 2.7c-2 1.6-0.8 2.6 2 3.2-5.2 0.9-3.4 5.5 1.3 8.2q0.3 0 0.5 0 1.6 0.3 2.6 0.6c0.4 0.1 0.7 0.2 0.9 0.4 0.3 0.2 0.6 0.5 0.6 1 0 0.5-0.3 0.8-0.6 1-0.2 0.2-0.5 0.3-0.9 0.4q-1 0.4-2.6 0.6c-2.1 0.3-5 0.5-8.2 0.5-3.2 0-6.1-0.2-8.2-0.5q-1.6-0.2-2.6-0.6c-0.3-0.1-0.6-0.2-0.9-0.4-0.2-0.2-0.6-0.5-0.6-1 0-0.5 0.4-0.8 0.6-1 0.3-0.2 0.6-0.3 0.9-0.4q1-0.3 2.6-0.6 0.3 0 0.5 0c4.7-2.7 6.5-7.3 1.3-8.2 2.8-0.6 4-1.6 2.1-3.2q-2.1-1-3.9-2.7-0.9 0.7-1.7 1.5 0.5 0.5 1.1 0.9l-1.4 2.6c-6.8-6.5-10.5-15.7-9.7-25.1l2.4 0.5q-0.1 1.1-0.1 2.1h2.3q-0.1-1.3-0.1-2.6h0.1c0-0.5 0.3-0.8 0.6-1 0.3-0.3 0.7-0.4 1.1-0.6q1.2-0.4 3.2-0.7c2.7-0.4 6.4-0.7 10.4-0.7 4.1 0 7.7 0.3 10.4 0.7zm-20.5 1.6c-1.3 0.2-2.3 0.4-3 0.7q-0.1 0-0.2 0.1 0.1 0 0.2 0.1c0.7 0.2 1.7 0.5 3 0.6 2.6 0.4 6.1 0.7 10.1 0.7 4 0 7.6-0.3 10.1-0.7 1.3-0.1 2.3-0.4 3-0.6q0.1-0.1 0.2-0.1-0.1-0.1-0.2-0.1c-0.7-0.3-1.7-0.5-3-0.7-2.5-0.4-6.1-0.6-10.1-0.6-4 0-7.5 0.2-10.1 0.6zm-1.6 20.3q0.7-0.9 1.7-1.6c-2.5-3.4-4.3-7.9-5-13h-2.4c0.4 5.4 2.2 10.5 5.7 14.6zm21.8-1.7q0.9 0.7 1.6 1.5c3.3-4.1 5.2-9.1 5.7-14.4h-2.3c-0.8 5.1-2.5 9.6-5 12.9z"/>
	<path id="silver" fill-rule="evenodd" class="s6" d="m176.4 163.7q2 0.3 3.3 0.7c0.4 0.2 0.7 0.3 1 0.6 0.3 0.2 0.6 0.5 0.6 1h0.1q0 1.3-0.1 2.6h2.3q0-1-0.1-2l2.4-0.7c0.6 9.4-2.7 18.9-9.7 25.2l-1.4-2.6q0.5-0.5 1.1-1.1-0.8-0.7-1.6-1.3-1.8 1.7-3.9 2.7c-2 1.6-0.8 2.6 2 3.2-5.2 0.9-3.4 5.5 1.3 8.2q0.3 0 0.5 0 1.6 0.3 2.6 0.6c0.4 0.1 0.7 0.2 0.9 0.4 0.3 0.2 0.6 0.5 0.6 1 0 0.5-0.3 0.8-0.6 1-0.2 0.2-0.5 0.3-0.9 0.4q-1 0.4-2.6 0.6c-2.1 0.3-5 0.5-8.2 0.5-3.2 0-6.1-0.2-8.2-0.5q-1.6-0.2-2.6-0.6c-0.3-0.1-0.6-0.2-0.9-0.4-0.2-0.2-0.6-0.5-0.6-1 0-0.5 0.4-0.8 0.6-1 0.3-0.2 0.6-0.3 0.9-0.4q1-0.3 2.6-0.6 0.3 0 0.5 0c4.7-2.7 6.5-7.3 1.3-8.2 2.8-0.6 4-1.6 2.1-3.2q-2.1-1-3.9-2.7-0.9 0.7-1.7 1.5 0.5 0.5 1.1 0.9l-1.4 2.6c-6.8-6.5-10.5-15.7-9.7-25.1l2.4 0.5q-0.1 1.1-0.1 2.1h2.3q-0.1-1.3-0.1-2.6h0.1c0-0.5 0.3-0.8 0.6-1 0.3-0.3 0.7-0.4 1.1-0.6q1.2-0.4 3.2-0.7c2.7-0.4 6.4-0.7 10.4-0.7 4.1 0 7.7 0.3 10.4 0.7zm-20.5 1.6c-1.3 0.2-2.3 0.4-3 0.7q-0.1 0-0.2 0.1 0.1 0 0.2 0.1c0.7 0.2 1.7 0.5 3 0.6 2.6 0.4 6.1 0.7 10.1 0.7 4 0 7.6-0.3 10.1-0.7 1.3-0.1 2.3-0.4 3-0.6q0.1-0.1 0.2-0.1-0.1-0.1-0.2-0.1c-0.7-0.3-1.7-0.5-3-0.7-2.5-0.4-6.1-0.6-10.1-0.6-4 0-7.5 0.2-10.1 0.6zm-1.6 20.3q0.7-0.9 1.7-1.6c-2.5-3.4-4.3-7.9-5-13h-2.4c0.4 5.4 2.2 10.5 5.7 14.6zm21.8-1.7q0.9 0.7 1.6 1.5c3.3-4.1 5.2-9.1 5.7-14.4h-2.3c-0.8 5.1-2.5 9.6-5 12.9z"/>
	<path id="St" class="s7" aria-label="St"  d="m163.1 303.2q0-1.8-1.2-2.7-1.2-0.9-4.4-2-3.2-1-5.1-2-5.1-2.8-5.1-7.4 0-2.4 1.4-4.3 1.4-1.9 3.9-3 2.6-1.1 5.8-1.1 3.1 0 5.7 1.2 2.5 1.1 3.8 3.3 1.4 2.1 1.4 4.8h-6.1q0-2.1-1.3-3.2-1.3-1.2-3.7-1.2-2.2 0-3.5 1-1.2 0.9-1.2 2.5 0 1.5 1.4 2.4 1.5 1 4.4 1.9 5.2 1.6 7.6 3.9 2.4 2.3 2.4 5.8 0 3.9-2.9 6.1-2.9 2.2-7.9 2.2-3.5 0-6.3-1.2-2.8-1.3-4.3-3.5-1.5-2.2-1.5-5.1h6.2q0 4.9 5.9 4.9 2.2 0 3.4-0.8 1.2-0.9 1.2-2.5zm11.2-19.8h5.9v5.4h3.8v4.4h-3.8v11q0 1.3 0.5 1.8 0.4 0.5 1.8 0.5 1 0 1.7-0.1v4.5q-1.7 0.5-3.6 0.5-6.2 0-6.3-6.3v-11.9h-3.3v-4.4h3.3z"/>
	<path id="St copy" class="s7" aria-label="St"  d="m415.1 303.2q0-1.8-1.2-2.7-1.2-0.9-4.4-2-3.2-1-5.1-2-5.1-2.8-5.1-7.4 0-2.4 1.4-4.3 1.4-1.9 3.9-3 2.6-1.1 5.8-1.1 3.1 0 5.7 1.2 2.5 1.1 3.8 3.3 1.4 2.1 1.4 4.8h-6.1q0-2.1-1.3-3.2-1.3-1.2-3.7-1.2-2.2 0-3.5 1-1.2 0.9-1.2 2.5 0 1.5 1.4 2.4 1.5 1 4.4 1.9 5.2 1.6 7.6 3.9 2.4 2.3 2.4 5.8 0 3.9-2.9 6.1-2.9 2.2-7.9 2.2-3.5 0-6.3-1.2-2.8-1.3-4.3-3.5-1.5-2.2-1.5-5.1h6.2q0 4.9 5.9 4.9 2.2 0 3.4-0.8 1.2-0.9 1.2-2.5zm11.2-19.8h5.9v5.4h3.8v4.4h-3.8v11q0 1.3 0.5 1.8 0.4 0.5 1.8 0.5 1 0 1.7-0.1v4.5q-1.7 0.5-3.6 0.5-6.2 0-6.3-6.3v-11.9h-3.3v-4.4h3.3z"/>
	<path id="St" class="s7" aria-label="St"  d="m415.1 244.2q0-1.8-1.2-2.7-1.2-0.9-4.4-2-3.2-1-5.1-2-5.1-2.8-5.1-7.4 0-2.4 1.4-4.3 1.4-1.9 3.9-3 2.6-1.1 5.8-1.1 3.1 0 5.7 1.2 2.5 1.1 3.8 3.3 1.4 2.1 1.4 4.8h-6.1q0-2.1-1.3-3.2-1.3-1.2-3.7-1.2-2.2 0-3.5 1-1.2 0.9-1.2 2.5 0 1.5 1.4 2.4 1.5 1 4.4 1.9 5.2 1.6 7.6 3.9 2.4 2.3 2.4 5.8 0 3.9-2.9 6.1-2.9 2.2-7.9 2.2-3.5 0-6.3-1.2-2.8-1.3-4.3-3.5-1.5-2.2-1.5-5.1h6.2q0 4.9 5.9 4.9 2.2 0 3.4-0.8 1.2-0.9 1.2-2.5zm11.2-19.8h5.9v5.4h3.8v4.4h-3.8v11q0 1.3 0.5 1.8 0.4 0.5 1.8 0.5 1 0 1.7-0.1v4.5q-1.7 0.5-3.6 0.5-6.2 0-6.3-6.3v-11.9h-3.3v-4.4h3.3z"/>
	<path id="K" class="s4" aria-label="K"  d="m45 444l-5.8-9.1-2.5 2.6v6.5h-4.7v-22.8l4.7 0.1v10.3l2.1-2.9 5.8-7.5h5.7l-8 10.2 8.3 12.6z"/>
	<path id="K" class="s4" aria-label="K"  d="m45 513l-5.8-9.1-2.5 2.6v6.5h-4.7v-22.8l4.7 0.1v10.3l2.1-2.9 5.8-7.5h5.7l-8 10.2 8.3 12.6z"/>
	<path id="K copy 3" class="s4" aria-label="K"  d="m45 657l-5.8-9.1-2.5 2.6v6.5h-4.7v-22.8l4.7 0.1v10.3l2.1-2.9 5.8-7.5h5.7l-8 10.2 8.3 12.6z"/>
	<path id="K copy 2" class="s4" aria-label="K"  d="m45 586l-5.8-9.1-2.5 2.6v6.5h-4.7v-22.8l4.7 0.1v10.3l2.1-2.9 5.8-7.5h5.7l-8 10.2 8.3 12.6z"/>
	<path id="2" class="s4" aria-label="2"  d="m142.1 439.4v3.6h-15.6v-3.1l7.4-7.8q1.5-1.7 2.2-2.9 0.8-1.3 0.8-2.4 0-1.5-0.8-2.3-0.8-0.9-2.2-0.9-1.5 0-2.4 1-0.9 1.1-0.9 2.8h-4.5q0-2.1 1-3.8 1-1.7 2.8-2.7 1.8-1 4.1-1 3.5 0 5.5 1.7 1.9 1.7 1.9 4.8 0 1.7-0.9 3.4-0.8 1.8-3 4.1l-5.1 5.5z"/>
	<path id="Q" class="s4" aria-label="Q"  d="m238.7 501.1v1q0 3.2-1 5.6-1.1 2.3-2.9 3.8l3.8 2.9-3 2.7-4.8-3.9q-0.9 0.1-1.8 0.1-2.8 0-5-1.3-2.2-1.4-3.5-3.9-1.2-2.6-1.2-5.8v-1.2q0-3.3 1.2-5.9 1.2-2.5 3.4-3.9 2.3-1.4 5.1-1.4 2.8 0 5 1.4 2.3 1.4 3.5 3.9 1.2 2.6 1.2 5.9zm-4.8 1.1v-1.1q0-3.6-1.2-5.4-1.3-1.9-3.7-1.9-2.4 0-3.6 1.9-1.3 1.8-1.3 5.3v1.1q0 3.5 1.2 5.4 1.3 2 3.7 2 2.4 0 3.7-1.9 1.2-1.8 1.2-5.4z"/>
	<path id="Q copy" class="s4" aria-label="Q"  d="m238.7 501.1v1q0 3.2-1 5.6-1.1 2.3-2.9 3.8l3.8 2.9-3 2.7-4.8-3.9q-0.9 0.1-1.8 0.1-2.8 0-5-1.3-2.2-1.4-3.5-3.9-1.2-2.6-1.2-5.8v-1.2q0-3.3 1.2-5.9 1.2-2.5 3.4-3.9 2.3-1.4 5.1-1.4 2.8 0 5 1.4 2.3 1.4 3.5 3.9 1.2 2.6 1.2 5.9zm-4.8 1.1v-1.1q0-3.6-1.2-5.4-1.3-1.9-3.7-1.9-2.4 0-3.6 1.9-1.3 1.8-1.3 5.3v1.1q0 3.5 1.2 5.4 1.3 2 3.7 2 2.4 0 3.7-1.9 1.2-1.8 1.2-5.4z"/>
	<path id="10" class="s4" aria-label="10"  d="m314.5 562.2v22.8h-4.5v-17.4l-5.4 1.7v-3.7l9.4-3.4zm22.7 9.2v4.2q0 4.7-1.9 7.2-2 2.5-5.7 2.5-3.8 0-5.7-2.4-2-2.5-2-7.1v-4.2q0-4.7 1.9-7.2 2-2.5 5.7-2.5 3.8 0 5.7 2.5 2 2.4 2 7zm-4.5 5v-5.4q0-2.8-0.8-4.1-0.7-1.3-2.4-1.3-1.6 0-2.3 1.2-0.8 1.2-0.8 3.9v5.5q0 2.8 0.7 4.1 0.8 1.4 2.5 1.4 1.6 0 2.4-1.3 0.7-1.3 0.7-4z"/>
	<path id="Q" class="s3" aria-label="Q"  d="m334.7 501.1v1q0 3.2-1 5.6-1.1 2.3-2.9 3.8l3.8 2.9-3 2.7-4.8-3.9q-0.9 0.1-1.8 0.1-2.8 0-5-1.3-2.2-1.4-3.5-3.9-1.2-2.6-1.2-5.8v-1.2q0-3.3 1.2-5.9 1.2-2.5 3.4-3.9 2.3-1.4 5.1-1.4 2.8 0 5 1.4 2.3 1.4 3.5 3.9 1.2 2.6 1.2 5.9zm-4.8 1.1v-1.1q0-3.6-1.2-5.4-1.3-1.9-3.7-1.9-2.4 0-3.6 1.9-1.3 1.8-1.3 5.3v1.1q0 3.5 1.2 5.4 1.3 2 3.7 2 2.4 0 3.7-1.9 1.2-1.8 1.2-5.4z"/>
	<path id="A" class="s3" aria-label="A"  d="m424.5 514l-1.6-4.7h-8.2l-1.6 4.7h-5l8.5-22.8 4.3 0.1 8.5 22.7zm-5.7-17l-2.8 8.5h5.7z"/>
	<path id="A copy" class="s3" aria-label="A"  d="m424.5 442l-1.6-4.7h-8.2l-1.6 4.7h-5l8.5-22.8 4.3 0.1 8.5 22.7zm-5.7-17l-2.8 8.5h5.7z"/>
	<path id="Q" class="s3" aria-label="Q"  d="m238.7 430.1v1q0 3.2-1 5.6-1.1 2.3-2.9 3.8l3.8 2.9-3 2.7-4.8-3.9q-0.9 0.1-1.8 0.1-2.8 0-5-1.3-2.2-1.4-3.5-3.9-1.2-2.6-1.2-5.8v-1.2q0-3.3 1.2-5.9 1.2-2.5 3.4-3.9 2.3-1.4 5.1-1.4 2.8 0 5 1.4 2.3 1.4 3.5 3.9 1.2 2.6 1.2 5.9zm-4.8 1.1v-1.1q0-3.6-1.2-5.4-1.3-1.9-3.7-1.9-2.4 0-3.6 1.9-1.3 1.8-1.3 5.3v1.1q0 3.5 1.2 5.4 1.3 2 3.7 2 2.4 0 3.7-1.9 1.2-1.8 1.2-5.4z"/>
	<path id="Q" class="s3" aria-label="Q"  d="m428.7 573.1v1q0 3.2-1 5.6-1.1 2.3-2.9 3.8l3.8 2.9-3 2.7-4.8-3.9q-0.9 0.1-1.8 0.1-2.8 0-5-1.3-2.2-1.4-3.5-3.9-1.2-2.6-1.2-5.8v-1.2q0-3.3 1.2-5.9 1.2-2.5 3.4-3.9 2.3-1.4 5.1-1.4 2.8 0 5 1.4 2.3 1.4 3.5 3.9 1.2 2.6 1.2 5.9zm-4.8 1.1v-1.1q0-3.6-1.2-5.4-1.3-1.9-3.7-1.9-2.4 0-3.6 1.9-1.3 1.8-1.3 5.3v1.1q0 3.5 1.2 5.4 1.3 2 3.7 2 2.4 0 3.7-1.9 1.2-1.8 1.2-5.4z"/>
	<path id="Q" class="s4" aria-label="Q"  d="m333.7 430.1v1q0 3.2-1 5.6-1.1 2.3-2.9 3.8l3.8 2.9-3 2.7-4.8-3.9q-0.9 0.1-1.8 0.1-2.8 0-5-1.3-2.2-1.4-3.5-3.9-1.2-2.6-1.2-5.8v-1.2q0-3.3 1.2-5.9 1.2-2.5 3.4-3.9 2.3-1.4 5.1-1.4 2.8 0 5 1.4 2.3 1.4 3.5 3.9 1.2 2.6 1.2 5.9zm-4.8 1.1v-1.1q0-3.6-1.2-5.4-1.3-1.9-3.7-1.9-2.4 0-3.6 1.9-1.3 1.8-1.3 5.3v1.1q0 3.5 1.2 5.4 1.3 2 3.7 2 2.4 0 3.7-1.9 1.2-1.8 1.2-5.4z"/>
	<path id="2" class="s3" aria-label="2"  d="m141.1 509.4v3.6h-15.6v-3.1l7.4-7.8q1.5-1.7 2.2-2.9 0.8-1.3 0.8-2.4 0-1.5-0.8-2.3-0.8-0.9-2.2-0.9-1.5 0-2.4 1-0.9 1.1-0.9 2.8h-4.5q0-2.1 1-3.8 1-1.7 2.8-2.7 1.8-1 4.1-1 3.5 0 5.5 1.7 1.9 1.7 1.9 4.8 0 1.7-0.9 3.4-0.8 1.8-3 4.1l-5.1 5.5z"/>
	<path id="K" class="s3" aria-label="K"  d="m139 585l-5.8-9.1-2.5 2.6v6.5h-4.7v-22.8l4.7 0.1v10.3l2.1-2.9 5.8-7.5h5.7l-8 10.2 8.3 12.6z"/>
	<path id="K copy 4" class="s3" aria-label="K"  d="m139 655l-5.8-9.1-2.5 2.6v6.5h-4.7v-22.8l4.7 0.1v10.3l2.1-2.9 5.8-7.5h5.7l-8 10.2 8.3 12.6z"/>
	<path id="10" class="s3" aria-label="10"  d="m220.5 632.2v22.8h-4.5v-17.4l-5.4 1.7v-3.7l9.4-3.4zm22.7 9.2v4.2q0 4.7-1.9 7.2-2 2.5-5.7 2.5-3.8 0-5.7-2.4-2-2.5-2-7.1v-4.2q0-4.7 1.9-7.2 2-2.5 5.7-2.5 3.8 0 5.7 2.5 2 2.4 2 7zm-4.5 5v-5.4q0-2.8-0.8-4.1-0.7-1.3-2.4-1.3-1.6 0-2.3 1.2-0.8 1.2-0.8 3.9v5.5q0 2.8 0.7 4.1 0.8 1.4 2.5 1.4 1.6 0 2.4-1.3 0.7-1.3 0.7-4z"/>
	<path id="J" class="s3" aria-label="J"  d="m231.2 578v-15.8l4.7 0.1v15.7q0 2.2-1 3.8-0.9 1.7-2.7 2.6-1.7 0.9-3.9 0.9-3.6 0-5.7-1.8-2-1.9-2-5.2h4.7q0 1.7 0.7 2.5 0.8 0.7 2.3 0.7 1.3 0 2.1-0.9 0.8-0.9 0.8-2.6z"/>
	<path id="P" class="s7" aria-label="P"  d="m418.2 183.5h-5.4v10.5h-6.1v-29.9h11.6q3.4 0 5.9 1.3 2.6 1.2 4 3.5 1.3 2.2 1.3 5.1 0 4.4-3 7-3 2.5-8.3 2.5zm-5.4-14.4v9.4h5.5q2.5 0 3.7-1.2 1.3-1.1 1.3-3.2 0-2.2-1.3-3.6-1.3-1.3-3.5-1.4z"/>
	<path id="Shape 27" class="s8" d="m50 711c0-5.5 4.5-10 10-10h366c5.5 0 10 4.5 10 10v66c0 5.5-4.5 10-10 10h-366c-5.5 0-10-4.5-10-10z"/>
	<path id="You Won in 4 Guesses!" class="s2" aria-label="You Won in 4 Guesses!"  d="m77.8 733.5l6.1 11.8 6.1-11.8h3.5l-8.1 14.8v8.7h-3.1v-8.7l-8.1-14.8zm16.5 14.8v-0.2q0-2.5 1-4.6 1-2 2.8-3.1 1.8-1.2 4.1-1.2 3.6 0 5.8 2.5 2.2 2.5 2.2 6.6v0.2q0 2.5-1 4.6-1 2-2.8 3.1-1.8 1.1-4.2 1.1-3.5 0-5.7-2.4-2.2-2.5-2.2-6.6zm3 0.2q0 2.9 1.3 4.6 1.4 1.8 3.6 1.8 2.3 0 3.6-1.8 1.4-1.8 1.4-5 0-2.8-1.4-4.6-1.3-1.8-3.6-1.8-2.2 0-3.6 1.7-1.3 1.8-1.3 5.1zm27.4 8.5v-1.7q-1.8 2-5.1 2-2.8 0-4.3-1.6-1.4-1.6-1.5-4.8v-11.3h3v11.2q0 4 3.2 4 3.5 0 4.6-2.6v-12.6h3v17.4zm17.3-23.5l3.7 16.1 0.5 3.1 0.6-2.8 4.7-16.4h2.6l4.5 16.4 0.7 2.8 0.5-3.1 3.6-16.1h3.1l-5.7 23.5h-2.8l-4.8-17.1-0.4-1.8-0.4 1.8-5 17.1h-2.8l-5.7-23.5zm26.2 14.8v-0.2q0-2.5 1-4.6 1-2 2.8-3.1 1.8-1.2 4.1-1.2 3.6 0 5.8 2.5 2.2 2.5 2.2 6.6v0.2q0 2.5-1 4.6-1 2-2.8 3.1-1.8 1.1-4.2 1.1-3.5 0-5.7-2.4-2.2-2.5-2.2-6.6zm3 0.2q0 2.9 1.3 4.6 1.4 1.8 3.6 1.8 2.3 0 3.6-1.8 1.4-1.8 1.4-5 0-2.8-1.4-4.6-1.3-1.8-3.6-1.8-2.2 0-3.6 1.7-1.3 1.8-1.3 5.1zm16.6-8.9h2.8l0.1 2.2q2-2.6 5.2-2.6 5.6 0 5.6 6.3v11.5h-3v-11.5q0-1.9-0.8-2.8-0.9-0.9-2.7-0.9-1.4 0-2.5 0.7-1.1 0.8-1.7 2.1v12.4h-3zm29.6 0v17.4h-3v-17.4zm-3.2-4.6q0-0.7 0.5-1.2 0.4-0.5 1.3-0.5 0.8 0 1.3 0.5 0.4 0.5 0.4 1.2 0 0.7-0.4 1.2-0.5 0.5-1.3 0.5-0.9 0-1.3-0.5-0.5-0.5-0.5-1.2zm8 4.6h2.8l0.1 2.2q2-2.5 5.2-2.5 5.6 0 5.6 6.2v11.5h-3v-11.5q0-1.9-0.8-2.8-0.9-0.9-2.7-0.9-1.4 0-2.5 0.8-1.1 0.8-1.7 2v12.4h-3zm38.7-6v15.6h3.2v2.4h-3.2v5.5h-3v-5.5h-10.7v-1.7l10.5-16.3zm-3.4 4.7l-6.9 10.9h7.3v-11.5zm35.6 7v8.6q-1.2 1.8-3.4 2.6-2.1 0.8-4.9 0.8-2.9 0-5.1-1.3-2.3-1.3-3.5-3.8-1.2-2.5-1.2-5.8v-2q0-5.3 2.4-8.2 2.5-3 7-3 3.7 0 5.9 1.9 2.3 1.9 2.8 5.3h-3.1q-0.9-4.6-5.6-4.6-3.1 0-4.7 2.2-1.6 2.2-1.6 6.3v1.9q0 4 1.8 6.3 1.8 2.3 4.9 2.3 1.7 0 3-0.4 1.3-0.4 2.2-1.3v-5.2h-5.5v-2.6zm15.6 11.7l-0.1-1.7q-1.7 2-5.1 2-2.8 0-4.3-1.6-1.4-1.6-1.4-4.8v-11.3h3v11.3q0 3.9 3.2 3.9 3.4 0 4.5-2.5v-12.7h3v17.4zm14.6 0.3q-3.5 0-5.8-2.3-2.2-2.3-2.2-6.2v-0.6q0-2.6 1-4.6 1-2 2.8-3.2 1.8-1.1 3.8-1.1 3.4 0 5.3 2.2 1.9 2.2 1.9 6.4v1.3h-11.8q0.1 2.5 1.5 4.1 1.4 1.6 3.7 1.6 1.5 0 2.6-0.6 1.1-0.7 2-1.7l1.8 1.4q-2.2 3.3-6.6 3.3zm-0.4-15.6q-1.8 0-3 1.3-1.2 1.3-1.5 3.7h8.7v-0.2q-0.1-2.3-1.2-3.5-1.1-1.3-3-1.3zm20.8 10.7q0-1.2-0.9-1.9-0.9-0.6-3.2-1.1-2.2-0.5-3.6-1.2-1.3-0.7-2-1.6-0.6-0.9-0.6-2.2 0-2.2 1.8-3.6 1.8-1.5 4.7-1.5 2.9 0 4.8 1.5 1.8 1.5 1.8 3.9h-3q0-1.2-1-2.1-1.1-0.9-2.6-0.9-1.7 0-2.6 0.7-0.9 0.7-0.9 1.9 0 1.1 0.9 1.6 0.8 0.6 3 1.1 2.3 0.5 3.7 1.1 1.3 0.7 2 1.7 0.7 1 0.7 2.4 0 2.3-1.9 3.7-1.9 1.4-4.8 1.4-2.1 0-3.7-0.7-1.7-0.7-2.6-2.1-0.9-1.3-0.9-2.8h3q0.1 1.5 1.2 2.3 1.1 0.9 3 0.9 1.7 0 2.7-0.7 1-0.7 1-1.8zm17 0q0-1.2-0.9-1.9-0.9-0.6-3.2-1.1-2.2-0.5-3.6-1.2-1.3-0.7-1.9-1.6-0.7-0.9-0.7-2.2 0-2.2 1.8-3.6 1.9-1.5 4.7-1.5 2.9 0 4.8 1.5 1.8 1.5 1.8 3.9h-3q0-1.2-1-2.1-1-0.9-2.6-0.9-1.6 0-2.6 0.7-0.9 0.7-0.9 1.9 0 1.1 0.9 1.6 0.8 0.6 3 1.1 2.3 0.5 3.7 1.1 1.4 0.7 2 1.7 0.7 1 0.7 2.4 0 2.3-1.9 3.7-1.8 1.4-4.8 1.4-2.1 0-3.7-0.7-1.6-0.7-2.6-2.1-0.9-1.3-0.9-2.8h3q0.1 1.5 1.2 2.3 1.1 0.9 3 0.9 1.7 0 2.7-0.7 1-0.7 1-1.8zm14.1 4.9q-3.5 0-5.8-2.3-2.2-2.3-2.2-6.2v-0.6q0-2.6 1-4.6 1-2 2.8-3.2 1.8-1.1 3.8-1.1 3.4 0 5.3 2.2 1.9 2.2 1.9 6.4v1.3h-11.8q0.1 2.5 1.5 4.1 1.5 1.6 3.7 1.6 1.6 0 2.7-0.6 1-0.7 1.9-1.7l1.8 1.4q-2.2 3.3-6.6 3.3zm-0.4-15.6q-1.8 0-3 1.3-1.2 1.3-1.5 3.7h8.7v-0.2q-0.1-2.3-1.2-3.5-1.1-1.3-3-1.3zm20.8 10.7q0-1.2-0.9-1.9-0.9-0.6-3.2-1.1-2.2-0.5-3.6-1.2-1.3-0.7-1.9-1.6-0.7-0.9-0.7-2.2 0-2.2 1.8-3.6 1.9-1.5 4.7-1.5 2.9 0 4.8 1.5 1.8 1.5 1.8 3.9h-3q0-1.2-1-2.1-1-0.9-2.6-0.9-1.6 0-2.6 0.7-0.9 0.7-0.9 1.9 0 1.1 0.9 1.6 0.8 0.6 3 1.1 2.3 0.5 3.7 1.1 1.4 0.7 2 1.7 0.7 1 0.7 2.4 0 2.3-1.9 3.7-1.8 1.4-4.8 1.4-2.1 0-3.7-0.7-1.6-0.7-2.6-2.1-0.9-1.3-0.9-2.8h3q0.1 1.5 1.2 2.3 1.1 0.9 3 0.9 1.7 0 2.7-0.7 1-0.7 1-1.8zm10.4-18.8l-0.2 16.8h-2.7l-0.2-16.8zm-3.2 21.9q0-0.7 0.4-1.2 0.5-0.5 1.3-0.5 0.9 0 1.4 0.5 0.4 0.5 0.4 1.2 0 0.8-0.4 1.2-0.5 0.5-1.4 0.5-0.8 0-1.3-0.5-0.4-0.4-0.4-1.2z"/>
	<path id="2P" class="s7" aria-label="2P"  d="m162.5 189.2v4.8h-20.5v-4.1l9.7-10.3q2-2.1 2.9-3.7 1-1.7 1-3.1 0-2-1-3.1-1-1.2-2.9-1.2-2 0-3.2 1.4-1.1 1.4-1.1 3.6h-6q0-2.7 1.3-5 1.3-2.2 3.7-3.5 2.4-1.3 5.4-1.3 4.6 0 7.2 2.2 2.5 2.3 2.5 6.3 0 2.2-1.1 4.5-1.2 2.3-4 5.4l-6.7 7.1zm15.8-5.7h-5.4v10.5h-6.2v-29.9h11.7q3.3 0 5.9 1.3 2.5 1.2 3.9 3.5 1.4 2.2 1.4 5.1 0 4.4-3 7-3 2.5-8.3 2.5zm-5.4-14.4v9.4h5.5q2.4 0 3.7-1.2 1.3-1.1 1.3-3.2 0-2.2-1.3-3.6-1.3-1.3-3.6-1.4z"/>
	<path id="2P copy" class="s7" aria-label="2P"  d="m162.5 247.2v4.8h-20.5v-4.1l9.7-10.3q2-2.1 2.9-3.7 1-1.7 1-3.1 0-2-1-3.1-1-1.2-2.9-1.2-2 0-3.2 1.4-1.1 1.4-1.1 3.6h-6q0-2.7 1.3-5 1.3-2.2 3.7-3.5 2.4-1.3 5.4-1.3 4.6 0 7.2 2.2 2.5 2.3 2.5 6.3 0 2.2-1.1 4.5-1.2 2.3-4 5.4l-6.7 7.1zm15.8-5.7h-5.4v10.5h-6.2v-29.9h11.7q3.3 0 5.9 1.3 2.5 1.2 3.9 3.5 1.4 2.2 1.4 5.1 0 4.4-3 7-3 2.5-8.3 2.5zm-5.4-14.4v9.4h5.5q2.4 0 3.7-1.2 1.3-1.1 1.3-3.2 0-2.2-1.3-3.6-1.3-1.3-3.6-1.4z"/>
	<path id="3K" class="s7" aria-label="3K"  d="m274.1 181.1v-4.7h3.1q2.3 0 3.4-1.1 1-1.1 1-3 0-1.8-1-2.8-1.1-1-3-1-1.7 0-2.8 1-1.2 0.9-1.2 2.4h-5.9q0-2.4 1.2-4.2 1.3-1.9 3.6-2.9 2.2-1.1 5-1.1 4.7 0 7.4 2.3 2.7 2.3 2.7 6.2 0 2.1-1.3 3.8-1.2 1.7-3.3 2.7 2.6 0.9 3.8 2.7 1.2 1.8 1.2 4.2 0 4-2.9 6.4-2.9 2.4-7.6 2.4-4.5 0-7.4-2.3-2.8-2.4-2.8-6.3h5.9q0 1.7 1.3 2.8 1.3 1 3.1 1 2.1 0 3.3-1.1 1.2-1.1 1.2-2.9 0-4.5-4.9-4.5zm35.7 12.9l-7.6-12-3.2 3.5v8.5h-6.2v-29.9h6.2v13.6l2.7-3.7 7.6-9.9h7.5l-10.6 13.3 10.9 16.6z"/>
	<path id="3K copy" class="s7" aria-label="3K"  d="m274.1 239.1v-4.7h3.1q2.3 0 3.4-1.1 1-1.1 1-3 0-1.8-1-2.8-1.1-1-3-1-1.7 0-2.8 1-1.2 0.9-1.2 2.4h-5.9q0-2.4 1.2-4.2 1.3-1.9 3.6-2.9 2.2-1.1 5-1.1 4.7 0 7.4 2.3 2.7 2.3 2.7 6.2 0 2.1-1.3 3.8-1.2 1.7-3.3 2.7 2.6 0.9 3.8 2.7 1.2 1.8 1.2 4.2 0 4-2.9 6.4-2.9 2.4-7.6 2.4-4.5 0-7.4-2.3-2.8-2.4-2.8-6.3h5.9q0 1.7 1.3 2.8 1.3 1 3.1 1 2.1 0 3.3-1.1 1.2-1.1 1.2-2.9 0-4.5-4.9-4.5zm35.7 12.9l-7.6-12-3.2 3.5v8.5h-6.2v-29.9h6.2v13.6l2.7-3.7 7.6-9.9h7.5l-10.6 13.3 10.9 16.6z"/>
	<path id="3K copy 2" class="s7" aria-label="3K"  d="m274.1 298.1v-4.7h3.1q2.3 0 3.4-1.1 1-1.1 1-3 0-1.8-1-2.8-1.1-1-3-1-1.7 0-2.8 1-1.2 0.9-1.2 2.4h-5.9q0-2.4 1.2-4.2 1.3-1.9 3.6-2.9 2.2-1.1 5-1.1 4.7 0 7.4 2.3 2.7 2.3 2.7 6.2 0 2.1-1.3 3.8-1.2 1.7-3.3 2.7 2.6 0.9 3.8 2.7 1.2 1.8 1.2 4.2 0 4-2.9 6.4-2.9 2.4-7.6 2.4-4.5 0-7.4-2.3-2.8-2.4-2.8-6.3h5.9q0 1.7 1.3 2.8 1.3 1 3.1 1 2.1 0 3.3-1.1 1.2-1.1 1.2-2.9 0-4.5-4.9-4.5zm35.7 12.9l-7.6-12-3.2 3.5v8.5h-6.2v-29.9h6.2v13.6l2.7-3.7 7.6-9.9h7.5l-10.6 13.3 10.9 16.6z"/>
	<path id="Bex" class="s9" aria-label="Bex"  d="m149.5 28h-7.9v-22.8l7.5 0.1q3.7 0 5.5 1.5 1.9 1.5 1.9 4.5 0 1.6-0.9 2.8-0.9 1.3-2.5 1.9 1.9 0.5 2.9 2 1.1 1.4 1.1 3.4 0 3.1-2 4.9-1.9 1.7-5.6 1.7zm0.1-10.6h-5v8.1h5q2.1 0 3.3-1 1.2-1.1 1.2-3 0-4.1-4.5-4.1zm-5-9.7v7.3h4.6q1.9 0 3.1-1 1.2-1 1.2-2.7 0-1.9-1.1-2.7-1.1-0.9-3.3-0.9zm23.5 20.6q-3.5 0-5.6-2.2-2.2-2.3-2.2-6.1v-0.5q0-2.5 1-4.5 0.9-2 2.7-3.1 1.7-1.1 3.7-1.1 3.3 0 5.1 2.2 1.9 2.1 1.9 6.2v1.2h-11.5q0.1 2.5 1.5 4 1.4 1.6 3.5 1.6 1.5 0 2.6-0.7 1.1-0.6 1.9-1.6l1.7 1.3q-2.1 3.3-6.3 3.3zm-0.4-15.1q-1.7 0-2.9 1.2-1.2 1.3-1.5 3.6h8.5v-0.2q-0.2-2.2-1.2-3.4-1.1-1.2-2.9-1.2zm12.3-2.1l3.7 6.2 3.7-6.2h3.4l-5.5 8.4 5.7 8.5h-3.4l-3.9-6.3-3.9 6.3h-3.3l5.7-8.5-5.6-8.4z"/>
	<path id="Rex" class="s9" aria-label="Rex"  d="m280.9 27l-4.9-9.2h-5.4v9.2h-3v-22.8l7.6 0.1q3.8 0 5.9 1.7 2 1.8 2 5.1 0 2.1-1.1 3.7-1.2 1.6-3.2 2.4l5.3 9.6v0.2zm-10.2-20.3v8.6h4.6q2.2 0 3.5-1.1 1.3-1.2 1.3-3.1 0-2.1-1.2-3.2-1.3-1.2-3.6-1.2zm23.2 20.6q-3.4 0-5.6-2.2-2.1-2.3-2.1-6.1v-0.5q0-2.5 0.9-4.5 1-2 2.7-3.1 1.7-1.1 3.8-1.1 3.3 0 5.1 2.2 1.8 2.1 1.8 6.2v1.2h-11.4q0 2.5 1.4 4 1.4 1.6 3.6 1.6 1.5 0 2.6-0.7 1-0.6 1.8-1.6l1.8 1.3q-2.1 3.3-6.4 3.3zm-0.3-15.1q-1.8 0-3 1.2-1.2 1.3-1.4 3.6h8.4v-0.2q-0.1-2.2-1.2-3.4-1-1.2-2.8-1.2zm12.2-2.1l3.7 6.2 3.8-6.2h3.4l-5.6 8.4 5.7 8.5h-3.3l-3.9-6.3-3.9 6.3h-3.4l5.7-8.5-5.5-8.4z"/>
	<path id="Lex" class="s9" aria-label="Lex"  d="m396.7 4.3v20.2h10.7v2.5h-13.8v-22.8zm20.8 23.1q-3.4 0-5.6-2.2-2.1-2.3-2.1-6.1v-0.5q0-2.5 0.9-4.5 1-2 2.7-3.1 1.7-1.1 3.7-1.1 3.3 0 5.2 2.2 1.8 2.1 1.8 6.2v1.2h-11.5q0.1 2.5 1.5 4 1.4 1.6 3.6 1.6 1.5 0 2.6-0.7 1-0.6 1.8-1.6l1.8 1.3q-2.1 3.3-6.4 3.3zm-0.4-15.1q-1.7 0-2.9 1.2-1.2 1.3-1.5 3.6h8.5v-0.2q-0.1-2.2-1.2-3.4-1-1.2-2.9-1.2zm12.3-2.1l3.7 6.2 3.8-6.2h3.3l-5.5 8.4 5.7 8.5h-3.3l-3.9-6.3-3.9 6.3h-3.4l5.7-8.5-5.5-8.4z"/>
	<path id="Flop" class="s9" aria-label="Flop"  d="m37.2 183.5v2.5h-9.6v10h-3v-22.8l14.1 0.1v2.4h-11.1v7.8zm7.9-11.5v24h-2.9v-24zm3.8 15.6v-0.2q0-2.5 1-4.5 1-2 2.7-3 1.8-1.1 4-1.1 3.5 0 5.6 2.4 2.1 2.4 2.1 6.3v0.2q0 2.5-0.9 4.5-1 1.9-2.7 3-1.8 1.1-4.1 1.1-3.4 0-5.5-2.4-2.2-2.4-2.2-6.3zm2.9 0.1q0 2.8 1.3 4.6 1.4 1.7 3.5 1.7 2.2 0 3.5-1.8 1.3-1.7 1.3-4.8 0-2.8-1.3-4.5-1.3-1.7-3.5-1.7-2.1 0-3.4 1.7-1.4 1.7-1.4 4.8zm30.4-0.2v0.2q0 3.9-1.7 6.3-1.8 2.3-4.8 2.3-3.1 0-4.9-1.9v8.1h-2.8v-23.4h2.6l0.1 1.9q1.8-2.2 4.9-2.2 3.1 0 4.9 2.3 1.7 2.3 1.7 6.4zm-2.9-0.1q0-2.9-1.2-4.5-1.2-1.7-3.3-1.7-2.6 0-4 2.4v8q1.3 2.4 4 2.4 2.1 0 3.3-1.7 1.2-1.6 1.2-4.9z"/>
	<path id="Flop copy" class="s9" aria-label="Flop"  d="m131.2 374.5v2.5h-9.6v10h-3v-22.8l14.1 0.1v2.4h-11.1v7.8zm7.9-11.5v24h-2.9v-24zm3.8 15.6v-0.2q0-2.5 1-4.5 1-2 2.7-3 1.8-1.1 4-1.1 3.5 0 5.6 2.4 2.1 2.4 2.1 6.3v0.2q0 2.5-0.9 4.5-1 1.9-2.7 3-1.8 1.1-4.1 1.1-3.4 0-5.5-2.4-2.2-2.4-2.2-6.3zm2.9 0.1q0 2.8 1.3 4.6 1.4 1.7 3.5 1.7 2.2 0 3.5-1.8 1.3-1.7 1.3-4.8 0-2.8-1.3-4.5-1.3-1.7-3.5-1.7-2.1 0-3.4 1.7-1.4 1.7-1.4 4.8zm30.4-0.2v0.2q0 3.9-1.7 6.3-1.8 2.3-4.8 2.3-3.1 0-4.9-1.9v8.1h-2.8v-23.4h2.6l0.1 1.9q1.8-2.2 4.9-2.2 3.1 0 4.9 2.3 1.7 2.3 1.7 6.4zm-2.9-0.1q0-2.9-1.2-4.5-1.2-1.7-3.3-1.7-2.6 0-4 2.4v8q1.3 2.4 4 2.4 2.1 0 3.3-1.7 1.2-1.6 1.2-4.9z"/>
	<path id="Turn" class="s9" aria-label="Turn"  d="m39.4 230.3v2.4h-7.4v20.3h-2.9v-20.3h-7.3v-2.5zm11.9 22.8l-0.1-1.7q-1.6 2-4.9 2-2.7 0-4.1-1.6-1.4-1.5-1.5-4.6v-11h2.9v10.9q0 3.9 3.2 3.9 3.3 0 4.4-2.5v-12.3h2.9v16.9zm15.3-17v2.7q-0.7-0.1-1.5-0.1-2.8 0-3.8 2.4v12h-2.9v-16.9h2.8l0.1 1.9q1.4-2.2 4-2.2 0.8 0 1.3 0.2zm2.6 0.1h2.8l0.1 2.1q1.9-2.4 5-2.4 5.4 0 5.4 6v11.2h-2.9v-11.2q0-1.8-0.8-2.7-0.8-0.9-2.6-0.9-1.4 0-2.4 0.8-1.1 0.7-1.7 2v12h-2.9z"/>
	<path id="Turn copy" class="s9" aria-label="Turn"  d="m322.4 363.3v2.4h-7.4v20.3h-2.9v-20.3h-7.3v-2.5zm11.9 22.8l-0.1-1.7q-1.6 2-4.9 2-2.7 0-4.1-1.6-1.4-1.5-1.5-4.6v-11h2.9v10.9q0 3.9 3.2 3.9 3.3 0 4.4-2.5v-12.3h2.9v16.9zm15.3-17v2.7q-0.7-0.1-1.5-0.1-2.8 0-3.8 2.4v12h-2.9v-16.9h2.8l0.1 1.9q1.4-2.2 4-2.2 0.8 0 1.3 0.2zm2.6 0.1h2.8l0.1 2.1q1.9-2.4 5-2.4 5.4 0 5.4 6v11.2h-2.9v-11.2q0-1.8-0.8-2.7-0.8-0.9-2.6-0.9-1.4 0-2.4 0.8-1.1 0.7-1.7 2v12h-2.9z"/>
	<path id="River" class="s9" aria-label="River"  d="m32.9 313l-4.9-9.2h-5.4v9.2h-3v-22.8l7.6 0.1q3.8 0 5.9 1.7 2 1.8 2 5.1 0 2.1-1.1 3.7-1.2 1.6-3.2 2.4l5.3 9.6v0.2zm-10.2-20.3v8.6h4.6q2.2 0 3.5-1.1 1.3-1.2 1.3-3.1 0-2.1-1.2-3.2-1.3-1.2-3.6-1.2zm19.3 3.4v16.9h-2.8v-16.9zm-3.2-4.5q0-0.7 0.5-1.2 0.4-0.5 1.2-0.5 0.9 0 1.3 0.5 0.5 0.5 0.5 1.2 0 0.7-0.5 1.2-0.4 0.5-1.3 0.5-0.8 0-1.2-0.5-0.5-0.5-0.5-1.2zm9.1 4.5l4.3 13 4.1-13h3l-6.1 16.9h-2.2l-6.1-16.9zm21 17.2q-3.4 0-5.6-2.2-2.1-2.3-2.1-6.1v-0.5q0-2.5 0.9-4.5 1-2 2.7-3.1 1.8-1.1 3.8-1.1 3.3 0 5.1 2.2 1.8 2.1 1.8 6.2v1.2h-11.4q0 2.5 1.4 4 1.4 1.6 3.6 1.6 1.5 0 2.6-0.7 1.1-0.6 1.8-1.6l1.8 1.3q-2.1 3.3-6.4 3.3zm-0.3-15.1q-1.8 0-3 1.2-1.1 1.3-1.4 3.6h8.4v-0.2q-0.1-2.2-1.1-3.4-1.1-1.2-2.9-1.2zm18.4-2.2v2.7q-0.6-0.1-1.4-0.1-2.8 0-3.8 2.4v12h-2.9v-16.9h2.8v1.9q1.5-2.2 4.1-2.2 0.8 0 1.2 0.2z"/>
	<path id="River" class="s9" aria-label="River"  d="m409.9 386l-4.9-9.2h-5.4v9.2h-3v-22.8h7.6q3.8 0 5.9 1.8 2 1.7 2 5.1 0 2.1-1.1 3.7-1.2 1.6-3.2 2.4l5.3 9.6v0.2zm-10.2-20.3v8.6h4.6q2.2 0 3.5-1.1 1.3-1.2 1.3-3.1 0-2.1-1.2-3.2-1.3-1.2-3.6-1.2zm19.3 3.4v16.9h-2.8v-16.9zm-3.2-4.5q0-0.7 0.5-1.2 0.4-0.5 1.2-0.5 0.9 0 1.3 0.5 0.5 0.5 0.5 1.2 0 0.7-0.5 1.2-0.4 0.4-1.3 0.4-0.8 0-1.2-0.4-0.5-0.5-0.5-1.2zm9.1 4.5l4.3 13 4.1-13h3l-6.1 16.9h-2.2l-6.1-16.9zm21 17.2q-3.4 0-5.6-2.2-2.1-2.3-2.1-6.1v-0.5q0-2.5 0.9-4.5 1-2 2.7-3.1 1.8-1.1 3.8-1.1 3.3 0 5.1 2.2 1.8 2.1 1.8 6.2v1.2h-11.4q0 2.5 1.4 4 1.4 1.6 3.6 1.6 1.5 0 2.6-0.7 1.1-0.6 1.8-1.6l1.8 1.3q-2.1 3.3-6.4 3.3zm-0.3-15.1q-1.8 0-3 1.2-1.1 1.3-1.4 3.6h8.4v-0.2q-0.1-2.2-1.1-3.4-1.1-1.2-2.9-1.2zm18.4-2.2v2.7q-0.6-0.1-1.4-0.1-2.8 0-3.8 2.4v12h-2.9v-16.9h2.8v1.9q1.5-2.2 4.1-2.2 0.8 0 1.2 0.2z"/>
	<path id="Shape 1" class="s9" d="m127 48c0-5.5 4.5-10 10-10h58c5.5 0 10 4.5 10 10v36c0 5.5-4.5 10-10 10h-58c-5.5 0-10-4.5-10-10z"/>
	<path id="Shape 2" class="s9" d="m378 48c0-5.5 4.5-10 10-10h58c5.5 0 10 4.5 10 10v36c0 5.5-4.5 10-10 10h-58c-5.5 0-10-4.5-10-10z"/>
	<path id="Shape 3" class="s9" d="m127 107c0-5.5 4.5-10 10-10h58c5.5 0 10 4.5 10 10v36c0 5.5-4.5 10-10 10h-58c-5.5 0-10-4.5-10-10z"/>
	<path id="Shape 4" class="s9" d="m252 48c0-5.5 4.5-10 10-10h58c5.5 0 10 4.5 10 10v36c0 5.5-4.5 10-10 10h-58c-5.5 0-10-4.5-10-10z"/>
	<path id="Shape 5" class="s9" d="m378 107c0-5.5 4.5-10 10-10h58c5.5 0 10 4.5 10 10v36c0 5.5-4.5 10-10 10h-58c-5.5 0-10-4.5-10-10z"/>
	<path id="Shape 6" class="s9" d="m252 107c0-5.5 4.5-10 10-10h58c5.5 0 10 4.5 10 10v36c0 5.5-4.5 10-10 10h-58c-5.5 0-10-4.5-10-10z"/>
	<path id="A" class="s4" aria-label="A"  d="m155.5 78l-1.6-4.7h-8.2l-1.6 4.7h-5l8.5-22.8h4.3l8.5 22.8zm-5.7-17l-2.8 8.5h5.7z"/>
	<path id="A" class="s4" aria-label="A"  d="m155.5 137l-1.6-4.7h-8.2l-1.6 4.7h-5l8.5-22.8h4.3l8.5 22.8zm-5.7-17l-2.8 8.5h5.7z"/>
	<path id="2" class="s3" aria-label="2"  d="m282.1 74.4v3.6h-15.6v-3.1l7.4-7.8q1.5-1.7 2.2-2.9 0.8-1.3 0.8-2.4 0-1.5-0.8-2.3-0.8-0.9-2.2-0.9-1.5 0-2.4 1-0.9 1.1-0.9 2.8h-4.5q0-2.1 1-3.8 1-1.7 2.8-2.7 1.8-1 4.1-1 3.5 0 5.5 1.7 1.9 1.7 1.9 4.8 0 1.7-0.9 3.4-0.8 1.8-3 4.1l-5.1 5.5z"/>
	<path id="K" class="s3" aria-label="K"  d="m279 136l-5.8-9.1-2.5 2.6v6.5h-4.7v-22.8h4.7v10.4l2.1-2.9 5.8-7.5h5.7l-8 10.2 8.3 12.6z"/>
	<path id="9" class="s3" aria-label="9"  d="m403.1 126.9q-1.8 1.7-4.1 1.7-3 0-4.8-2-1.9-2.1-1.9-5.6 0-2.3 1-4.1 1-1.9 2.7-2.9 1.8-1.1 4-1.1 2.2 0 4 1.2 1.7 1.1 2.7 3.2 1 2.1 1 4.8v1.7q0 5.7-2.8 8.9-2.9 3.3-8.1 3.5h-1.1v-3.7l1-0.1q5.9-0.2 6.4-5.5zm-3-1.7q1.1 0 1.9-0.6 0.8-0.5 1.2-1.3v-1.9q0-2.3-0.9-3.6-0.9-1.2-2.3-1.2-1.4 0-2.3 1.2-0.9 1.3-0.9 3.1 0 1.9 0.9 3.1 0.8 1.2 2.4 1.2z"/>
	<path id="Q" class="s3" aria-label="Q"  d="m410.7 66.1v1q0 3.2-1 5.6-1.1 2.3-2.9 3.8l3.8 2.9-3 2.7-4.8-3.9q-0.9 0.1-1.8 0.1-2.8 0-5-1.3-2.2-1.4-3.5-3.9-1.2-2.6-1.2-5.8v-1.2q0-3.3 1.2-5.9 1.2-2.5 3.4-3.9 2.3-1.4 5.1-1.4 2.8 0 5 1.4 2.3 1.4 3.5 3.9 1.2 2.6 1.2 5.9zm-4.8 1.1v-1.1q0-3.6-1.2-5.4-1.3-1.9-3.7-1.9-2.4 0-3.6 1.9-1.3 1.8-1.3 5.3v1.1q0 3.5 1.2 5.4 1.3 2 3.7 2 2.4 0 3.7-1.9 1.2-1.8 1.2-5.4z"/>
	<path id="club" class="s3" d="m450 69.1c0 1.7-0.6 3.4-1.8 4.8-1.1 1.4-2.7 2.3-4.4 2.6-1.7 0.3-3.5 0-5.1-0.9-1.5-0.8-2.7-2.2-3.3-3.9 0 5 0.3 8.3 5 10.8h-12.8c4.7-2.5 5-5.8 5-10.8-1 2.8-3.7 4.8-6.7 4.9-3 0.1-5.8-1.5-7.1-4.2-1.4-2.8-0.9-6 1-8.3 2-2.2 5.1-3.1 8-2.2-1.6-2.3-1.8-5.3-0.5-7.8 1.3-2.5 3.9-4.1 6.7-4.1 2.8 0 5.4 1.6 6.7 4.1 1.3 2.5 1.1 5.5-0.5 7.8 1.1-0.4 2.3-0.5 3.5-0.3 1.1 0.2 2.3 0.7 3.2 1.4 1 0.7 1.7 1.6 2.3 2.7 0.5 1 0.8 2.2 0.8 3.4z"/>
	<path id="club copy" class="s3" d="m466 505.1c0 1.7-0.6 3.4-1.8 4.8-1.1 1.4-2.7 2.3-4.4 2.6-1.7 0.3-3.5 0-5.1-0.9-1.5-0.8-2.7-2.2-3.3-3.9 0 5 0.3 8.3 5 10.8h-12.8c4.7-2.5 5-5.8 5-10.8-1 2.8-3.7 4.8-6.7 4.9-3 0.1-5.8-1.5-7.1-4.2-1.4-2.8-0.9-6 1-8.3 2-2.2 5.1-3.1 8-2.2-1.6-2.3-1.8-5.3-0.5-7.8 1.3-2.5 3.9-4.1 6.7-4.1 2.8 0 5.4 1.6 6.7 4.1 1.3 2.5 1.1 5.5-0.5 7.8 1.1-0.4 2.3-0.5 3.5-0.3 1.1 0.2 2.3 0.7 3.2 1.4 1 0.7 1.7 1.6 2.3 2.7 0.5 1 0.8 2.2 0.8 3.4z"/>
	<path id="club copy 2" class="s3" d="m183 505.1c0 1.7-0.6 3.4-1.8 4.8-1.1 1.4-2.7 2.3-4.4 2.6-1.7 0.3-3.5 0-5.1-0.9-1.5-0.8-2.7-2.2-3.3-3.9 0 5 0.3 8.3 5 10.8h-12.8c4.7-2.5 5-5.8 5-10.8-1 2.8-3.7 4.8-6.7 4.9-3 0.1-5.8-1.5-7.1-4.2-1.4-2.8-0.9-6 1-8.3 2-2.2 5.1-3.1 8-2.2-1.6-2.3-1.8-5.3-0.5-7.8 1.3-2.5 3.9-4.1 6.7-4.1 2.8 0 5.4 1.6 6.7 4.1 1.3 2.5 1.1 5.5-0.5 7.8 1.1-0.4 2.3-0.5 3.5-0.3 1.1 0.2 2.3 0.7 3.2 1.4 1 0.7 1.7 1.6 2.3 2.7 0.5 1 0.8 2.2 0.8 3.4z"/>
	<path id="club copy 3" class="s3" d="m183 577.1c0 1.7-0.6 3.4-1.8 4.8-1.1 1.4-2.7 2.3-4.4 2.6-1.7 0.3-3.5 0-5.1-0.9-1.5-0.8-2.7-2.2-3.3-3.9 0 5 0.3 8.3 5 10.8h-12.8c4.7-2.5 5-5.8 5-10.8-1 2.8-3.7 4.8-6.7 4.9-3 0.1-5.8-1.5-7.1-4.2-1.4-2.8-0.9-6 1-8.3 2-2.2 5.1-3.1 8-2.2-1.6-2.3-1.8-5.3-0.5-7.8 1.3-2.5 3.9-4.1 6.7-4.1 2.8 0 5.4 1.6 6.7 4.1 1.3 2.5 1.1 5.5-0.5 7.8 1.1-0.4 2.3-0.5 3.5-0.3 1.1 0.2 2.3 0.7 3.2 1.4 1 0.7 1.7 1.6 2.3 2.7 0.5 1 0.8 2.2 0.8 3.4z"/>
	<path id="club copy 4" class="s3" d="m183 645.1c0 1.7-0.6 3.4-1.8 4.8-1.1 1.4-2.7 2.3-4.4 2.6-1.7 0.3-3.5 0-5.1-0.9-1.5-0.8-2.7-2.2-3.3-3.9 0 5 0.3 8.3 5 10.8h-12.8c4.7-2.5 5-5.8 5-10.8-1 2.8-3.7 4.8-6.7 4.9-3 0.1-5.8-1.5-7.1-4.2-1.4-2.8-0.9-6 1-8.3 2-2.2 5.1-3.1 8-2.2-1.6-2.3-1.8-5.3-0.5-7.8 1.3-2.5 3.9-4.1 6.7-4.1 2.8 0 5.4 1.6 6.7 4.1 1.3 2.5 1.1 5.5-0.5 7.8 1.1-0.4 2.3-0.5 3.5-0.3 1.1 0.2 2.3 0.7 3.2 1.4 1 0.7 1.7 1.6 2.3 2.7 0.5 1 0.8 2.2 0.8 3.4z"/>
	<path id="Spade" class="s3" d="m449 129.1c0 4.8-4.1 7-7 7-3.2 0-5.6-1.4-7-2.6 0.2 3.9 1.1 6.7 5.3 8.8h-13.6c4.2-2.1 5.1-4.9 5.3-8.8-1.4 1.2-3.8 2.6-7 2.6-2.9 0-7-2.2-7-7 0-8.7 6.2-6.3 15.5-21.1 9.3 14.8 15.5 12.4 15.5 21.1z"/>
	<path id="Spade copy" class="s3" d="m324 129.1c0 4.8-4.1 7-7 7-3.2 0-5.6-1.4-7-2.6 0.2 3.9 1.1 6.7 5.3 8.8h-13.6c4.2-2.1 5.1-4.9 5.3-8.8-1.4 1.2-3.8 2.6-7 2.6-2.9 0-7-2.2-7-7 0-8.7 6.2-6.3 15.5-21.1 9.3 14.8 15.5 12.4 15.5 21.1z"/>
	<path id="Spade copy 2" class="s3" d="m324 71.1c0 4.8-4.1 7-7 7-3.2 0-5.6-1.4-7-2.6 0.2 3.9 1.1 6.7 5.3 8.8h-13.6c4.2-2.1 5.1-4.9 5.3-8.8-1.4 1.2-3.8 2.6-7 2.6-2.9 0-7-2.2-7-7 0-8.7 6.2-6.3 15.5-21.1 9.3 14.8 15.5 12.4 15.5 21.1z"/>
	<path id="Spade copy 3" class="s3" d="m465 435.1c0 4.8-4.1 7-7 7-3.2 0-5.6-1.4-7-2.6 0.2 3.9 1.1 6.7 5.3 8.8h-13.6c4.2-2.1 5.1-4.9 5.3-8.8-1.4 1.2-3.8 2.6-7 2.6-2.9 0-7-2.2-7-7 0-8.7 6.2-6.3 15.5-21.1 9.3 14.8 15.5 12.4 15.5 21.1z"/>
	<path id="Spade copy 5" class="s3" d="m465 646.1c0 4.8-4.1 7-7 7-3.2 0-5.6-1.4-7-2.6 0.2 3.9 1.1 6.7 5.3 8.8h-13.6c4.2-2.1 5.1-4.9 5.3-8.8-1.4 1.2-3.8 2.6-7 2.6-2.9 0-7-2.2-7-7 0-8.7 6.2-6.3 15.5-21.1 9.3 14.8 15.5 12.4 15.5 21.1z"/>
	<path id="Spade copy 6" class="s3" d="m276 435.1c0 4.8-4.1 7-7 7-3.2 0-5.6-1.4-7-2.6 0.2 3.9 1.1 6.7 5.3 8.8h-13.6c4.2-2.1 5.1-4.9 5.3-8.8-1.4 1.2-3.8 2.6-7 2.6-2.9 0-7-2.2-7-7 0-8.7 6.2-6.3 15.5-21.1 9.3 14.8 15.5 12.4 15.5 21.1z"/>
	<path id="Spade copy 7" class="s3" d="m276 578.1c0 4.8-4.1 7-7 7-3.2 0-5.6-1.4-7-2.6 0.2 3.9 1.1 6.7 5.3 8.8h-13.6c4.2-2.1 5.1-4.9 5.3-8.8-1.4 1.2-3.8 2.6-7 2.6-2.9 0-7-2.2-7-7 0-8.7 6.2-6.3 15.5-21.1 9.3 14.8 15.5 12.4 15.5 21.1z"/>
	<path id="Spade copy 8" class="s3" d="m276 648.1c0 4.8-4.1 7-7 7-3.2 0-5.6-1.4-7-2.6 0.2 3.9 1.1 6.7 5.3 8.8h-13.6c4.2-2.1 5.1-4.9 5.3-8.8-1.4 1.2-3.8 2.6-7 2.6-2.9 0-7-2.2-7-7 0-8.7 6.2-6.3 15.5-21.1 9.3 14.8 15.5 12.4 15.5 21.1z"/>
	<path id="Spade copy 9" class="s3" d="m371 507.1c0 4.8-4.1 7-7 7-3.2 0-5.6-1.4-7-2.6 0.2 3.9 1.1 6.7 5.3 8.8h-13.6c4.2-2.1 5.1-4.9 5.3-8.8-1.4 1.2-3.8 2.6-7 2.6-2.9 0-7-2.2-7-7 0-8.7 6.2-6.3 15.5-21.1 9.3 14.8 15.5 12.4 15.5 21.1z"/>
	<path id="Spade copy 4" class="s3" d="m465 579.1c0 4.8-4.1 7-7 7-3.2 0-5.6-1.4-7-2.6 0.2 3.9 1.1 6.7 5.3 8.8h-13.6c4.2-2.1 5.1-4.9 5.3-8.8-1.4 1.2-3.8 2.6-7 2.6-2.9 0-7-2.2-7-7 0-8.7 6.2-6.3 15.5-21.1 9.3 14.8 15.5 12.4 15.5 21.1z"/>
	<path id="heart" class="s4" d="m200 59.2c0 11.9-16.5 23.9-16.5 23.9 0 0-16.5-12-16.5-23.9 0-6.7 5.2-9.2 7.9-9.2 5.7 0 8.6 4.8 8.6 4.8 0 0 2.9-4.8 8.6-4.8 2.7 0 7.9 2.5 7.9 9.2z"/>
	<path id="heart copy" class="s4" d="m90 423.2c0 11.9-16.5 23.9-16.5 23.9 0 0-16.5-12-16.5-23.9 0-6.7 5.2-9.2 7.9-9.2 5.7 0 8.6 4.8 8.6 4.8 0 0 2.9-4.8 8.6-4.8 2.7 0 7.9 2.5 7.9 9.2z"/>
	<path id="heart copy 2" class="s4" d="m278 495.2c0 11.9-16.5 23.9-16.5 23.9 0 0-16.5-12-16.5-23.9 0-6.7 5.2-9.2 7.9-9.2 5.7 0 8.6 4.8 8.6 4.8 0 0 2.9-4.8 8.6-4.8 2.7 0 7.9 2.5 7.9 9.2z"/>
	<path id="heart copy 3" class="s4" d="m372 423.2c0 11.9-16.5 23.9-16.5 23.9 0 0-16.5-12-16.5-23.9 0-6.7 5.2-9.2 7.9-9.2 5.7 0 8.6 4.8 8.6 4.8 0 0 2.9-4.8 8.6-4.8 2.7 0 7.9 2.5 7.9 9.2z"/>
	<path id="heart copy 4" class="s4" d="m373 567.2c0 11.9-16.5 23.9-16.5 23.9 0 0-16.5-12-16.5-23.9 0-6.7 5.2-9.2 7.9-9.2 5.7 0 8.6 4.8 8.6 4.8 0 0 2.9-4.8 8.6-4.8 2.7 0 7.9 2.5 7.9 9.2z"/>
	<path id="heart copy 5" class="s4" d="m373 635.2c0 11.9-16.5 23.9-16.5 23.9 0 0-16.5-12-16.5-23.9 0-6.7 5.2-9.2 7.9-9.2 5.7 0 8.6 4.8 8.6 4.8 0 0 2.9-4.8 8.6-4.8 2.7 0 7.9 2.5 7.9 9.2z"/>
	<path id="Diamond" class="s4" d="m196 125.3c-5.3 3.2-10.5 9.7-13.5 17.2-3-7.5-8.2-14-13.5-17.2 5.3-3.3 10.5-9.8 13.5-17.3 3 7.5 8.2 14 13.5 17.3z"/>
	<path id="Diamond copy" class="s4" d="m86 502.3c-5.3 3.2-10.5 9.7-13.5 17.2-3-7.5-8.2-14-13.5-17.2 5.3-3.3 10.5-9.8 13.5-17.3 3 7.5 8.2 14 13.5 17.3z"/>
	<path id="Diamond copy 2" class="s4" d="m180 430.3c-5.3 3.2-10.5 9.7-13.5 17.2-3-7.5-8.2-14-13.5-17.2 5.3-3.3 10.5-9.8 13.5-17.3 3 7.5 8.2 14 13.5 17.3z"/>
	<path id="Diamond copy 3" class="s4" d="m86 574.3c-5.3 3.2-10.5 9.7-13.5 17.2-3-7.5-8.2-14-13.5-17.2 5.3-3.3 10.5-9.8 13.5-17.3 3 7.5 8.2 14 13.5 17.3z"/>
	<path id="Diamond copy 4" class="s4" d="m86 644.3c-5.3 3.2-10.5 9.7-13.5 17.2-3-7.5-8.2-14-13.5-17.2 5.3-3.3 10.5-9.8 13.5-17.3 3 7.5 8.2 14 13.5 17.3z"/>
	<path id="Shape 28" class="s10" d="m6 365.6c0-5.5 4.5-10 10-10l265.1 0.6c5.5 0 9.9 4.5 9.9 10l-0.6 304.1c0 5.5-4.5 10-10 10l-265.1-0.6c-5.5 0-10-4.5-10-10z"/>
</svg>